/* XPM */
static char *fire1680267369[] = {
/* columns rows colors chars-per-pixel */
"64 64 238 2 ",
"   c #010201",
".  c #010B03",
"X  c #0A0909",
"o  c #080104",
"O  c #121714",
"+  c #1E231E",
"@  c #201C21",
"#  c #1F2825",
"$  c #242625",
"%  c #2E2D2D",
"&  c #2A2726",
"*  c #342A28",
"=  c #2F2F31",
"-  c #343534",
";  c #3B3B3C",
":  c #373A36",
">  c #2D3331",
",  c #780A08",
"<  c #7B1112",
"1  c #77110D",
"2  c #42393A",
"3  c #6E2E2C",
"4  c #37423B",
"5  c #59403B",
"6  c #434343",
"7  c #4C4D4C",
"8  c #46454A",
"9  c #554948",
"0  c #4F514E",
"q  c #524F54",
"w  c #594F50",
"e  c #535354",
"r  c #5C595B",
"t  c #585759",
"y  c #55584F",
"u  c #654B44",
"i  c #645E5E",
"p  c #64514B",
"a  c #57645D",
"s  c #61605E",
"d  c #646463",
"f  c #676568",
"g  c gray50",
"h  c #717573",
"j  c #78706E",
"k  c #8D090D",
"l  c #830A07",
"z  c #940C05",
"x  c #940D0B",
"c  c #9A0D0A",
"v  c #970408",
"b  c #891203",
"n  c #8C130B",
"m  c #871008",
"M  c #96120B",
"N  c #840E11",
"B  c #8D0E13",
"V  c #950F14",
"C  c #9A0C15",
"Z  c #9E0B1A",
"A  c #980918",
"S  c #8D1313",
"D  c #8D1B1A",
"F  c #851A16",
"G  c #961115",
"H  c #971518",
"J  c #9B1519",
"K  c #A60103",
"L  c #AC0001",
"P  c #AC030C",
"I  c #AA080C",
"U  c #A4040D",
"Y  c #B40103",
"T  c #BC0202",
"R  c #BC0A01",
"E  c #B4020A",
"W  c #BB020B",
"Q  c #B30C0D",
"!  c #BB090B",
"~  c #B70A03",
"^  c #AA0B13",
"/  c #BB0C16",
"(  c #BA0612",
")  c #A9151A",
"_  c #BB1414",
"`  c #BB1A1D",
"'  c #B91619",
"]  c #AE150E",
"[  c #8C211B",
"{  c #981C25",
"}  c #BE1C21",
"|  c #B61D23",
" . c #AC1B22",
".. c #853F3D",
"X. c #AC2128",
"o. c #BA252B",
"O. c #BA2929",
"+. c #B93635",
"@. c #B52830",
"#. c #C40201",
"$. c #CA0201",
"%. c #C2010D",
"&. c #C70906",
"*. c #D50305",
"=. c #C50914",
"-. c #D70611",
";. c #C3161A",
":. c #CD151A",
">. c #C5191E",
",. c #C91A1B",
"<. c #C71416",
"1. c #C0211E",
"2. c #C61B22",
"3. c #C91E25",
"4. c #C31D29",
"5. c #C91823",
"6. c #C32224",
"7. c #C4212A",
"8. c #C32B2B",
"9. c #C0312D",
"0. c #D02D36",
"q. c #874340",
"w. c #AC574D",
"e. c #BA5C5C",
"r. c #B45550",
"t. c #AE6054",
"y. c #B96866",
"u. c #BB7570",
"i. c #CD6F6D",
"p. c #C9716B",
"a. c #C77772",
"s. c #D97875",
"d. c #C96A72",
"f. c #E87F7C",
"g. c #D0857F",
"h. c #EB827E",
"j. c #848382",
"k. c #8B8B8B",
"l. c #989998",
"z. c #89938E",
"x. c #A19A96",
"c. c #96A09D",
"v. c #A7A19E",
"b. c #9FA7A5",
"n. c #A4A4A4",
"m. c #ABA9A8",
"M. c #B0AEAF",
"N. c #B1B3AD",
"B. c #B8B7B7",
"V. c #AEB7B6",
"C. c #CA8D88",
"Z. c #D68985",
"A. c #DA938E",
"S. c #D48B93",
"D. c #C79793",
"F. c #D29A95",
"G. c #D49697",
"H. c #C6908E",
"J. c #E28486",
"K. c #E88988",
"L. c #F48C92",
"P. c #E69994",
"I. c #F89796",
"U. c #F4858C",
"Y. c #DBA193",
"T. c #EBA39C",
"R. c #F3A99B",
"E. c #DB9FA1",
"W. c #D7A3A1",
"Q. c #DFB3AE",
"!. c #C9BBBB",
"~. c #E9AEA4",
"^. c #FCA9A6",
"/. c #E7B4A9",
"(. c #FAB2A8",
"). c #EABAB5",
"_. c #E8B5B2",
"`. c #FFB6B2",
"'. c #FFBBB7",
"]. c #FFBDBB",
"[. c #F1B9B9",
"{. c #CDCBBD",
"}. c #F9C4B9",
"|. c #EFC3B6",
" X c #BFC4C7",
".X c #C3C3C3",
"XX c #CCCDCB",
"oX c #CECAC1",
"OX c #D4CBC6",
"+X c #DCCAC5",
"@X c #DCC6CB",
"#X c #D2CCCA",
"$X c #DBCACC",
"%X c #D1C5C9",
"&X c #CCD2CB",
"*X c #CCD3C1",
"=X c #D3D1CB",
"-X c #DBD0CB",
";X c #D7D3C9",
":X c #CFCED3",
">X c #D3CCD1",
",X c #D9C8D0",
"<X c #CBD2D1",
"1X c #C7D1D0",
"2X c #D4D2D3",
"3X c #DCDCDE",
"4X c #E4C6C4",
"5X c #E2C5C9",
"6X c #E7C9C6",
"7X c #FFCAC7",
"8X c #FFD5CF",
"9X c #E8CCD2",
"0X c #FFDBD6",
"qX c #E4D2CE",
"wX c #FFE3DD",
"eX c #DEEDE6",
"rX c #EBEAE9",
"tX c #E9E4E7",
"yX c #FFECE4",
"uX c #FDECE9",
"iX c #F9EAE6",
"pX c #E9F2EA",
"aX c #FFF4EC",
"sX c #FFFAEE",
"dX c #F9F3E9",
"fX c #FFEEF5",
"gX c #EBF5F3",
"hX c #ECFEFE",
"jX c #EDF9F6",
"kX c #F5F4F4",
"lX c #FEF5F4",
"zX c #FEFCF5",
"xX c #F5F5FB",
"cX c #FFF5FB",
"vX c #F5FEFE",
"bX c #FEFEFE",
"nX c #F4FCF5",
"mX c #E5EDF0",
/* pixels */
"bXbXbXbXbXbXbXbXbXbXbXbXbXbXbXbXbXbXbXbXbXbXbXbXbXbXbXbXbXbXbXbXbXbXbXbXbXbXbXbXbXbXbXbXbXbXbXbXbXbXbXbXbXbXbXbXbXbXbXbXbXbXbXbX",
"bXbXbXbXbXbXbXbXbXbXbXbXbXbXbXbXbXbXbXbXbXbXbXbXbXbXbXbXbXbXbXbXbXbXbXbXbXbXbXbXbXbXbXbXbXbXbXbXbXbXbXbXbXbXbXbXbXbXbXbXbXbXbXbX",
"bXbXbXbXbXbXbXbXbXbXbXbXbXbXbXbXbXbXbXbXbXbXbXbXbXbXbXbXbXbXbXbXbXbXbXbXbXbXbXbXbXbXbXbXbXbXbXbXbXbXbXbXbXbXbXbXbXbXbXbXbXbXbXbX",
"bXbXbXbXbXbXbXbXbXbXbXbXbXbXbXbXbXbXbXbXbXbXbXbXbXbXbXbXbXbXbXbXbXbXbXbXbXbXbXbXbXbXbXbXbXbXbXbXbXbXbXbXbXbXbXbXbXbXbXbXbXbXbXbX",
"bXbXbXbXbXbXbXbXbXbXbXbXbXbXbXbXbXbXbXbXbXbXbXbXbXbXbXbXbXbXbXbXbXbXbXbXbXbXbXbXbXbXbXbXbXbXbXbXbXbXbXbXbXbXbXbXbXbXbXbXbXbXbXbX",
"bXbXbXbXbXbXbXbXbXbXbXbXbXbXbXbXbXbXbXbXbXbXbXbXbXbXbXbXbXbXbXbXbXbXbXbXbXbXbXbXbXbXbXbXbXbXbXbXbXbXbXbXbXbXbXbXbXbXbXbXbXbXbXbX",
"bXbXbXbXbXbXbXbXbXbXbXbXbXbXbXbXbXbXbXbXbXbXbXbXbXbXbXbXbXbXbXvXbXbXbXbXbXbXbXbXbXbXbXbXbXbXbXbXbXbXbXbXbXbXbXbXbXbXbXbXbXbXbXbX",
"bXbXbXbXbXbXbXbXbXbXbXbXbXbXbXbXvXbXbXbXbXbXbXbXbXbXbXbXbXbXbXbXvXbXbXbXbXbXbXbXbXvXbXbXbXbXbXbXbXbXbXbXbXbXbXbXbXbXbXbXbXbXbXbX",
"bXbXbXbXbXbXbXbXbXbXbXbXbXbXbXbXbXzXbXbXbXcXcXbXnXbXbXbXkXbXbXbXbXzXcXbXbXbXbXbXbXbXbXkXbXbXxXbXzXvXbXbXzXbXbXvXbXbXbXbXbXbXbXbX",
"bXbXbXbXbXbXbXbXbXbXbXbXbXbXbXbXbXbXbXnXbXbXbXbXbXbXrXbXbXkXvXcXbXbXbXbXbXbXcXbXvXkXvXbXbXbXbXkXcXbXbXbXbXbXbXbXbXbXbXbXbXbXbXbX",
"bXbXbXbXbXbXbXbXbXbXbXbXbXbXbXbXbXbXbXbXbXbXbXxXcXbXbXbXnXbXbXvXzXbXbXbXbXbXbXbXbXbXzXxXkXbXbXzXbXbXbXbXbXbXbXbXbXbXbXbXbXbXbXbX",
"bXbXbXbXbXbXbXbXbXbXbXbXbXbXbXbXkXvXbXbXbXbXvXzXbXkXbXnXcXbXkXbXcXbXbXvXxXbXzXvXvXbXcXzXcXbXm..XbXbXbXbXbXbXbXbXbXbXbXbXbXbXbXbX",
"bXbXbXbXbXbXbXbXbXbXbXbXbXbXbXbXbXbXbXbXbXzXbXbXvXbXcXkXbXbXvXbXbXbXbXbXbXbXbXbXbXbXbXbXxXN.7 f kXbXbXbXbXbXcXbXbXbXbXbXbXbXbXbX",
"bXbXbXbXbXbXbXbXbXbXbXbXbXbXbXbXkXvXbXbXbXkXvXbXzXn.k.k.k.k.l.j.k.k.k.l.n.n.n.m.l.n.b.m.l.g g h rXbXbXnXbXbXbXbXbXbXbXbXbXbXbXbX",
"bXbXbXbXbXbXbXbXbXbXbXbXbXbXbXbXnXbXbXbXvXcXbXbX.XX   X             X $ : : - ; 2 5 > - ; e h % 3XbXbXvXbXbXbXbXbXbXbXbXbXbXbXbX",
"bXbXbXbXbXbXbXbXbXbXbXbXbXbXbXbXbXbXrX.XM.B.B.N.> + : > # @ $ # $ @ = e f d r i r d a t t q e - 2XzXbXkXzXbXvXbXbXbXbXbXbXbXbXbX",
"bXbXbXbXbXbXbXbXbXbXbXbXbXbXbXbXvXjXV.    o X     . . .   .   o o o   X - & * * * * : + 4 7 0 6 tXkXbXbXvXbXbXbXbXbXbXbXbXbXbXbX",
"bXbXbXbXbXbXbXbXbXbXbXbXbXbXbXbXvXvXc.  % 2 o j n.l.c.b.t # - ; @ t n.n.l.n.v.v.v.x.l.v.j.6 6 g xXbXbXbXbXbXbXbXbXbXbXbXbXbXbXbX",
"bXbXbXbXbXbXbXbXbXbXbXbXbXbXbXbXbXnXm.  - o w lXcXbXbXbX<X6 t t 8 3XbXbXbXvXbXzXsXzXcXcXlXj.  z.bXbXbXbXbXbXbXnXbXbXbXbXbXbXbXbX",
"bXbXbXbXbXbXbXbXbXbXbXbXbXbXbXbXlXbXN.  X 7 tXcXcXcXcXcXbXq t 7 e vXkXnXbXvXvXvXbXfXcXfXzXrXz.pXbXbXzXvXbXbXbXbXbXbXbXbXbXbXbXbX",
"bXbXbXbXbXbXbXbXbXbXbXbXbXbXbXbXlXzXN.. 4 gXbXxXcXcXcXbXtXr w q a eXbXbXkXbXbXbXbXxXcXbXcXbXbXkXbXbXbXzXbXbXbXbXbXbXbXbXbXbXbXbX",
"bXbXbXbXbXbXbXbXbXbXbXbXbXbXbXbXzXdX{.. h vXgXvXbXbXbXbXfXi 9 p e pXbXbXlXcXcXbXxXbXbXkXbXkXzXbXvXbXbXbXcXbXbXbXbXbXbXbXbXbXbXbX",
"bXbXbXbXbXbXbXbXbXbXbXbXbXbXbXbXbXzX!.  d bXvXvXvXvXbXkXiXp 2 u u yXaXzXbXkXbXbXvXjXvXvXbXbXlXzXzXbXbXbXbXbXbXbXbXbXbXbXbXbXbXbX",
"bXbXbXbXbXbXbXbXbXbXbXbXbXbXbXbXnXcX%Xo f xXvXvXvXvXlXzXW.3 q...3 F.wXzXlXbXcXbXbXbXbXvXkXvXcXzXcXbXbXvXbXbXbXbXbXbXbXbXbXbXbXbX",
"bXbXbXbXbXbXbXbXbXbXbXbXbXbXbXbXvXvX X  q nXvXvXzXlXuXd.{ X.k A { < y.uXzXzXbXvXbXcXbXbXbXbXbXzXbXbXbXbXbXbXbXbXbXbXbXbXbXbXbXbX",
"bXbXbXbXbXbXbXbXbXbXbXbXbXbXbXvXhXhXmXf >XxXvXzXzXyXL.A } P / ( U @., Z.iXsXdXbXcXbXbXcXvXvXvXnXvXbXbXbXbXbXbXbXbXbXbXbXbXbXbXbX",
"bXbXbXbXbXbXbXbXbXbXbXbXbXbXbXbXvXxXbXbXzXbXdXsXuXy.k 8.L T ~ K Y I X.F y.yXzXaXzXcXbXcXcXbXvXvXbXbXbXbXbXbXbXbXbXbXbXbXbXbXbXbX",
"bXbXbXbXbXbXbXbXbXbXbXbXbXbXbXbXbXbXcXcXlXsXsXyXa., 8.E T T K ~ Y %.L O., y.wXzXzXzXzXbXbXzXbXvXvXbXbXbXbXbXbXbXbXbXbXbXbXbXbXbX",
"bXbXbXbXbXbXbXbXbXbXbXbXbXbXbXbXbXbXvXiXzXaXaXp.G 9.Q T T Y ~ R R L T ! ' G e.0XsXzXkXzXbXvXbXbXbXbXbXbXbXbXbXbXbXbXbXbXbXbXbXbX",
"bXbXbXbXbXbXbXbXbXbXbXbXbXbXbXbXbXxXbXzXsX0Xi.J 7.W Y $.T #.T Y T #.T T W } { e.8XsXzXnXbXvXcXbXbXbXbXzXbXbXbXbXbXbXbXbXbXbXbXbX",
"bXbXbXbXbXbXbXbXbXbXbXbXbXbXbXbXbXbXzXyXyXs.J 0.-.-.$.$.#.#.#.#.$.T $.T #.E ) N a.wXsXnXzXvXbXbXbXcXbXbXbXbXbXbXbXbXbXbXbXbXbXbX",
"bXbXbXbXbXbXbXbXbXbXbXbXbXbXbXbXbXvXzXzXT.D 0.%.*.*.$.-.T &.$.$.$.#.$.#.! W U 9.1 (.zXkXbXvXcXzXbXbXbXbXbXbXbXbXbXbXbXbXbXbXbXbX",
"bXbXbXbXbXbXbXbXbXbXbXbXbXbXbXbXvXvXvXcXJ.c 6.Y $.#.&.%.T #.T T #.~ #.T Y ~ Q ` G Z.cXbXbXbXbXzXbXbXbXbXbXbXbXbXbXbXbXbXbXbXbXbX",
"bXbXbXbXbXbXbXbXbXbXbXbXbXbXbXbXvXvXvXcXU.U 1.Y T $.Y L T T T ! W #.=.W T Y L X.c Z.cXbXcXbXzXbXbXbXbXbXbXbXbXbXbXbXbXbXbXbXbXbX",
"bXbXbXbXbXbXbXbXbXbXbXbXbXbXbXvXvXvXxXzXU.U 5.T $.*.%.( =.%.%.W W Y W W &.T Y 6.x K.cXvXvXbXvXzXzXbXbXbXbXbXbXbXbXbXbXbXbXbXbXbX",
"bXbXbXbXbXbXbXbXbXbXbXbXbXbXbXbXbXbXvXzXL.U 3.T $.T ^ Z A A C Z Z C ) P L ~ Y 6.c P.cXxXvXvXzXvXbXbXbXbXbXbXbXbXbXbXbXbXbXbXbXbX",
"bXbXbXbXbXbXbXbXbXbXbXbXbXbXbXbXbXzXzXcXI.C o.I ] c J.[._.).Q.Q./.~.(.h.] _ ~ >.U I.lXbXbXbXbXvXbXbXbXbXbXbXbXbXbXbXbXbXbXbXbXbX",
"bXbXbXbXbXbXbXbXbXbXbXbXbXbXbXbXzXzXlXlXI.V o.I 6.m W.qXoX=X&X;X*X{.6XA.l ' ~ ;.c I.lXvXbXvXbXbXbXvXbXbXbXbXbXbXbXbXbXbXbXbXbXbX",
"bXbXbXbXbXbXbXbXbXbXbXbXbXbXbXbXcXzXbXsX^.V 7.P ` k E.qX%X#XXXXX&X*X4XA.n 1.Q 2.z I.lXbXbXcXcXbXbXbXbXbXbXbXbXbXbXbXbXbXbXbXbXbX",
"bXbXbXbXbXbXbXbXbXbXbXbXbXbXbXbXzXvXzXlX^.G 4.E <.) G.@X#XXX>X>XXX#X9XS.J ' Y 6.z T.lXxXbXcXbXcXzXbXcXbXbXbXbXbXbXbXbXbXbXbXbXbX",
"bXbXbXbXbXbXbXbXbXbXbXbXbXbXbXcXcXbXbXlX`.k 7.E :.c F.-X=X&X2XXX>X,X9XS.G 2.E 6.b R.zXvXvXbXcXcXcXbXbXbXbXbXbXbXbXbXbXbXbXbXbXbX",
"bXbXbXbXbXbXbXbXbXbXbXbXbXbXbXbXcXbXvXlX`.B 4.( :.c F.-X#XOX=XXX>X>X9XS.A 2.E 2.b R.zXvXvXbXbXbXbXbXbXbXbXbXbXbXbXbXbXbXbXbXbXbX",
"bXbXbXbXbXbXbXbXbXbXbXbXbXbXbXbXbXbXvXlX`.S 7.W :.c F.-XOXOX=X&X1X<X2XH.S } E 1.b R.zXvXbXvXcXbXbXbXbXbXbXbXbXbXbXbXbXbXbXbXbXbX",
"bXbXbXbXbXbXbXbXbXbXbXbXbXbXbXbXbXbXbXzX'.G 4.W :.z F.-XOXOX=X&X<X:X>XD.S 2.L 6.n (.xXbXbXbXbXbXbXbXbXbXbXbXbXbXbXbXbXbXbXbXbXbX",
"bXbXbXbXbXbXbXbXbXbXbXbXbXbXbXbXbXbXbXcX'.S o.Y ,.z D.;XOX&X1X&X@X@XqXH.V ;.P 4.n (.cXcXbXcXzXcXbXbXbXbXbXbXbXbXbXbXbXbXbXbXbXbX",
"bXbXbXbXbXbXbXbXbXbXbXbXbXbXbXbXbXbXbXzX].S 6.E ;.x D.;XOX#X1XXX5X5X6XC.V 2.E 7.n (.cXcXcXbXbXzXbXbXbXbXbXbXbXbXbXbXbXbXbXbXbXbX",
"bXbXbXbXbXbXbXbXbXbXbXbXbXbXbXcXbXvXcXcX].S 4.E ,.x F.$X$X>X<X:X@X+XOXH.k ;.E 3.n (.cXcXbXvXvXvXbXbXbXzXbXbXbXbXbXbXbXbXbXbXbXbX",
"bXbXbXbXbXbXbXbXbXbXbXbXbXbXbXbXbXzXzXlX].S 4.E :.x A.4X4X5X$X#X+X+X4XC.x ;.Y 3.n (.lXcXvXvXvXvXvXbXbXbXbXbXbXbXbXbXbXbXbXbXbXbX",
"bXbXbXbXbXbXbXbXbXbXbXbXbXbXbXbXbXkXzXzX7XN 4.( 5.U K.}.|.|.).[.|._.}.h.v _ &.` S `.sXnXvXhXvXbXbXbXbXbXbXbXbXbXbXbXbXbXbXbXbXbX",
"bXbXbXbXbXbXbXbXbXbXbXbXbXbXbXbXkXbXiXlX7XF 0.P ( P +.r.w.t.r.e.t.y.r.O.~ Y ~ +.1 /.zXvXvXhXbXbXbXbXbXvXbXbXbXbXbXbXbXbXbXbXbXbX",
"bXbXbXbXbXbXbXbXbXbXbXbXbXbXbXbXbXkXbXzXlXu.N o.P / I ] z V G G A B ^ I _ Q ] [ u.0XcXbXbXbXbXzXcXbXbXzXbXbXbXbXbXbXbXbXbXbXbXbX",
"bXbXbXbXbXbXbXbXbXbXbXbXbXbXbXbXbXbXbXkXaXyXP.D o./ P / / ' ` ^ ) / <.~ v O.[ g.yXzXcXcXbXbXbXzXbXbXbXbXbXbXbXbXbXbXbXbXbXbXbXbX",
"bXbXbXbXbXbXbXbXbXbXbXbXbXbXbXbXbXbXkXzXsXsXaXg.F  .5.W W E K Q W T T ' O., A.yXcXcXcXbXbXcXzXbXbXbXbXbXbXbXbXbXbXbXbXbXbXbXbXbX",
"bXbXbXbXbXbXbXbXbXbXbXbXbXbXbXbXxXbXbXlXzXsXsXaX(.< A 4.5./ ` ' 5.;.' M F T.aXsXlXcXbXbXcXcXzXzXbXbXbXbXbXbXbXbXbXbXbXbXbXbXbXbX",
"bXbXbXbXbXbXbXbXbXbXbXbXbXbXbXbXvXhXjXzXbXnXzXsXsX~.e.B k ) v v M M F w.Y.aXlXcXcXbXbXxXbXbXzXzXbXbXbXbXbXbXbXbXbXbXbXbXbXbXbXbX",
"bXbXbXbXbXbXbXbXbXbXbXbXbXbXbXvXjXvXbXbXbXbXjXnXzXaXuX].s.s.s.s.p.g.~.dXsXsXzXzXbXbXvXvXvXbXzXbXzXbXbXbXbXbXbXbXbXbXbXbXbXbXbXbX",
"bXbXbXbXbXbXbXbXbXbXbXbXbXbXbXbXbXzXzXbXcXbXvXvXvXzXzXzXaXaXaXaXsXsXzXzXzXzXzXbXbXbXvXvXvXbXbXbXcXbXbXbXbXbXbXbXbXbXbXbXbXbXbXbX",
"bXbXbXbXbXbXbXbXbXbXbXbXbXbXbXbXbXzXcXcXbXcXbXvXhXhXvXvXzXzXzXzXbXbXbXbXbXzXbXbXbXbXbXbXvXvXcXbXbXbXbXbXbXbXbXbXbXbXbXbXbXbXbXbX",
"bXbXbXbXbXbXbXbXbXbXbXbXbXbXbXbXzXbXbXbXbXbXvXvXvXvXvXvXbXbXbXbXvXvXbXbXcXbXzXbXvXbXvXbXbXbXbXbXbXbXbXbXbXbXbXbXbXbXbXbXbXbXbXbX",
"bXbXbXbXbXbXbXbXbXbXbXbXbXbXbXbXbXzXbXbXbXbXbXbXbXbXbXbXbXbXbXvXbXvXcXbXbXcXbXvXzXvXzXbXbXcXbXbXbXbXbXbXbXbXbXbXbXbXbXbXbXbXbXbX",
"bXbXbXbXbXbXbXbXbXbXbXbXbXbXbXbXcXbXbXbXbXbXbXbXbXcXbXbXbXvXvXvXbXbXbXcXcXbXbXbXvXzXbXbXbXbXbXbXbXbXbXbXbXbXbXbXbXbXbXbXbXbXbXbX",
"bXbXbXbXbXbXbXbXbXbXbXbXbXbXbXbXbXbXbXbXbXbXbXbXbXcXbXcXbXbXvXvXbXbXbXbXbXbXbXbXbXbXbXzXbXcXbXbXbXbXbXbXbXbXbXbXbXbXbXbXbXbXbXbX",
"bXbXbXbXbXbXbXbXbXbXbXbXbXbXbXbXbXbXbXbXbXbXbXbXbXbXcXcXcXbXvXvXzXzXzXvXbXvXbXbXbXbXbXbXbXbXbXbXbXvXbXbXbXbXbXbXbXbXbXbXbXbXbXbX",
"bXbXbXbXbXbXbXbXbXbXbXbXbXbXbXvXvXvXbXbXbXbXvXbXbXbXbXcXzXbXbXvXsXzXnXvXhXhXbXbXbXbXzXbXzXbXbXbXzXbXbXbXbXbXbXbXbXbXbXbXbXbXbXbX"
};
