/* XPM */
static char *_fa78a81f15e47b9ba90fdfcc3a5af90GzzademhzECxNXMI[] = {
/* columns rows colors chars-per-pixel */
"64 64 256 2 ",
"   c #180204",
".  c #2A0602",
"X  c #380403",
"o  c #2B141A",
"O  c #361719",
"+  c #33110E",
"@  c #3A241E",
"#  c #371C27",
"$  c #281824",
"%  c #3A2428",
"&  c #392E36",
"*  c #440200",
"=  c #4A0200",
"-  c #440B08",
";  c #5B0A06",
":  c #581517",
">  c #4E1510",
",  c #630B07",
"<  c #67161A",
"1  c #7A1619",
"2  c #67170D",
"3  c #522812",
"4  c #6E3215",
"5  c #501C29",
"6  c #701A25",
"7  c #47272C",
"8  c #562B29",
"9  c #573828",
"0  c #482B36",
"q  c #553536",
"w  c #503332",
"e  c #682628",
"r  c #683936",
"t  c #783739",
"y  c #732F30",
"u  c #594438",
"i  c #504435",
"p  c #784629",
"a  c #654839",
"s  c #69523A",
"d  c #774D37",
"f  c #683A42",
"g  c #584C45",
"h  c #58504F",
"j  c #654A47",
"k  c #775948",
"l  c #685855",
"z  c #775954",
"x  c #6B5148",
"c  c #766755",
"v  c #756B69",
"b  c #77716D",
"n  c #6A5F65",
"m  c #971A1A",
"M  c #851716",
"N  c #A51B1B",
"B  c #B11F1F",
"V  c #8C351B",
"C  c #B3241F",
"Z  c #971D23",
"A  c #891C24",
"S  c #A71E21",
"D  c #8B2428",
"F  c #962429",
"G  c #8A3A36",
"H  c #933630",
"J  c #A62428",
"K  c #B52626",
"L  c #B23633",
"P  c #C9352C",
"I  c #C93635",
"U  c #D63C36",
"Y  c #C42D2A",
"T  c #96561C",
"R  c #95482B",
"E  c #994738",
"W  c #82593A",
"Q  c #975838",
"!  c #8B4E2C",
"~  c #A4502F",
"^  c #A9642B",
"/  c #AB6936",
"(  c #B56D34",
")  c #B5733B",
"_  c #B9753A",
"`  c #B06E32",
"'  c #DC443B",
"]  c #CC4237",
"[  c #E4433C",
"{  c #C4783D",
"}  c #C46D3E",
"|  c #8F3641",
" . c #B33F40",
".. c #D13D42",
"X. c #9C5946",
"o. c #86554B",
"O. c #AF5151",
"+. c #916E53",
"@. c #A76748",
"#. c #BC7C42",
"$. c #BA7746",
"%. c #A67B5A",
"&. c #B77A58",
"*. c #AD6E53",
"=. c #977767",
"-. c #877977",
";. c #85746B",
":. c #B47369",
">. c #825F66",
",. c #D2524E",
"<. c #E84743",
"1. c #E55449",
"2. c #F7544A",
"3. c #F05753",
"4. c #C37B44",
"5. c #C57D4C",
"6. c #C87A47",
"7. c #D07256",
"8. c #F36757",
"9. c #D47069",
"0. c #F0756D",
"q. c #E65E60",
"w. c #BD8445",
"e. c #B98559",
"r. c #A9825A",
"t. c #988879",
"y. c #97816C",
"u. c #B48A66",
"i. c #AF8E70",
"p. c #9A805D",
"a. c #C48346",
"s. c #C5834B",
"d. c #CC844C",
"f. c #C48B4D",
"g. c #CB8B4D",
"h. c #CA8646",
"j. c #D28A4D",
"k. c #D4854C",
"l. c #CC8452",
"z. c #CD8C53",
"x. c #C78857",
"c. c #D38C53",
"v. c #D48D59",
"b. c #D78955",
"n. c #CD9254",
"m. c #CB955A",
"M. c #D39354",
"N. c #DA9355",
"B. c #D4935B",
"V. c #DB945B",
"C. c #D59B5C",
"Z. c #DB9B5D",
"A. c #D79B55",
"S. c #CF924D",
"D. c #E29B5C",
"F. c #E2965A",
"G. c #E28F58",
"H. c #DCA25D",
"J. c #D5A15C",
"K. c #CEA35F",
"L. c #E4A55D",
"P. c #CA8965",
"I. c #C99668",
"U. c #D49563",
"Y. c #D59B62",
"T. c #DC9C63",
"R. c #DB9866",
"E. c #C79976",
"W. c #D7926D",
"Q. c #E39C64",
"!. c #E39D69",
"~. c #E79A66",
"^. c #F7877A",
"/. c #E78B75",
"(. c #DCA363",
"). c #DDA36A",
"_. c #DDAC6A",
"`. c #D6A765",
"'. c #DBA875",
"]. c #D3AB73",
"[. c #E2A365",
"{. c #E3A46B",
"}. c #EBA46C",
"|. c #E4AB6C",
" X c #EBAB6C",
".X c #E8A765",
"XX c #F2A86B",
"oX c #ECB46D",
"OX c #E6B36C",
"+X c #F5B36E",
"@X c #E5AB72",
"#X c #ECAC73",
"$X c #E6A977",
"%X c #F2AC73",
"&X c #F3AE7A",
"*X c #F6A974",
"=X c #E4B473",
"-X c #ECB373",
";X c #EBBA76",
":X c #EBB47B",
">X c #ECBB7B",
",X c #E4B777",
"<X c #F2B374",
"1X c #F4B47B",
"2X c #FCB57C",
"3X c #F3BA7B",
"4X c #FBBB7D",
"5X c #F7B875",
"6X c #EAC27D",
"7X c #F4C17E",
"8X c #F9C47B",
"9X c #FFD07E",
"0X c #BF8B3F",
"qX c #7A7D82",
"wX c #E77D81",
"eX c #918C88",
"rX c #AC968C",
"tX c #B2A89C",
"yX c #E98A84",
"uX c #F7958C",
"iX c #DBB788",
"pX c #D3AC8A",
"aX c #E9B786",
"sX c #F4BC83",
"dX c #FCBD83",
"fX c #F8B887",
"gX c #EFB395",
"hX c #C9ADA4",
"jX c #FEACA5",
"kX c #F9BAAB",
"lX c #CF9B82",
"zX c #EBC685",
"xX c #F4C383",
"cX c #FCC384",
"vX c #FCC985",
"bX c #FEC48B",
"nX c #FECC8B",
"mX c #F4C889",
"MX c #FCD28C",
"NX c #EAC599",
"BX c #FECC93",
"VX c #F9C996",
"CX c #FFD493",
"ZX c #FFD995",
"AX c #FFD49B",
"SX c #FFDB9B",
"DX c #F4D292",
"FX c #FFE39C",
"GX c #FEDAA5",
"HX c #FFC5BA",
"JX c #F4D0A8",
"KX c #FFE2A3",
"LX c #FFEAA9",
"PX c #FFEFB5",
"IX c #D9C8A6",
"UX c #FFCCC4",
/* pixels */
"d._ b.v._ 4.k.c.%XdX[.N.M.a.A.FX9XA.0X8XMX9XFXFXZX6Xm.6.c.2X5XF.L.XX X).Y.(. X<X.X5X;X,XzXLXMX8X8X|.xXnXSXKXBXw.e.w.m.s.x.Y.l.R.",
"B.l.~.~.v.d.4.6.c.<XN._ a.B.[.H.oXOXOXOX6XzXmX`.OX_.{.|.+X5X+X.XF.j.v.Y.Y.#XcXMXA.oX|.=X_.;XOX8X3X-X|.;X,X=XsXm.T w.{.m.v.v.) v.",
"v.5.s.4.d.6.#.d.XX%Xh.` c.A. XS.J.3XxXK.`.SXSX].`.|.|.|..XoX8XZXS.k.}.4X}.Z.V.s.<X<XM.A.H.H.|.OXnXZX|.7X|.Y.`.C.,X>X{.z.fXfXl.U.",
"v.5.4./ ( l.d.d.[.dX X( _ M.nX-Xw.sXAXgXVXGXGXsX_.3X1X X.XoX8X8XL.N.XX2XN.c.{.@XcXcXh.S.A.H.oX|.CXvX_ n.m.|.:XAXPXBXm.$.&X*X$.4.",
"V.v.V.$.( D.V.) <X4X Xf.M.(.CXcXH.MXxXmXVXaXsXAX(.[.Z.Q..X:X3X>XdXd.6.k.{ N.3X1X@X-XN.A.L.S.oX3X3XZ.` f.|.nXY.1XBXGXdXU.U.G.5.7.",
"2X}.{.g.5.4XBX#XcXg.` _ H.T.H.A.;XOXm.xXGX$XR.~.g.( _ B..X1X4X4Xz.{ h.F.F.N.Y.f.Y.|..X.XL.g.|.cXdXM._ ) B.dXl.B.T.VXdX5.4.R.!.v.",
"dX~.d.^ ` Z.cXAX4X[.H.w.n.-XZ.(.CXJ.w.`.:XT.G.6.{ ^ 6.%X%XQ.V.6.V T z..XN.n.`.'.'.:XOXJ.L.h.A.A.( ^ ( _ z. XR.Y.v.B.5.^ ( U.}.v.",
"dXB.) ~ ^ / w.-X-XC.[.f._ n.` A.>X`._.|.M.V.~.6.6.( V.XXB.j.k.} _ ` ) s.`.aXgXaXiXmX=X` _ _ _ ^ ^ _ h.( a.Z.bXBXB.d.$.5.b.b.W.*X",
"dXv.^ $.B.z.n.Y.|.xX-XM.|.cXA.(.mXGXGX3XQ.c.4._ U.x.U.`.$.^ 6.k.[.v.R.I.&.pXgXu.%.lXiXpXe./ _ k.6.~.N.^ T T l.@X1X&X5.v.4.v.V.R.",
"bXdXV.T.|.).|._.`.3XvXcXcX4X(.|.AXAXBXdXN.d.7.5.P.%.@.%.*.$.5.5.&XaXI.+.o.=.z 9 3 3 d k W $.s.6.G.N.~.%X~.` ^ s.{.}.%XVX5.$.b.fX",
"dXVX&XY.C.(.=X_.>XnXnXZX8X|.(.|.mXaX,X|.s.U.P.&.+.o.9 9 d +.&.:.lXyX=.a eXrXa @ 9 . + - 4 *.5.7.k.k.2XGXBXs.^ s.v.z.1XVX^ ~ 6.fX",
"}.dX#X#XsX>X>X`.vXFXvXnX3X[. X|.:XmXCXnX>XGXE.+.o.z 9 @ 8 a r d rXhXrXl n l 7 z j 7 3 X > X.P.v.6.h.~.dXbXXXv.v.f.5.#XVX5./ ) $X",
"!.R.B.%XCXCXmX>X`.ZX;XmXnX-X XoXJ.oXvX6XzXNXy.+.hXrX-.f q q q q >.=.>.0 $ $ o l z t.=.d p Q 5.l.b.6.V.c.Q.}.[.[.#.$.z.1X}.z.$.fX",
"&XB.$.T.nXxXsX>Xm.6X`.7XvX(.H.5XoX.X=X=XpXi.;.tX-.v q # % 7 % 7 0 # # $ $ # o O x pXkXiXP./ $.l.b.{ c.j.c.B.T.fXT.m.v.:X&XU.5.fX",
"#X!.z.@XnXmX6XOX,XmX_.;X3X(.C..X+X*X,XNXIX+.b eXq j a a o.x % # & & & & 0 0 O O + W I.@XR.#.g.}.D.6.F.c.V.{.{.#XnXbXfXbXsXU.x.v.",
"R.Q.B.{.mXmXmXzXZXFX>X7XcXvX3XZ.Z.}.'.zXIXb t.n h =.i.E.pX=.@ o $ $ $ # n >.f O + 3 ! w.w._ s.<X~.}.dXN.d.}.%X@X1XfX:X{.U.).&Xf.",
"6.!.dXsX$XDXLXzXiXZXmX:XbXcXOXL.A.Z.f.pXi.c v v k iXI.*.+.u # # $ & 0 5 0 j eX+.3 3 4 ~ / 5.!.dXc.XX2XG.k.G.XXF.%XT.dXsX).z.:X1X",
"l.v.!.}.mXKXPXLXK.I.'.AXcX.XL.oX5XC.x.,Xy.c v i u i.W.&.p + # q # 7 0 # + - =.i.p ! ) $.$.l.}.2Xh.k.k.k.G.G.G.~.}.Z.dX(.#X%XR.V.",
"U.l.$.n.3X7XMXLXAX`.'.SXxXC.`.6X=XoX3XAXi.c ;.v 9 d *.9.d + e f 8 8 0 7 O X +.lXiXDXVX$Xl.l.!.{.F.j.k.G.*XF.b.}.XXB.Q.g.#X~.6.k.",
"|.m.w.n.T.z.`.MXzX].,XVXbX_.J._.`.CXCXFXzXp.c t.>.r G 9.X.W o.| y < 6 6 5 : d W iXLXGXfXU.l.Q.#X2XXX}.~.*XD.k.k.B.d.4.R.dXl.l.~.",
" X[.Z.Q.N.k.M.:X,XJXVXaXfXdX:XcXaXGXAXKXPXIXt.b =.o.G  .:.0.0.,.~ J Z F D < 2 - e.aXGXAX&Xv.R.dX5X<X Xv.h.k.d.` 4.4.v.1XbXl.~.*X",
"}..XN.k.6.k.~.sXgXPXaXP.yX/.x.e.E.'.].,XiXIXtX;.z o.| O.uXjXuX8.<.U K J m 1 ; * Q '.VXGXBXB.U.{.H.N.A.{ ` _ c.{ g.s.[.M.B.v.!.XX",
"F.}.k.( ( l.W.aXVXE.*.E Q E V y E V V E p +.p.tXo.o.G 9.jXjX0.} ' P K N M 1 ; * p e.'.bXBXC.s.g.N.{ h.c.k.k.Q. XT.g.z.#.s.z.&XfX",
"j.<XV._ 4.5.7.$X&.t G O.*.:.9.&.:.:.7.e./ 3   s z X.G 9.jXuX1.,.' ] C J Z V ; * p e.I.:XbXT.f.w.V.` {  XdXD.[.bX XB.a.T.:Xf.#XfX",
"=XvX#Xz.s.x.*.! R O./.uXUXUXHXHXHXHXHXjX:.: . r :.| A 9.jXuXq.q.' ] L J Z A : - p GX'.w.).C.Z.3XS.` ` a.nXbXn.M.dXT.@XbXbXY.Q.T.",
"SXLXbX|.).R.5.V H O.wXyXuXjXjXjXjXjXjXuX:.e X r O.| 1  .wX9.,.,.~ H F D 6 6 : X d NXgX@X3X|.cXnXM._ _ _ [.<XT.M.T.dXdXcXfXM.Y.Y.",
"DXGX:XT.).$Xx.! H ,.0.q.,.9.q.7.q.q.q.,.O.: * 5 y < = e | t t t G t r e q 0 # o . p.iXAXnX>X4X7XH.A.=XH.n.;XcXB.$.dXQ.Q.R.s.M.x.",
"DXnXY.$.s.x.x.R H ,.q.,.L ] ] ] I ......L 6 X > 6 ; X 8 r : 8 8 8 8 5 0 5 # o +   s pXDXxX-X|._.H._.ZXxXC.;XnXH.n. XV.%X<XQ.z.4.",
"nXbXQ.4./ $.x.~ V C ~ I K L K K J K K L H < . - e = X e d e 6 e < : : : : o o . 9 +.].,X>X X|.[.7XMXFXZXOX6XCX;XY.M.V.bXGX2X^ ) ",
"[.Q.}.b.( 6.W.7.V 2 M Z m N m m M m m 1 e >   + - * . r O.O.H F D A 6 < < : - X d u.m._.dX-X{.B.3XMXvXnXxXMXSXnXf.) c.%XBX#XT B.",
"4.j.2XF.6.G.b.P.! 2 2 , , 2 ; , , ; , ; X     O y e : X.uX0.q.,. .L J Z A 1 ; * y e.m.#X8X}.T.#.n.(.w.`.;XnXCXsXZ.d.x.T.dXsXU.mX",
"h.Z.CXXX} 7.7.7.*.! 3 3 > 2 > 3 > 2 2 3 3 + + u :.O.E yXkX^.<.<...I J S A 1 ; * ! I.].3X1XD.[.g.N.A.` n.|.cXxX(.cX|.[.R.dXbXbXsX",
"A. XL.h.k.G.7.} 7.v.Q 4 3 3 3 3 3 4 3 p ! W +.u.E.X.E yXkXuX8.<.<.Y S Z Z 1 , * p lXpX'.aXfX.X{ { ~.( ^ N.8Xf.sX3XnXCXA.B.fXaXfX",
"H.oX(.[.F.F.G.6.~.R.v.&.w.%.r.u.iX'.].aXVXVXxX'.E.@.X.yXHX^.8.2.[ I B Z Z 6 ; * p lXE.%.W.!.v.d.G.}.} } { XXZ.@X).{.<Xh.s.{.W.fX",
"[.cXOXcXL.F.6.k.6.5.U.:XVXiX'.aXGXaXaXaX>XsX#XP.].@.X.yXkX0.1.<.U Y K Z D 1 ; * d z x y.rX%.+.9.$XV._ ( ( }.4XY. X(.Z._ _ x.x.aX",
"bXnXC.nX<X5X{ ( ( d.Y.@XAXBXgXmX).#XbXsXB.B.m.T.'.@.E yXHX9.1.<.[ Y K J F 6 : - a l c qXrXtXrX+.W.P.^ ` h.4XcXz.|. X{.j.d.l.x.).",
"CXxXw.cXvXSXz.` c.4X3X).AXGXnXmX X4XbX.Xh.{ M.dXVX*.E yXUX0.q.2.[ I K Z A 6 : > q l l l qXtXtXl =.P.7.$.:X&XQ.z.[.4XXXN.c.z.(.R.",
"@X{.) _.3XnXH.a.M.vXcXJ.xXZX>XY.4X<XF.{ } { k.2XfX*.E yXUXwXq.2.[ I K S A 1 : O w j w & h qXeXqXs u.aX'.dXXXl.~.cXvXS.{ k.Q.@Xm.",
"Z.(.) n..X5XOXf.f.OX;X`.7XmX'.f.D.j.h.b.D.N.b.~.U.X.E yXHX0.3.<.<.I B S A 1 ; - 8 +.+.i $ h qXb k d iX$XfX#XR.!.bX2Xk.` j.5X<XY.",
"B.8X-XJ.H.H.+XL.H.H.,X;XzXMXmX=Xg.h.j.2XdX*X2X}.x.~ ~ yXHX0.3.2.[ I B S Z 1 , = +.i.pXtXh $ l b t.9 u.I.$XfX}.V.l.F.XXF.XXcX3XfX",
"f.CXnX[.[.M.M.8X5XvX6XOX6XvXLX,XB.M.~.}.~.l.V.~.x.Q E yXHXyX3.<.<.I B S Z M ; = :.&.E.VXi.9 w v rXs %.u.$X~.R.}.~.h.F.+XXX.X<X-X",
"-XKXnXC.A.H.oX8X.X8XoXH._.OX;X`.B.v.5.6.4.6.R.!.P.Q E yXHXyXq.2...Y B N m M , = &.&.R.GXgXa & l t.t.+.E.fXfXB.~.G.N.F.F.N.A.C.H.",
"aXLXKX-XC._.oX|.oXoX.XA.S.A.OX;Xl.l.5.5.5.~.fX*Xx.! E yXkX0.q.<.U Y B N Z M , = *.x.R.GXVXo.0 q b hX=.iX$X$X5.k.b.Q.V.c.A.[.|.-X",
"@XSXBX=XZ.|.8X5X8XA.H.L.0XS.oX5Xl.7.7.l.b./.*X~.e.4 R yXHX/.1.1.[ Y B N Z 1 , = *.U.R.<XaX=.g h qXhX+.gXP.~.B.l.5.B.V.c.V.{.#X3X",
"'.sX@X(.|.|.=XoXOXf.f.A._ h.V.b.b.5.7.V.V.b.b.5.&.4 R yXVX/.8.2.[ I C B m M ; - 9.@XD.N.m.%.q h rXt.s ].U.fX*Xl.) #.d.g.z.B.R._.",
"Y.{.B.[. X`.OX;X;XC.0Xa.( d.V.~.R.v.G.~.~.~.b.~.@X! ~ ^.jX^.8.2.[ U Y K Z M ; * &.R.S.j.x.%.g v b i i r.$X1XQ.` ) 5.l.z.A.[.@XaX",
"d.g.d.[.L.L.MXZXZXvXn.z.) b.&X&XXX}.Q.D.N.k.k.%XbXT ~ 7.uX0.2.2.U U Y B Z M ; = @.U.N.N.B.i.j b h l k I.$X!.R._ v.#XT.f.).#X#XfX",
"c.k.N.2X XOXMX,XKXFX3XfXl.!.fXR.l.D.XX+XXXN.k.}.XXV L 7.^.0.2.[ U P C B Z 1 ; * *.{.XXF.U.E.x n t.tXi.NX:X{.4X#XR.BXR.) B.{.Y.:X",
"k.{ cXnX.X|.`.,XxXMX>X_.[.b.d.5.c.T.8X+XL.L.N.D.v.V ~ q.0.8.2.2.U Y N m Z A < = *.T.}.R.].p.h h eXIXi.LXMX;XvXAX(.&Xb.v.!.~.!.dX",
"V.V.cXCXcX=Xn.m.FXLXMX6X-XD.b.k.*X+X5XN.S.N.k.l.!.V ~ q.^.0.2.2.[ Y B Z Z M , = / 5.!.sX'.p.h qXtXtXpXNXm.K.0XN.#X:XR.~.5.( _ Q.",
"cX1X3XxXvX@XC.`.FXLXZX7X4X*XXX~.D..X+XL.F.L.N.N.*XV L 0.0.0.2.U ..I K S A M , = @.&.$XGXgXc i b eX+.IXzXw.oXg.Z.dXsX~.!.b.) _ @X",
"CXcX=X,X>X_.7XnX6X6XOXC.F.F.N.6.{ N.+X+XL..XL.Q.*XR ~ 9.0.,.1.<...K J Z A 6 < = E X.e.E.p.s h b p.+.DXzXA.8X4X1XB.!.x.~.dX%XQ.bX",
"7XzX6X6X_.`.nXZX`.K.m.f.V.~.c.( h.F.+XXXA.M.C.$XgXX.4 O.:.,.,.O.| | 6 | 6 e 5 - 8 x k 9 i i b t.s u.'.@XA.Q.nX#Xx.[.B.c.%X2X%X1X",
"6XzX6X6X`.`.nX3X6XOX`.M.V.XXD.{ k.F.+X+XH._.].gXgX*.- > y t y e t y 5 5 7 5 # o # j j q h c b s k ,X(.Q.F.d.4X|.T.).{.M.g.{.1X1X",
"zXMXDX6X_.6X9XOX_.`.`.f.h.~.~.c.j.G.D. X8XnXDXNXIXtX3 + w r 8 5 5 # # o o +     0 l l l ;.c h i K.DX-X[.<XD.T.@Xm.f.oX#X.X1XbX1X",
"6XZXMX6XDXFXMX_.7X6XxX|.Z.5XcX2X.Xc.h.Z.cXSXDXiXJXJX=.s k k s k x j j f x x a i u c c c c s c ].DXMX3X.XvXCXT.sXaXY.|.<X3X1X1X@X",
"6X=XDX;XSX-XZ.sXxXmXxX;X|.dXSXBXR.b.4.s.T.AXGXCXLXGXiXi.pXiXNXE.%.&.u.r.].iXi.+.+.W p d +.u.6X`.=XOX+X5X<X<XbXAXKXsX|.;XnX.X1X{.",
"7XzXFXZXSX-X[.oX_.xXmX;XOX>XnXcXl.5.6.l.{.bXAXCXAXzX'.`.].zX6X=XI.U.I.K.zXDXw./ x.$./ $.S.6X6XOX`.H.J.A.[.sXbX,XzX=X(.(.H.S.{.$X",
";XxXZXnX|.#.g.n.K.xXmX;XxXvX=X#Xl.v.!.n.T.:XAXBX).).@X:X6X,X>XcXk.k.M.-XFXvXn.w.~.l.5.v.H.L.L.9X9XzX8XoXH.-XsX=XsX=X(.|.{.[.{.Y.",
"_.f.`.-X{.A.[.T.CXFXMX;XnXMXm.f.s.!.@X) Y.sXSXbXY.T.-X3X3X,X#X-X}.N.B.=XxXH.f.|.~.6.) #..XoXoXFXMX6X;X5X X[.#XxXmXbX`.(.[.-XT.T.",
"C.` w.|.3XdXXX-XKXFXzX_.cXnX|.).3XbX3Xf.:XcXcX|.sX$XR.R.@XaX:X).3X.X_.mXZX'.`.bX:XR.5.$.&XAX1X=XKX).n..X+X.XB.m.AXKX:XA.C.{.(.nX",
"[.a.f.`.[.1XZ.1XnXMX,XOX=X XcXMXH.(.[.Z.3X_.T.|.dX}.z.5.B.:XBXBX`.C.).BXSX,X).@X:XB.x.R.bXVX:X#XBXU.a.V.XX~.M.$.bXBX1X[.4XcX@XbX",
"3X<Xn.g.[.4XZ.4XCXMX=XcX(.f.<X3X[.H.-XvX;XH.C..Xj.S.g.d.a.n.;XFX7XOXJ.{.[.V.[..XoXC.).xX#Xx.4.5.$.$.l.N.G.F.~.R.#XR.Q.[.bXbX{.R.",
"2XGX-XA.V.T.a.(.ZX,XK.xXT.g.cX<XvX5X8XnX;X3X-XC.N.D.+X2X XH.OX9XZXMX|.B.d.v.cXnXoXvXSXGXsX!.}.d.W.W.&X2XXX~.XX}.sXY.@X[.%X<X:XsX"
};
