/* XPM */
static char *hamster1680267369[] = {
/* columns rows colors chars-per-pixel */
"64 64 233 2 ",
"   c #0C0000",
".  c #140000",
"X  c #1C0000",
"o  c #1E160F",
"O  c #270500",
"+  c #2C251D",
"@  c #292023",
"#  c #3D3C3A",
"$  c #481F08",
"%  c #5B1600",
"&  c #661901",
"*  c #7B1C02",
"=  c #711F00",
"-  c #553013",
";  c #4C2A0D",
":  c #612304",
">  c #6B2A04",
",  c #6D310F",
"<  c #7D3402",
"1  c #612E1B",
"2  c #763730",
"3  c #5A4333",
"4  c #7E5E47",
"5  c #7F644F",
"6  c #555354",
"7  c #862804",
"8  c #942801",
"9  c #8A3504",
"0  c #913100",
"q  c #9C3500",
"w  c #973C04",
"e  c #812412",
"r  c #913819",
"t  c #A43D00",
"y  c #A03400",
"u  c #B33E01",
"i  c #A73F1A",
"p  c #83372A",
"a  c #9C4306",
"s  c #9C5218",
"d  c #A44300",
"f  c #AB4502",
"g  c #AB4B00",
"h  c #A54C04",
"j  c #B34C00",
"k  c #BD4C03",
"l  c #B34C0C",
"z  c #B94307",
"x  c #AF5100",
"c  c #B65300",
"v  c #BB5404",
"b  c #BC5B02",
"n  c #BA5C09",
"m  c #B55609",
"M  c #A54E15",
"N  c #BB481F",
"B  c #A9551B",
"V  c #A85A18",
"C  c #B55C14",
"Z  c #BC5C15",
"A  c #B4581A",
"S  c #B95719",
"D  c #AD630E",
"F  c #BE6102",
"G  c #BE630C",
"H  c #B66208",
"J  c #BC6913",
"K  c #BC631B",
"L  c #B96318",
"P  c #804229",
"I  c #964927",
"U  c #8D552C",
"Y  c #9A5927",
"T  c #AF4D2A",
"R  c #B34520",
"E  c #A25D24",
"W  c #A85826",
"Q  c #BA5B29",
"!  c #A5593A",
"~  c #97683C",
"^  c #BD6C25",
"/  c #BD6B2C",
"(  c #B66628",
")  c #A66937",
"_  c #B86A38",
"`  c #AD7037",
"'  c #B67035",
"]  c #BA763C",
"[  c #BB743A",
"{  c #A1632A",
"}  c #C35D01",
"|  c #CC5C02",
" . c #C45D0B",
".. c #CA5709",
"X. c #D75D04",
"o. c #D05700",
"O. c #C95D15",
"+. c #C55B18",
"@. c #D05918",
"#. c #C5481A",
"$. c #C36201",
"%. c #CB6204",
"&. c #CC6A04",
"*. c #C4630C",
"=. c #CB620E",
"-. c #CD6E0A",
";. c #C46905",
":. c #D26C02",
">. c #D76609",
",. c #CA740D",
"<. c #C7740A",
"1. c #D6730B",
"2. c #C46610",
"3. c #C46C12",
"4. c #CC6A16",
"5. c #CA6A1D",
"6. c #C6661A",
"7. c #D56B16",
"8. c #CD781B",
"9. c #CB7718",
"0. c #D57717",
"q. c #CA5E20",
"w. c #CB6621",
"e. c #C06723",
"r. c #D36C22",
"t. c #D67A24",
"y. c #C66530",
"u. c #C97C3A",
"i. c #D07E35",
"p. c #945744",
"a. c #9B7147",
"s. c #BA7848",
"d. c #A46B55",
"f. c #BA7D55",
"g. c #AE6848",
"h. c #AD7463",
"j. c #C5794E",
"k. c #C8796A",
"l. c #BA824F",
"z. c #BB8658",
"x. c #B58868",
"c. c #B79769",
"v. c #B78877",
"b. c #B6977A",
"n. c #AD8A6C",
"m. c #BEA37B",
"M. c #BBA073",
"N. c #D68248",
"B. c #DA8A59",
"V. c #D79552",
"C. c #D79058",
"Z. c #CA8A54",
"A. c #C78961",
"S. c #C59969",
"D. c #D49562",
"F. c #DE9364",
"G. c #D09963",
"H. c #C68B79",
"J. c #CB8E79",
"K. c #C29D71",
"L. c #CB9976",
"P. c #D49A77",
"I. c #D68B64",
"U. c #E59C68",
"Y. c #E28E74",
"T. c #D4A26F",
"R. c #C9A576",
"E. c #D2A778",
"W. c #E8AC71",
"Q. c #EDB375",
"!. c #F0AB72",
"~. c #857F83",
"^. c #B29C84",
"/. c #A7ABAE",
"(. c #D89989",
"). c #CB9A96",
"_. c #C6AF8B",
"`. c #C9A982",
"'. c #D7A984",
"]. c #D4AC96",
"[. c #EAB591",
"{. c #EBB489",
"}. c #D5AFA2",
"|. c #DFBFAA",
" X c #C7BAA9",
".X c #E3AEA7",
"XX c #E8B7A8",
"oX c #FBC297",
"OX c #D7C7B7",
"+X c #FFCEBB",
"@X c #F4C7B5",
"#X c #FFD2BD",
"$X c #F1D3B9",
"%X c #FFE5B6",
"&X c #DEDED4",
"*X c #C9CDD6",
"=X c #EAD6C6",
"-X c #FDD5C4",
";X c #FDDCC9",
":X c #FED8D1",
">X c #EEE1CE",
",X c #FFE7C8",
"<X c #FFF2CB",
"1X c #ECE7D4",
"2X c #EAE1DA",
"3X c #FFE3D3",
"4X c #FEEBD5",
"5X c #FEECDB",
"6X c #FAE5D9",
"7X c #FFF4D4",
"8X c #FFF4DD",
"9X c #FFFBDE",
"0X c #FFEEE3",
"qX c #FFEFE9",
"wX c #F7EAE2",
"eX c #FFF5E4",
"rX c #FFF9E4",
"tX c #F5F5ED",
"yX c #FEF5EB",
"uX c #FFFBED",
"iX c #F7F3E7",
"pX c #FFEFFF",
"aX c #EEFEFF",
"sX c #ECFBF7",
"dX c #F3F5F3",
"fX c #FEF4F3",
"gX c #F3FBF4",
"hX c #FEFDF4",
"jX c #FEF6FC",
"kX c #F5FEFE",
"lX c #FEFFFE",
"zX c #F4F7FF",
"xX c #EEE9E6",
/* pixels */
"lXlXlXlXlXlXlXlXlXlXlXlXlXlXlXlXlXlXlXlXlXlXlXlXlXlXlXlXlXlXlXlXlXlXlXlXlXlXlXlXlXlXlXlXlXlXlXlXlXlXlXlXlXlXlXlXlXlXlXlXlXlXlXlX",
"lXlXlXlXlXlXlXlXlXlXlXlXlXlXlXlXlXlXlXlXlXlXlXlXlXlXlXlXlXlXlXlXlXlXlXlXlXlXlXlXlXlXlXlXlXlXlXlXlXlXlXlXlXlXlXlXlXlXlXlXlXlXlXlX",
"lXlXlXlXlXlXlXlXlXlXlXlXlXlXlXlXlXlXlXlXlXlXlXlXlXlXlXlXlXlXlXlXlXlXlXlXlXlXlXlXlXlXlXlXlXlXlXlXlXlXlXlXlXlXlXlXlXlXlXlXlXlXlXlX",
"lXlXlXlXlXlXlXlXlXlXlXlXlXlXlXlXlXlXlXlXlXlXlXlXlXlXlXlXlXlXlXlXlXlXlXlXlXlXlXlXlXlXlXlXlXlXlXlXlXlXlXlXlXlXlXlXlXlXlXlXlXlXlXlX",
"lXlXlXlXlXlXlXlXlXlXlXlXlXlXlXlXlXlXlXlXlXlXlXlXlXlXlXlXlXlXlXlXlXlXlXlXlXlXlXlXlXlXlXlXlXlXlXlXlXlXlXlXlXlXlXlXlXlXlXlXlXlXlXlX",
"lXlXlXlXlXlXlXlXlXlXlXlXlXlXlXlXlXlXlXlXlXlXlXlXlXlXlXlXlXlXlXlXlXlXlXlXlXlXlXlXlXlXlXlXlXlXlXlXlXlXlXlXlXlXlXlXlXlXlXlXlXlXlXlX",
"lXlXlXlXlXlXlXlXlXlXlXlXlXlXlXlXlXlXlXlXlXlXlXlXlXlXlXlXlXlXlXlXlXlXlXlXlXlXlXlXlXlXlXlXlXlXlXlXlXlXlXlXlXlXlXlXlXlXlXlXlXlXlXlX",
"lXlXlXlXlXlXlXlXlXlXlXlXlXlXlXlXlXlXlXlXlXlXlXlXlXlXlXlXlXlXlXlXlXlXlXlXlXlXlXlXlXlXlXlXlXlXlXlXlXlXlXlXlXlXlXlXlXlXlXlXlXlXlXlX",
"lXlXlXlXlXlXlXlXlXlXlXlXlXlXlXlXlXlXlXlXlXlXlXlXlXlXlXlXlXlXlXlXlXlXlXlXlXlXlXlXlXlXlXlXlXlXlXlXlXlXlXlXlXlXlXlXlXlXlXlXlXlXlXlX",
"lXlXlXlXlXlXlXlXlXlXlXlXlXlXlXlXlXlXlXlXlXlXlXlXlXlXlXlXlXlXlXlXlXlXlXlXlXlXlXlXlXlXlXlXlXlXlXlXlXlXlXlXlXlXlXlXlXlXlXlXlXlXlXlX",
"lXlXlXlXlXlXlXlXlXlXlXlXlXlXlXlXlXlXlXlXlXlXlXlXlXlXlXlXlXlXlXlXlXlXlXlXlXlXlXlXlXlXlXlXlXlXlXlXlXlXlXlXlXlXlXlXlXlXlXlXlXlXlXlX",
"lXlXlXlXlXlXlXlXlXlXlXlXlXlXlXlXlXlXlXlXlXlXlXlXlXlXlXlXlXlXlXlXlXlXlXlXlXlXlXlXlXlXlXlXlXlXlXlXlXlXlXlXlXlXlXlXlXlXlXlXlXlXlXlX",
"lXlXlXlXlXlXlXlXlXlXlXlXlXlXlXlXlXlXlXlXlXlXlXlXlXlXlXlXlXlXlXlXlXlXlXlXlXlXlXlXlXlXlXlXlXlXlXlXlXlXlXlXlXlXlXlXlXlXlXlXlXlXlXlX",
"lXlXlXlXlXlXlXlXlXlXlXlXlXlXlXlXlXlXlXlXlXlXlXlXlXlXlXlXlXlXlXlXlXlXlXlXlXlXlXlXlXlXlXlXlXlXlXlXlXlXlXlXlXlXlXlXlXlXlXlXlXlXlXlX",
"lXlXlXlXlXlXlXlXlXlXlXlXlXlXlXlXlXlXlXlXlXlXlXlXlXlXlXlXlXlXlXlXlXlXlXlXlXlXlXlXlXlXlXlXlXlXlXlXlXlXlXlXlXlXlXlXlXlXlXlXlXlXlXlX",
"lXlXlXlXlXlXlXlXlXlXlXlXlXlXlXlXlXlXlXlXkXlXlXlXlXlXlXlXlXlXlXlXlXlXlXlXlXlXlXlXlXlXlXlXlXlXlXlXlXlXlXlXlXlXlXlXlXlXlXlXlXlXlXlX",
"lXlXlXlXlXkXlXkXlXlXlXlXlXjXhXlXkXlXlXkXkXkXgXlXlXhXlXjXlXlXlXlXlXlXlXhXhXhXlXlXlXlXlXhXhXlXlXkXlXlXhXlXhXlXlXlXlXkXlXlXlXlXlXlX",
"lXlXlXkXlXkXlXlXlXlXlXlXlXlXlXlXlXlXlXlXkXlXlXgXlXhXlXlXlXlXlXlXlXlXlXhXhXlXlXlXlXlXlXlXlXlXlXlXlXlXlXhXhXlXlXlXlXkXkXlXlXlXlXlX",
"lXlXlXlXkXlXkXlXlXlXlXjXkXlXlXhXlXlXhXhXlXlXlXhXlXlXlXkXlXlXkXkXlXlXlXkXkXkXkXlXlXkXlXlXhXhXhXlXlXlXlXlXhXlXlXlXlXlXkXlXlXlXlXlX",
"lXlXlXlXlXlXlXlXlXlXlXlXlXlXlXlXlXhXlXlXlXjXlXlXlXlXkXkXkXkXgXlXlXlXlXkXkXkXkXlXkXlXkXkXlXkXhXjXjXlXlXlXlXhXlXhXlXlXlXlXlXlXlXlX",
"lXkXlXlXlXlXlXlXlXlXjXlXlXlXlXlXkXkXlXlXjXjXjXlXlXlXlXlXlXhXhXhXjXlXlXkXlXkXlXhXlXlXkXkXkXkXlXlXlXlXlXlXjXlXhXlXlXlXlXlXlXlXlXlX",
"kXkXlXlXlXlXlXlXjXlXlXlXjXlXlXlXkXkXkXlXlXlXjXlXjXlXlXlXhXhXuXhXhXlXlXlXlXlXlXhXhXlXlXlXkXlXkXkXlXlXlXjXlXlXlXlXlXhXlXlXlXlXlXkX",
"kXlXlXlXlXlXlXjXhXlXlXlXlXlXlXlXlXlXlXkXkXlXlXkXlXlXlXlXlXhXlXhXhXlXlXlXlXlXhXuXhXhXlXlXlXlXlXlXlXlXlXlXlXlXlXlXhXlXlXhXlXlXkXkX",
"kXlXlXlXlXlXhXlXlXlXlXlXkXlXlXlXkXhXhXhXhXhXuXuXrXrXeXeXeXrXrXrX9X9XrXrXyXhXuXhXhXhXjXjXlXlXhXlXlXlXlXlXlXlXlXjXlXhXhXlXlXlXlXkX",
"lXlXlXlXjXlXlXlXhXlXlXkXkXlXzXkXlXkXlXyXyXrX'.E.A.F.B.B.C.U.B.C.V.V.V.W.[.7XuXhXkXkXlXjXjXhXhXgXlXkXkXkXkXkXlXkXhXhXhXlXlXlXlXkX",
"lXlXlXlXlXlXlXjXlXgXgXkXkXkXgXzXkXlXjXfX5XP.I M S w.r.r.w.6.6.6.3.3.t.K ' '.7XyXgXlXyXhX=X6XiXhXhXlXjXkXkXkXkXlXhXlXhXhXlXlXlXlX",
"lXlXlXlXjXlXlXlXlXkXkXkXgXkXlXlXkXkXhX3X[.r y.w.b *.8.0.9.9.8.8.8.;.,.t.i.] '.9XrXuXrXOX4 5 *XeXhXuXlXkXkXkXaXkXlXhXhXhXlXlXlXlX",
"lXlXlXlXlXlXjXlXkXkXkXgXhXhXhXtXkXtXhXXXp T q.@.=.$.;.,.,.,.9.-.,.1.1.0.8.^ ` {.7X,Xx.- ; -   o  XuXhXhXkXkXkXlXlXlXhXlXhXlXlXlX",
"lXlXlXlXjXlXlXlXkXkXkXhXuXhXhXuXfXjXyXH.* R u u >.} b $.F $.$.} &.:.:.:.F 0.5.^ U.D.: O . @ /.6 3 rXuXyXlXkXkXkXlXlXlXhXlXlXlXlX",
"lXjXlXlXlXlXlXlXkXlXhXhXyXuX:X:X3X;X+X! T R u ....} $.;.$.$.| | %.%.:.:.1.1.7.7.+.s U O . # *X~.$ ].yXhXlXlXlXkXkXlXhXlXhXlXlXkX",
"gXgXlXlXlXlXlXlXkXlXtXhXuXyXv.p.! _ 7 0 S +. .g f b F F } } } | k %.-.b 7.1.X.X. .A ) $   o @ . 1 d.@XiXfXlXzXlXlXlXlXhXlXlXlXkX",
"lXlXlXlXlXlXlXlXzXkXlXhX0X5Xh.! Q 5.u f t f v f x F F b $.%. . .&.$.-.-.} >.X.o...0 E $ X . . O % f.d.}.jXlXlXkXlXlXlXhXlXlXlXlX",
"kXhXlXhXlXlXlXlXlXlXlXhXyX;XP g.S @.t q l v v d j $.b F } b K L *.$.2.=.%.>.X.o.u y m < > > , : 9 _ f.#XyXlXjXlXlXkXlXhXlXlXkXkX",
"lXlXlXlXhXhXlXlXkXlXlXfXeX3Xg.! y.S w w w.O.*.f j $.G n } b L D m *.4. . .7.X...k y c 2.Q W ( ( u.) P.eXuXjXkXkXlXlXlXlXlXhXlXkX",
"kXlXlXhXhXlXlXlXkXzXzXjXhXeXx.: I * > < m  .c d j  .2. .%.&.;.b $.&.0.n v 4.5.+.l 8 =.j 6.C H D ' U `.eXqXlXlXkXkXlXlXlXhXlXlXkX",
"lXlXlXlXhXlXlXkXkXkXlXlXyXhX8X-X@X-X+XA.a 4.5.d d 6.e.Z n n <.J G h n  .=.5.A * * i t #.O.O.b J Z.v.$XfXfXlXkXkXkXlXlXhXlXlXlXlX",
"lXlXlXlXlXhXlXlXlXkXkXkXlXhXhXyXjXjXhX@XM  .l h < [ W.{.Q.Q.Q.W.Q.U.j.Z 2.6.j.Y.k.% r i R #.@.w [.=X0XlXlXkXkXkXlXlXlXhXhXhXlXlX",
"lXlXlXlXlXhXlXlXkXkXkXkXkXlXhXlXzXlXlX3XB r.C M [ G.T.R.K.M.R.T.W.oXU.A 4.Z I.5XyX).2 p e 7 8 7 -X2XxXlXkXkXkXkXkXlXlXlXlXlXlXlX",
"lXlXlXlXhXlXhXlXlXkXkXkXlXlXjXgXhXhXlX5XM k Q N.C.T.S.M.R._.R.M.c.'.j.w 3.J P.eXrXtXhX6X:X-X#X3XfXjXjXkXkXkXkXkXlXlXlXhXlXlXlXlX",
"lXlXlXlXlXhXlXlXlXkXkXkXkXkXkXlXhXuXlX;XB w./ E z.S.K.R._._._.R.c.K.s.0 h L '.yXgXaXsXgXjXhXhXlXgXlXlXkXkXlXkXlXlXlXlXhXlXlXlXlX",
"lXkXlXhXhXhXhXhXlXlXlXlXkXlXlXlXuXhXhX5XE D s.'.n.x.L.`.b.b.K.S.c.S._ 0 l y.(.fXlXlXlXkXjXkXkXkXlXlXlXlXkXlXlXlXlXlXlXlXlXlXlXlX",
"kXlXlXlXlXhXlXhXhXlXlXlXlXlXlXjXhXhXlX5XU V l.<X,X].n.^.^.b.c.c.x.z.Y 0 S B (.fXlXlXlXlXlXlXkXkXlXlXlXhXlXlXlXhXlXhXlXlXlXlXlXkX",
"kXkXlXhXhXhXhXhXhXhXlXlXlXlXlXlXlXsXkX6X{ ^ s.<X8XeXwX2X&X1X1X=X0X0XJ.= V ( P.5XjXlXjXjXlXlXlXlXlXhXhXlXlXhXlXlXlXlXlXlXlXlXlXlX",
"lXlXlXlXlXlXhXlXlXhXhXhXlXlXlXlXkXaXkX3Xs L u.%X9XrXlXkXkXkXlXlXjXjX.X& ( / Z.7XyXjXjXlXjXlXlXhXhXlXlXhXlXlXhXlXhXlXlXlXlXkXlXlX",
"lXlXlXlXlXlXlXlXlXhXlXlXlXlXlXlXkXkXhX,XE Z / D.<X9XgXaXkXlXkXlXpXpX.X% B i.' z.4XyXhXlXlXjXuXuXhXlXlXhXlXlXhXlXlXlXlXlXlXlXlXlX",
"lXlXlXlXlXkXlXlXlXlXlXhXhXlXlXlXkXlXlXeXl.E Y ~ $XyXkXkXkXlXlXjXjXjX:XH.s.Y ) a.5XuXhXlXlXlXhXuXlXlXlXlXlXlXlXlXlXlXlXkXlXlXlXlX",
"lXlXlXlXkXlXkXlXlXlXhXlXlXlXlXlXlXfXdXlX5X4X8XeXhXlXkXkXhXfXfXlXdXlXhXuX0X4X8X>XhXlXhXgXkXkXlXlXlXlXlXlXlXlXlXlXkXlXlXkXlXlXlXhX",
"jXlXlXlXlXlXkXlXkXlXlXhXlXlXkXlXhXlXlXkXlXkXgXkXkXlXkXlXhXhXhXhXlXhXtXkXkXlXtXlXlXkXkXkXkXkXlXkXlXkXlXlXlXlXlXlXlXkXlXlXlXlXlXhX",
"lXlXlXlXlXlXlXlXlXlXlXlXlXlXlXlXlXlXlXlXlXlXlXlXlXlXlXlXlXlXlXlXlXlXlXlXlXlXlXlXlXlXkXlXkXlXlXlXlXlXlXlXlXlXlXlXlXlXlXlXlXlXlXlX",
"lXlXlXlXlXlXlXlXlXlXlXlXlXlXlXlXlXlXlXlXlXlXlXlXlXlXlXlXlXlXlXlXlXlXlXlXlXlXlXlXlXlXlXlXlXlXlXlXlXlXlXlXlXlXlXlXlXlXlXlXlXlXlXlX",
"lXlXlXlXlXlXlXlXlXlXlXlXlXlXlXlXlXlXlXlXlXlXlXlXlXlXlXlXlXlXlXlXlXlXlXlXlXlXlXlXlXlXlXlXlXlXlXlXlXlXlXlXlXlXlXlXlXlXlXlXlXlXlXlX",
"lXlXlXlXlXlXlXlXlXlXlXlXlXlXlXlXlXlXlXlXlXlXlXlXlXlXlXlXlXlXlXlXlXlXlXlXlXlXlXlXlXlXlXlXlXlXlXlXlXlXlXlXlXlXlXlXlXlXlXlXlXlXlXlX",
"lXlXlXlXlXlXlXlXlXlXlXlXlXlXlXlXlXlXlXlXlXlXlXlXlXlXlXlXlXlXlXlXlXlXlXlXlXlXlXlXlXlXlXlXlXlXlXlXlXlXlXlXlXlXlXlXlXlXlXlXlXlXlXlX",
"lXlXlXlXlXlXlXlXlXlXlXlXlXlXlXlXlXlXlXlXlXlXlXlXlXlXlXlXlXlXlXlXlXlXlXlXlXlXlXlXlXlXlXlXlXlXlXlXlXlXlXlXlXlXlXlXlXlXlXlXlXlXlXlX",
"lXlXlXlXlXlXlXlXlXlXlXlXlXlXlXlXlXlXlXlXlXlXlXlXlXlXlXlXlXlXlXlXlXlXlXlXlXlXlXlXlXlXlXlXlXlXlXlXlXlXlXlXlXlXlXlXlXlXlXlXlXlXlXlX",
"lXlXlXlXlXlXlXlXlXlXlXlXlXlXlXlXlXlXlXlXlXlXlXlXlXlXlXlXlXlXlXlXlXlXlXlXlXlXlXlXlXlXlXlXlXlXlXlXlXlXlXlXlXlXlXlXlXlXlXlXlXlXlXlX",
"lXlXlXlXlXlXlXlXlXlXlXlXlXlXlXlXlXlXlXlXlXlXlXlXlXlXlXlXlXlXlXlXlXlXlXlXlXlXlXlXlXlXlXlXlXlXlXlXlXlXlXlXlXlXlXlXlXlXlXlXlXlXlXlX",
"lXlXlXlXlXlXlXlXlXlXlXlXlXlXlXlXlXlXlXlXlXlXlXlXlXlXlXlXlXlXlXlXlXlXlXlXlXlXlXlXlXlXlXlXlXlXlXlXlXlXlXlXlXlXlXlXlXlXlXlXlXlXlXlX",
"lXlXlXlXlXlXlXlXlXlXlXlXlXlXlXlXlXlXlXlXlXlXlXlXlXlXlXlXlXlXlXlXlXlXlXlXlXlXlXlXlXlXlXlXlXlXlXlXlXlXlXlXlXlXlXlXlXlXlXlXlXlXlXlX",
"lXlXlXlXlXlXlXlXlXlXlXlXlXlXlXlXlXlXlXlXlXlXlXlXlXlXlXlXlXlXlXlXlXlXlXlXlXlXlXlXlXlXlXlXlXlXlXlXlXlXlXlXlXlXlXlXlXlXlXlXlXlXlXlX",
"lXlXlXlXlXlXlXlXlXlXlXlXlXlXlXlXlXlXlXlXlXlXlXlXlXlXlXlXlXlXlXlXlXlXlXlXlXlXlXlXlXlXlXlXlXlXlXlXlXlXlXlXlXlXlXlXlXlXlXlXlXlXlXlX",
"lXlXlXlXlXlXlXlXlXlXlXlXlXlXlXlXlXlXlXlXlXlXlXlXlXlXlXlXlXlXlXlXlXlXlXlXlXlXlXlXlXlXlXlXlXlXlXlXlXlXlXlXlXlXlXlXlXlXlXlXlXlXlXlX",
"lXlXlXlXlXlXlXlXlXlXlXlXlXlXlXlXlXlXlXlXlXlXlXlXlXlXlXlXlXlXlXlXlXlXlXlXlXlXlXlXlXlXlXlXlXlXlXlXlXlXlXlXlXlXlXlXlXlXlXlXlXlXlXlX",
"lXlXlXlXlXlXlXlXlXlXlXlXlXlXlXlXlXlXlXlXlXlXlXlXlXlXlXlXlXlXlXlXlXlXlXlXlXlXlXlXlXlXlXlXlXlXlXlXlXlXlXlXlXlXlXlXlXlXlXlXlXlXlXlX"
};
