/* XPM */
static char *_762a394fa8a4e64ba19356dcfc2538fBWzx5AS8DXSJhTxt[] = {
/* columns rows colors chars-per-pixel */
"64 64 256 2 ",
"   c #190201",
".  c #0B020B",
"X  c #280702",
"o  c #330D04",
"O  c #1D1327",
"+  c #451706",
"@  c #681C00",
"#  c #53280D",
"$  c #6A2802",
"%  c #772B06",
"&  c #6B3509",
"*  c #7A3709",
"=  c #693816",
"-  c #783816",
";  c #702E12",
":  c #6C3B26",
">  c #433127",
",  c #77461B",
"<  c #704212",
"1  c #7A4625",
"2  c #7A4D31",
"3  c #5D493E",
"4  c #655555",
"5  c #893A16",
"6  c #86350D",
"7  c #8E3F20",
"8  c #894619",
"9  c #95461A",
"0  c #8C4F16",
"q  c #874924",
"w  c #964A25",
"e  c #8A5627",
"r  c #9B5529",
"t  c #885635",
"y  c #985934",
"u  c #8B4D32",
"i  c #A6592A",
"p  c #A75835",
"a  c #B55D36",
"s  c #A74D2B",
"d  c #9A6539",
"f  c #8A6139",
"g  c #A8652B",
"h  c #AA6737",
"j  c #B36E34",
"k  c #B96839",
"l  c #B9753B",
"z  c #AB6B34",
"x  c #C25E39",
"c  c #C4643A",
"v  c #CA673B",
"b  c #C1763B",
"n  c #CF6E38",
"m  c #986745",
"M  c #946C4A",
"N  c #A96944",
"B  c #B86946",
"V  c #A77547",
"C  c #BC7542",
"Z  c #BC7A43",
"A  c #BA7B4C",
"S  c #B57748",
"D  c #A87655",
"F  c #B97753",
"G  c #A56355",
"H  c #AC7C68",
"J  c #976550",
"K  c #C86A45",
"L  c #C47C44",
"P  c #C37B4B",
"I  c #C87847",
"U  c #D47649",
"Y  c #C87B56",
"T  c #D27C57",
"R  c #D16E4F",
"E  c #E07853",
"W  c #B6813B",
"Q  c #BC8347",
"!  c #BB845C",
"~  c #BB8756",
"^  c #AF8951",
"/  c #B88868",
"(  c #B68E71",
")  c #918C79",
"_  c #C38345",
"`  c #C6844B",
"'  c #CB844C",
"]  c #CB8B4D",
"[  c #C78A49",
"{  c #D3874C",
"}  c #C48353",
"|  c #CC8453",
" . c #CD8C53",
".. c #CD8C5A",
"X. c #C5885A",
"o. c #D38453",
"O. c #D38C54",
"+. c #D48C5A",
"@. c #DA8959",
"#. c #CC9353",
"$. c #CC945C",
"%. c #CA9959",
"&. c #D39255",
"*. c #DA9355",
"=. c #D4945B",
"-. c #DB945B",
";. c #D49B5C",
":. c #DB9B5D",
">. c #D49A56",
",. c #CD924F",
"<. c #E38A58",
"1. c #E39B5E",
"2. c #EB9B5C",
"3. c #E79659",
"4. c #F49B5A",
"5. c #E48C4D",
"6. c #D8A25B",
"7. c #C8A15C",
"8. c #E6A45E",
"9. c #F5A15E",
"0. c #C68A66",
"q. c #D68964",
"w. c #CA9767",
"e. c #DC9562",
"r. c #D49B63",
"t. c #DC9C62",
"y. c #D89968",
"u. c #CC9974",
"i. c #D59D75",
"p. c #E39C63",
"a. c #E39C6B",
"s. c #E99866",
"d. c #F59C65",
"f. c #E89368",
"g. c #DCA364",
"h. c #DCA36B",
"j. c #DDAB6B",
"k. c #D7A565",
"l. c #DAA677",
"z. c #DDB274",
"x. c #D6AD6E",
"c. c #E3A465",
"v. c #EBA463",
"b. c #E4A46B",
"n. c #EBA46C",
"m. c #E4AB6C",
"M. c #EBAB6C",
"N. c #E7AA64",
"B. c #F4AA6B",
"V. c #F5A769",
"C. c #E8B46C",
"Z. c #F4B36D",
"A. c #EBA473",
"S. c #E2AC73",
"D. c #EBAC73",
"F. c #E7A778",
"G. c #F3AC73",
"H. c #F3AE7A",
"J. c #FAA774",
"K. c #E4B372",
"L. c #EBB374",
"P. c #ECB47A",
"I. c #EBBB7B",
"U. c #E7B878",
"Y. c #F3B375",
"T. c #F4BB74",
"R. c #F3B47A",
"E. c #FBB57B",
"W. c #F3BB7C",
"Q. c #FCBB7D",
"!. c #FAB675",
"~. c #F3C27C",
"^. c #FBC47D",
"/. c #EAC27D",
"(. c #B59B83",
"). c #A49888",
"_. c #BAA58B",
"`. c #BBA895",
"'. c #BAB19B",
"]. c #BCB3A5",
"[. c #C99E81",
"{. c #C4A58B",
"}. c #D3AF8F",
"|. c #E8AD86",
" X c #EDBB84",
".X c #E9B687",
"XX c #F2B584",
"oX c #F4BC83",
"OX c #FDBC83",
"+X c #F3BC8C",
"@X c #FBBA8A",
"#X c #E6BB96",
"$X c #F5BD95",
"%X c #F6AD83",
"&X c #C5BBA5",
"*X c #EBC388",
"=X c #F4C383",
"-X c #FCC484",
";X c #FCC985",
":X c #F4C38B",
">X c #FDC48B",
",X c #FDCB8C",
"<X c #F4CA89",
"1X c #FDD28C",
"2X c #EBC599",
"3X c #F5C494",
"4X c #FEC592",
"5X c #FECB93",
"6X c #FECD9B",
"7X c #F5C999",
"8X c #FED494",
"9X c #FED49B",
"0X c #FFDB9C",
"qX c #F8D797",
"wX c #EED69D",
"eX c #FFE19E",
"rX c #D2C9B1",
"tX c #E9CAA5",
"yX c #F9CDA5",
"uX c #EBD5A8",
"iX c #FDD4A3",
"pX c #FDDCA4",
"aX c #F4D5AB",
"sX c #F4DBAC",
"dX c #FDDDAB",
"fX c #F7D6A7",
"gX c #EBDBB4",
"hX c #FCDCB2",
"jX c #F5DBB5",
"kX c #FFCFB0",
"lX c #FEE3A3",
"zX c #FEE3AC",
"xX c #F9E4AB",
"cX c #F5E2B5",
"vX c #FEE3B4",
"bX c #FEE4BB",
"nX c #FBEABA",
"mX c #F9ECB8",
"MX c #FDECC4",
"NX c #FEEDCB",
"BX c #FEE4C3",
"VX c #FFF3C4",
"CX c #FEF3CC",
"ZX c #FFFACE",
"AX c #F9EED8",
"SX c #FEF4D4",
"DX c #FFFBD4",
"FX c #FEF4DB",
"GX c #FEFBDC",
"HX c #F4F5D8",
"JX c #EBEAD0",
"KX c #FDF5E3",
"LX c #FDFBE3",
"PX c #F9F9E5",
"IX c #FFFBFE",
"UX c #DCD4CA",
/* pixels */
"' l +.O.l I { O.G.Q.c.*.&._ :.lX>Xa.` oX9X1XeXeX8XT.&._ ,.T.~.6.N.n.V.s.-.p.M.P.b.oXXXR.oXnX9X7X*Xj.-X4XiXdX6X~ ~ Q ..} O.f.o.1.",
"-.| p.s.O.' C ` O.G.*.l _ >.8.p.R.P.S.P.I.<X<Xk.K.j.c.N.B.T.C.m.-.O.@.1.1.M.;X1Xt.D.A.S.b.I.U.*XI.U.S.R.H.P.+X$.e Q b.+.+.O.k o.",
"+.' P L I ' b | G.G.' j  .:.M.] t.XXoXr.k.9X0Xz.j.m.M.N.M.L.-X0X*.] d.Q.v.-.-.` Y.R.&.e.a.g.j.z.5X0Xb.@XF.e.b.r..XXXb.+.@XOX| *.",
"+.L L z j ]  .] v.OXN.j l O.1XL._ oX9X+X>XpX8X~.N.R.R.M.n.L.T.~.c.&.n.E.*.O.v.M.-XQ.] { p.p.H.m.8X-XZ +.+.A.H.iXmX5X+.C J.G.L l ",
"-.+.+.C l 1.-.j Y.W.M.[ &.t.8X-Xh.5XoX-X>XL.oX9Xk.p.p.1.n.Y.T.W.OX{ L o.I -.E.!.n.!.*.1.2.O.Y.Q.T.;.j O.n.4Xt.P.5XpX>X:.=.*.L ' ",
"E.n.n.' _ E.5XD.-X[ j l 6.6.:.:.P.P...OXpXS.:.t.] j l *.M.Y.Q.oX] l { s.3.-.e.` :.M.v.V.V.{ V.OXOX&.j b @.OX} =.r.4XOX} C 1.p.O.",
"@Xp.` z z g.-X8XQ.c.6._ &.Y.6.c.8Xj.Q t.H.p.=.' l g ' G.G.p.;._ * r o.s.q.+.a.b.M.Y.v.3.1.{ *.*.j g j k { M.t.r.$.w.A g j -.v.O.",
"OX-.l r i z ` L.L.;.j._ l ,.z ;.oXt.S.S.=.=.p.' P j +.G.+.] O.j l j l T a.@X@XH.F.-XB.j l b L g z l ' b I 1.,X5X$.[ S ` &.{ *.B.",
"OX+.g l =. .#.r.m.-XL.&.m.-X>.:.;X,XpX5Xt.` I C +.o.+.@.L i P O.c.r.e.X.X.XX6X! y.XXOXG.b g L _ [ t.*.i 9 g ] h. Xh.A ..Z _ :.*.",
">XOXe.t.m.j.m.m.k.W.;X;X-XQ.8.m.5X>X,XP. .` ] l | P L P ` l | L L.$.A A F ~ u.l.~ ~ ` +.I g k l h l 1.3.{ g g Q XX|.XX6X+.Z :.^.",
">X5XH.r.;.k.j.j.I.,X,X0X~.m.g.M.-X=XoXm.;.;.=.C L @.I j | e.@.i < < & = , = & , & = $ % 6 * 6 $ * & * 0 0 % * 0 V ~ +X@Xp 0 l -X",
"a.OXH.D.W.R.U.j.;XeX;X;XW.N.M.m.L.-X8X,XoX:XF.} | s.T C P C i * { S.j.l.}.( f # d y.R.D.A.@XP.h $ d A.OX!.B.j.~ & y XXiX} l b Y.",
"p.t.=.H.8X8X<XI.j.1XU.;X,XC.M.L.c.P.-X=X X=XS.} +.f.o.e.B 8 5 g B.;XiXdXhXbX2XM V w.>XiX@XiX6XD d Q y.$.t.OXpX8X1 & N $Xa.| l B.",
"H.-.Z r.>X;X XI.7./.k.~.;Xg.6.R.c.M.K.z.z.U.j.` =.a.e.a.g 6 i s.J.B.OXpXdXBXZXvX*X~ y.iXiXiXzX*Xw.^ A } =.U.zXVX9X1 - |.%X .' Q.",
"G.c. .S.1X;X/.U.K.~.x.U.T.g.:.M.Y.L.K./.qXqX Xr.a.H.q.Y 6 5 p I n n 5.M.i.#XbXVXnX.X$.OX0X0XzXfXpX7XiX9Xh.A S.6XvXt - |.XXq.` O.",
"e.a...c.=X;X<X~.qXeXI.~.-X;XT.:.p.g.m.=XlXlXI.=.A.A.P k 9 k K c c U n L Y F.kXvXVXmXj.} F.5XpXpXzXfXzXdX*Xh.P.l.3Xm - 0.i.b.A. .",
"F a.>XP.K.,XlX<X<X=X/.~.^.^.M.v.:.' ,.B.^.M.6.:.m.A.+.9 9 K v n v v v x B F i.6XnXvXb.r  .F.6XpXzXsXaXcXvX7Xk.w.|.N - [.A.q.b.H.",
"| =.y.m.,XpXzXlX%.x.C./.^.N.N.T.Y.p.6.C.M.=.Q S } } h * 5 U K v v x K x s 5 9 X.5X5Xb.I f.s.D.oXpXzXcXcXdXlX9X+Xy u u i.F.f.a.y.",
"e.| Z =.oXOX,XzX8X%.j.0X^.>.g.I.l.$.z f 1 , , , 1 t d - w I R a v v v K a % $ h p.p.3.2.v.3.1.M.~.:XdXxXuXpXlX9Xi.1 # d @XD.| } ",
"n.=.I O.p.#.g.1XoXk.K.5X~.K.%.z 1 f D ( }.wXhXvXhXhX3XS w a K K v x x K R w 5 K @.{ 5.2.9.5.1.v.M.I.9XvXzXqXlXlXBX! q 8 y. .Z M.",
"N.v.2.s.-.P =.Y.P.9X>XoX,X^ , ^ dXvXbXhXxXcXcXsXvXkXu.q @ 7 B R v v x x R x a R d.3.5.4.4.2.s.-.8.Y.5XiXlXlXwXmXhXtXu.q A ..#.L.",
"N.c.-.o.I @.p.Y.>X9XH.X.S e ^ mXdXhXhXsXsXgXsXsXbX2X~ 8 6 5 B x x n x x x K T f.d.4.4.4.4.J.O.P _ D.>X-X8XpXeXsXbXBX[.1 S e.m.m.",
"6.N.{ k c o.e.R.oXoXy.9 & ~ lXmXdXpXdXxXxXsXsXzXvX:XF w % 6 B K a c v v v R f.d.4.4.4.4.3.| u q e ~  X>X5XpXzXxXDXrX2 : N A z.~.",
"Q K.:.b K P Y S.P.j h  .F.pXmXwXzXpXfXzXzXxXdXzX5X>XA.T 7 6 p B c x v K x v f.4.4.9.4.d.Y u + X X < / XXR.<XzXVXLX( X o D X.I.I.",
"/.<X/._ T T P r 0 b.H.D.OX3XzXxXpXxXwXwXzXlX7X8XI.D.H.J.f.p @ s K b c v v v <.d.9.8.3.F.u # . O > # : w.@X XmXZXLX)     1 i.S.k.",
"eXeX>XH.A.A.S - 0 p.G.M.D.I.pXfXqXzXzXlXlX5XI.I.Y.M.J.E.J.q.s 5 p i s x K U 5.4.2.3.n.|.:   O 4 IX3 X - l.>XfXCXPX)..   o D r.=.",
"qX0Xj.b.y.e.w - j Y.!.v.M.I.pXlXqXqXqXqX9X1XT.N.V.!.V.J.J.J.o.5 % 6 6 i U <.4.4.4.2.A.i.>   . O UX4 o q X.3XbXGXPX].4   o 1 y.' ",
"<X0Xr.S } j r | y.E.B.v.B.OXpXpXqX1X/.~.^.-X!.9.{ V.4.U k I J.f.O.O.<.f.d.d.d.4.V.1.A y +   . . . . o u.+X3XbXSXPXPXPX4 : t } h ",
"=X>Xh.g S w C @XG.G.9.9.Z.Q.4X>X;X^.Z.N.8.9.V.V.9.3.k g i b p.1.p.s.s.d.d.4.3.<.9.p.P q # X . O   X # l.2XtXbXSXAXFXKX(.2 u t Y ",
":.;.H.L k 8 | J.B.B.B.B.B.v.n.n.Z.N.8.8.8.9.1.' n.I r h b O.m.b.1.p.V.s.f.4.3.d.<.v.| r 5 + X X + M l.3X*XbXNXGXKXFXKXNX#XJ q r.",
"{ >.;Xa.p 9 O.n.J.V.!.V.*.b I @.9.8.3.3.2.p.{ i $ q |.hX6X7X7X>X1.2.4.4.3.V.V.V.V.n.I 8 9 q q t q ~ :X<XqXCXFXPXtX#X#X#XMX/ d U.",
"l 3.,Xn.9 8 o.J.Z.V.9.*.j w i I 3.5.2.3.5.-.Y h V D tXbXaXnXnX9XM.V.J.V.J.Q.E.Q.Q.E.J.I k 5 r S u.@X*X2XnXDXSX#XH F N X.kXMXN }.",
":.T.c._ 9 a <.J.V.!.;.8 $ & < q K R R f.U w w  XvXfXuXjXnXDXDXBX:XOXOXOXOXOXQ.Q.OXH.>X%Xj w X.XX@XXX7XbXFXSXl.N | J.@Xq.F FXt ( ",
"#.W.n.s.i K <.J.B.Y.D.h.u.|.{.F 5 s K T K A h.pXzXsXcXMXNXDXGXSXdX4X XXXXXR.E.OX-XJ.OX4XF.c.R.OXXXoXbXCXNXjXV p U o.Y S u.FX2 u.",
"k.OXc.@Xs k <.J.J.N.P.fXbXBXhXu.= N } h S l.7XxXuXxXVXDXSXSXGXSXCXhX2X7X3X XXX-XOX!.!.^.E.Q.^.W. X6XDXDXMXtXd r a I N 0.kXKXt H ",
",X6X+.@X9 a <.J.V.N..XiXaXjXdX}.}.7XX., u.6XfXlXwXgXZXGXDXFXKXFXLXCXMXVXhX3XR.OX!.!.!.!.Z.Z.T.I.*XsXZXCXgXuX/ r g 9 e |.BXhXJ u.",
"9X5XA F.9 a f.J.J.L.7XuXgXnXnXnXdXvXu.d #XfXwXuXuXgXVXHXFXFXKXFXFXSXSXGXbX#X.X-XE.^.Q.^.~.~.~./.xXmXZXZXgXgX$X0.h q m }.( m f |.",
"S.j.h } 5 s E J.V.oXpXcXMXGXMXVXuXwXsXuXfXfXsXsXuXgXJXZXAXKXLXAXAXHXFXSXhX.X|.+XXXoXQ.I.K./.<XfXDXDXHXGXgXgXyX#Xu f u./ 1 t ! w.",
"X.j.X.~ 6 9 R J.V.oXdXMXHXGXCXcXgXtXuXzX2XfXsXuXgXgXVXGXAXFXKXKXKXGXFXNXjXtX+X3X+X*X*X#X.X#XhXDXDXHXJXrXrX&X/ u.! ! ^ = 2 l.@X$.",
"%.<XoXq.5 7 U J.A.:XsXDXGXHXGXmXgXcXuXsXfXdXuXfXuXgXDXGXFXAXKXLXFXAXAXFXNXMXbXbXBXhXhXbXMXCXKXPXGXGXHX'.&X}.1 D V t V m z. XP.-X",
"#.qX-XZ r 9 n f.A..XjXNXPXHXHXCXVXvXaXtXhXdX7XhXtXcXSXSXHXFXKXKXKXFXAXFXFXFXSXNXSXNXSXKXIXAXUX&X&X&X].`.).).H D & q X.P.j.S.L.L.",
" X5X[ e 8 6 c <.A.XXkXSXLXGXDXSXNXVXbXuXsX}.w.tXaXuXjXCXDXDXGXPXAXKXKXKXFXPXFXGXGXFXFXKXAXUX&X&X&X`.].).H H H 1 y Z -.t.;.r.g.g.",
"5X$.l C.v.i 9 @.A.@XhXMXGXLXGXSXDXCXMXaXxXw.f }.fXuXuXcXSXDXDXGXKXPXPXPXHXHXPXPXHXPXHXJXrX&X].'.{.(.`.`.) 3 : q A -.p.O.&.:.j.j.",
"w.d 6.-X*.9 6 q.A.$XkXhXNXDXFXDXDXZXMXuXvX( < w.2XfXsXsXnXZXCXCXAXKXPXPXPXHXHXPXPXPXAXUX&X&X].{.{.{.}.`.( u t 0.P *.3.{ *.N.L.L.",
"u.8 C.~.[ i $ T a.|.3XyXBXNXBXAXNXZXmXtXbXu.& X.l.3XpXfXvXVXMXMXKXFXFXFXKXGXHXHXJXJXrXrX_._.'._.{.{.[.J t H F.S b L { { O.:.N.j.",
"H $ ,.~.Z.6.% 9 B q.F.$XdXhXgXjXgXNXnXuXhXw.- A X.F.3X6XdXiXiXbXSXSXNXSXGXGXFXAX&X&X'._.(.`.{._.{.H G u F XXH.l L I { { *.:.j.m.",
"G - l 6.>.m.p * q B } r.3XfXaXaXrXmXcXaXkXw.* r k -.A.S.P.F.F.@XXXXX.X#X#X#X#X#X{.{._.{._._._._.2 2 q N b.b.{ [ O.n.e.` t.M.m.W.",
"0.q 0 W _ Q F 7 % p h C F.6XyXhXgXsXtXaXhXu.* $ p ..q.| +.q.T U P Y | 0.X./ / ( {.u.{.u.( M M 2 , m .X3XD.n.Q.Z.e.5Xn.C +.c.6.P.",
"..h d 0 0 e < e z e 8 Y ..R T F S yXhXkXBX2Xm = : q B T K K K x 6 @ 6 u p a G B Y 0.B F G - : V u.<X*X0X~.oXQ.eXg.Y.O.O.p.p.p.OX",
"-.=.C./.w.^ l ~ dX~ * p T a s a 5 8 q f [.tX}.H ; : s p a R E R s 7 ; w G B a B K Y a B w 5 p Y <XlX8X=Xk.k.Q #.L.D.:.:.' j l 1.",
"Q.T.~.<XU.w.$.w.vX.X0 * s 5 6 a k k h q : m ( H u - ; 7 p s s R R G 5 % 6 % 6 s N B G R p 7 w 7 z I.qX~.%.C.;.;.Q.Y.t.t.O.j l B.",
"0X-XK.U.U.K. X X.X*X0.y 7 6 7 T @.<.f.Y 5 ; = ; t u - $ 6 5 s B B B B B s 5 % % % ; u T q.q.Y s $ %.;X-X;.L.=XY.>.g.#.t.-XY.c.-X",
"W.oXU./.m.j.5X8Xh.z.i.y.Y 5 % I { U U o.d 8 d u./ u.D q - % ; q s G T T T T G @ @ $ - N B T T a & ;.k.m.#.g.;XR.#.g.#. .L.W.D.E.",
"P.=X*XU.%.k.>X;Xx.S.r.r.a.B $ % a c b i * # t |.yX$Xi.X.F d - $ u p G R B Y G 6 ; - - w % 6 % % 0 g.;.c.;.#.I.M.6.g.m.#.] g.T.L.",
"5X8X1X*Xz./.,Xm.z.L.h.A +.y.h * % % $ & 8 V l.yX.X6X Xw.l.6Xl.q ; 7 p p y 7 ; @ w h B | O.P L ,._ -XL.C.L.g.;.g.#.[ D.L.b.T.,XR.",
"<X<X<X*X=XeX8X6.W.K.-XP.y.@X+XXXq.P P i.3XzXiXz.9X0X8Xz.h.9X6X0.p w - 7 y p r y p h h +.!.Z.8.N.;X1XL.g.,X9Xc.W.R.;.M.L.W.W.Y.b.",
"*Xz.<X/.0XU.6.Q.=X;X=XI.D.+XdX5Xy...A ~ l.iXpX8XeX8XU.j.I.0X0X|.Y Y } F F.$X..p l o.T { { 8.~.8.C.m.U.~.U.L.;X5XlXQ.m.R.;XM.Y.c.",
"<X<XeX8X0XK.k.C.j.=X;XP.S.W.4X-XX.` F X.x.3XpX8X0X~.k.k.K.=X*Xx.e.q.e.y.4X6X .h ' L k b >.Z.~.C.j.k.k.6.g.-X-XL.oXm.g.b.c. .N.M.",
"R.oX0X,XN.W ] #.7.~.;X/.;X;XU.z.`  .b.#.y.P.0X5XN.g.g.C.W.I.U.oXY [ =.L.0X-X} Z p.U b b 3.8.j.1X=X-X=Xm.g.U.W.C.Q.L.t.M.N.N.a.:.",
"N.#.g.U.g.;.g.6.8XeX1XU.1X1X7.^ _ c.M.l r.OXpX>X;.;.N.T.;XW.P.=XN.=.*.C.~.g.#.M.2.L b _ N.T.~.eX,XI.I.Q.m.g.K.-X;X-Xg.p.a.L.:.e.",
"-.j _ m.W.oXM.K.lXlX/.6.=X~.x.k.~.^.Z.[ Y.>X-Xc.Y.c.,.>.M.U.m.j.W.M.N.-X,XN.c.;XT.>._ _ M.8XW.L.lXm.#.m.L.m.;.#.8X0XY.;.r.m.g.-X",
"s._ [ 6.m.T.:.W.^.^././.K.C.^.1X6.8.8.6.W.b.t.m.T.v.{ _ #.C.=X;X;.:.m.1X8XM.c.Z.C.,.,.8.oX-XH.n.-X>.Q >.m.g.#.l -X8XY.k.W.-Xm.-X",
"!.Y.#.#.g.W.6.~.eX1X/.~.6.W /.C.6.6.C.;XI.r.;.m.] ] ,._ _ >.~.0XoXU.t.b.1.&.8.c.N.7.j.;XC.[ ' ' Z l ` *.=.t.g.g.m.g.g.g.;X;Xj.k.",
"!.eXC.%.;.6.Q 6.eX/.6.^.6.,.^.C.^./.~.1XI./.U.;.>.6.Z.T.N.6.U.,XpX>Xb.*.{ &.Q.;X/.^.qXeXQ.n.V.L -.:.Y.R.M.t.N.m.W.;.C.k.U.K.L.I."
};
