/* XPM */
static char *_e5db8b4eab847c49044478f08c8a801ZnvBAwTIfm2JULGb[] = {
/* columns rows colors chars-per-pixel */
"64 64 256 2 ",
"   c #010305",
".  c #01050A",
"X  c #010A0D",
"o  c #090209",
"O  c #000C14",
"+  c #000C1B",
"@  c #020617",
"#  c #001314",
"$  c #00141B",
"%  c #001B1C",
"&  c #091819",
"*  c #121417",
"=  c #000D23",
"-  c #000E2A",
";  c #001424",
":  c #001A24",
">  c #00142A",
",  c #001B2B",
"<  c #0C1B27",
"1  c #001B31",
"2  c #001633",
"3  c #181824",
"4  c #00232B",
"5  c #012627",
"6  c #18282B",
"7  c #012333",
"8  c #062A37",
"9  c #0A353B",
"0  c #1B3035",
"q  c #29292F",
"w  c #0D211F",
"e  c #173A48",
"r  c #143A52",
"t  c #043949",
"y  c #283945",
"u  c #233F55",
"i  c #084B58",
"p  c #144B5B",
"a  c #184957",
"s  c #03535A",
"d  c #1A525C",
"f  c #11454C",
"g  c #234C58",
"h  c #26535C",
"j  c #2F4B51",
"k  c #1B4C63",
"l  c #015D6D",
"z  c #085A63",
"x  c #1C5263",
"c  c #165767",
"v  c #025D72",
"b  c #085F72",
"n  c #185B72",
"m  c #0E4C63",
"M  c #254E65",
"N  c #255869",
"B  c #245D72",
"V  c #295D74",
"C  c #335C75",
"Z  c #3B5B64",
"A  c #006169",
"S  c #18636C",
"D  c #016173",
"F  c #0A6A73",
"G  c #0D667C",
"H  c #08697A",
"J  c #176678",
"K  c #16747C",
"L  c #09747D",
"P  c #25636C",
"I  c #236375",
"U  c #26757C",
"Y  c #37767B",
"T  c #386775",
"R  c #476C78",
"E  c #51737B",
"W  c #33827F",
"Q  c #0C7886",
"!  c #1C7D8B",
"~  c #157686",
"^  c #197D95",
"/  c #097286",
"(  c #297B88",
")  c #357D8C",
"_  c #397887",
"`  c #247D95",
"'  c #357C95",
"]  c #376A82",
"[  c #417887",
"{  c #53788A",
"}  c #168698",
"|  c #108592",
" . c #2B838B",
".. c #34838C",
"X. c #388488",
"o. c #288698",
"O. c #358594",
"+. c #368C9A",
"@. c #3A8997",
"#. c #26919B",
"$. c #3A939B",
"%. c #1C8AA4",
"&. c #1A95A7",
"*. c #288BA6",
"=. c #3B8AA2",
"-. c #2596A9",
";. c #3999A8",
":. c #3A9AB4",
">. c #2996B3",
",. c #1DACBC",
"<. c #35A3AD",
"1. c #3AA4AB",
"2. c #2CAAB9",
"3. c #34A5BB",
"4. c #33ADBC",
"5. c #3BACBC",
"6. c #39A7B6",
"7. c #34B2BD",
"8. c #35B5BB",
"9. c #2BAFB6",
"0. c #46858B",
"q. c #478898",
"w. c #538B9B",
"e. c #45939A",
"r. c #51868C",
"t. c #6E9096",
"y. c #458CA7",
"u. c #4495AB",
"i. c #4A95AC",
"p. c #449AAC",
"a. c #4A9BAD",
"s. c #4698A5",
"d. c #5597A6",
"f. c #449CB2",
"g. c #4897B4",
"h. c #5393AA",
"j. c #6D9CA7",
"k. c #45A4AD",
"l. c #48A8B7",
"z. c #56A8B7",
"x. c #48B2BB",
"c. c #59AAB3",
"v. c #79B6BB",
"b. c #6CB1B9",
"n. c #1EB7CB",
"m. c #2DACC4",
"M. c #29A9C4",
"N. c #34ADC3",
"B. c #3BACC4",
"V. c #38AAC6",
"C. c #29B6C7",
"Z. c #35B4C4",
"A. c #3BB3C4",
"S. c #3CBBC4",
"D. c #34B4CA",
"F. c #3BB3CC",
"G. c #35BDCC",
"H. c #3BBCCC",
"J. c #33B8C4",
"K. c #2BB8D2",
"L. c #35BDD2",
"P. c #3BBBD3",
"I. c #34BCDA",
"U. c #3BBBDB",
"Y. c #3BB5D4",
"T. c #33A9D3",
"R. c #36BCE1",
"E. c #42ADC4",
"W. c #47A9C5",
"Q. c #56A6C2",
"!. c #43B3C4",
"~. c #4CB4C3",
"^. c #43B4CB",
"/. c #4AB4CB",
"(. c #43BCCB",
"). c #4ABACC",
"_. c #45BCC5",
"`. c #56B6C9",
"'. c #44BBD3",
"]. c #4BBDD4",
"[. c #44B8D6",
"{. c #53BDD1",
"}. c #6BBCC6",
"|. c #76BBC6",
" X c #74B9D1",
".X c #43BDE2",
"XX c #2DC5CD",
"oX c #24C3CA",
"OX c #32C2CD",
"+X c #3AC3CC",
"@X c #2DC4D4",
"#X c #2DC4DC",
"$X c #2AC8D6",
"%X c #33C3D3",
"&X c #3BC3D4",
"*X c #34CAD4",
"=X c #33C3DA",
"-X c #3BC4DA",
";X c #34CADB",
":X c #3AC9D8",
">X c #3AD1DC",
",X c #34C4E3",
"<X c #38C7E3",
"1X c #2ECAE4",
"2X c #44C2CB",
"3X c #43C3D4",
"4X c #43C2DC",
"5X c #47C5D9",
"6X c #54C4D8",
"7X c #53C5C9",
"8X c #68C0C8",
"9X c #75C3CC",
"0X c #76C7D2",
"qX c #6DC2D5",
"wX c #43C3E4",
"eX c #88959A",
"rX c #959699",
"tX c #858F9E",
"yX c #8997A2",
"uX c #919EA6",
"iX c #91A2AD",
"pX c #A3AAB0",
"aX c #83BDC8",
"sX c #87CDD8",
"dX c #BAE7F6",
"fX c #BEF2F5",
"gX c #ACD7E0",
"hX c #C6D4D2",
"jX c #D0E4DC",
"kX c #D8E8E8",
"lX c #C9EAFA",
"zX c #D9ECF8",
"xX c #C8F2F9",
"cX c #D4FEFE",
"vX c #DBFFFF",
"bX c #D9F2F6",
"nX c #C6E9E9",
"mX c #EDFEEA",
"MX c #F4FEED",
"NX c #FAFFEE",
"BX c #F1F7ED",
"VX c #FCEFF8",
"CX c #EEFFF2",
"ZX c #E3FFFF",
"AX c #ECFEFD",
"SX c #E9F5FA",
"DX c #FCF5F5",
"FX c #F5FDF4",
"GX c #FBFDF5",
"HX c #F4F6FC",
"JX c #FEF5FE",
"KX c #F4FEFD",
"LX c #FDFDFD",
"PX c #F4F4F4",
"IX c #F1EDF2",
"UX c #C5D6E0",
/* pixels */
"KXKXLXJXLXKXKXGXKXGXLXKXFXCXGXLXLXLXPXLXLXLXKXKXGXLXLXKXKXKXFXLXLXLXKXLXLXLXLXGXKXKXKXGXGXLXKXKXLXLXLXLXLXLXLXLXFXFXJXLXLXGXLXLX",
"AXKXLXLXLXLXGXGXLXGXGXFXFXFXLXGXDXGXGXLXLXLXKXKXLXLXLXGXKXLXLXLXVXLXLXKXLXLXGXLXLXKXGXLXGXKXLXLXPXLXLXLXLXLXLXLXFXmXLXLXGXGXKXLX",
"KXKXLXLXLXGXGXGXLXPXLXLXCXLXLXDXLXLXKXKXLXJXLXLXLXGXLXGXLXGXLXPXLXLXKXKXLXLXLXGXLXFXGXLXLXLXLXHXLXLXKXLXLXGXLXLXFXGXLXJXLXLXFXLX",
"KXLXLXJXLXLXLXLXLXLXLXLXKXLXLXLXGXDXKXLXVXLXLXGXLXLXLXLXGXDXLXLXLXDXKXLXDXLXLXKXLXGXLXGXKXGXLXLXLXPXJXLXDXLXLXAXLXKXLXJXLXLXLXLX",
"GXLXLXGXLXLXJXJXJXLXHXKXLXLXLXLXLXKXAXAXVXLXLXLXKXLXKXFXLXLXKXLXKXLXLXLXPXLXLXKXKXGXLXLXLXLXLXLXKXLXLXLXDXLXLXKXKXPXVXJXLXJXJXJX",
"LXLXGXKXLXLXKXLXHXLXKXKXKXKXLXLXKXZXZXZXLXLXZXAXAXKXKXAXKXLXKXLXKXAXAXZXLXLXKXKXKXFXLXLXKXKXLXLXKXKXKXSXLXLXAXAXKXLXJXJXLXLXLXJX",
"LXLXGXLXLXAXcXZXAXzXZXZXvXZXSXSXAXcXcXvXSXKXvXcXAXkXAXSXZXAXSXAXZXcXvXZXbXZXvXcXZXbXSXAXcXcXAXSXvXcXcXAXSXZXcXcXvXbXJXLXLXLXJXLX",
"LXLXKXLXAXgX|.0Xb.h w.9X0XaX{ Z aX9X0Xj.8 j.sX0Xv.h r.sXsXaX{ Z }.0X}.b.9 j.sX9Xv.T R sX0X|.t.e }.0X0Xb.9 t.sXqXsXj pXLXPXLXLXLX",
"LXKXKXKXcX8X1._.@.; F 6.8.1.f # <.8.4.K %  .J.9.$.% z l.4.1.i # <.7.5.! # U x.5.$.% s k.6.1.c # -.A.V.} % U x.5.d.X t.LXAXAXKXLX",
"LXLXLXAXvX8X9.*Xk.7 Q +X*X8.d , S.@X&X} 5 $.;X#X1.5 L +XOXS.S 4 J.*X&X#.5 #.5X&Xl.5 A _.&XH.U 4 Z.;X=X>.5  .&XP.z.# eXKXAXAXKXLX",
"LXLXLXKXvX8X,.>X;.1 Q OXXXC.p > D.=X[.} 5 +.;XI.p., H '.%XD.c > C.#XI.} : O.<XU.1.4 D '.=XF.J > M.1XI.&.:  .&XL.z.$ eXLXFXKXKXLX",
"JXJXLXLXZX8XC.>X:., Q OX$X2.k - D.R.U.^ ; @.,X,Xu.> G '.I.F.x > C.#XI.%.; ...XR.:.: v ].I.F.I ; M.1XR.-.$  .-XL.Q.+ eXGXFXKXLXLX",
"JXJXGXLXZX Xm.-Xg.2 ~ 2X$X7.a - F.,XU.` , @.,X,Xp., G ].I.F.M ; D.,X.X*.= ) wXR.a., v ].U.[.I ; N.<XR.*.; ..4XU.Q.@ rXGXGXLXLXJX",
"JXLXGXKXZX Xm.4Xy.2 / H.@X7.a - A.#XU.^ $ q.R.R.;.: H '.I.F.x $ m.I.U.o.$ _ .XU.i.: l /.I.V.B ; 2.=XU.*.# W P.U.Q.@ rXNXKXLXLXJX",
"LXGXFXAXvX Xm.4Xg.2 Q +X$X8.a ; A.#XP.} % 0.<X,X1.: H (.I.^.d $ C.#XI.} % X.wXI.s.5 A (.I.D.P $ 4.;XU.*.# X.%XI.Q.@ rXNXKXKXLXLX",
"LXKXmXZXvX|.N.].h.= K S.OX9.a ; B.L.H.| $ 0.'.I.e.% F (.L.!.d $ 7.@XP.o.# X.3XY.s.% z _.L.Z.P # <.%XD.#.# Y +XL.Q.@ eXGXAXKXLXLX",
"AXAXAXAXZX9X6.6Xd.O U 7X8.x.f & `./.8.#.# r.6X!.d.# S `.2X~.h # z.6X^.#.# r.{./.c.% c `.7X`.N # 1.7X2X#.# W 7X~.d.# eXGXKXKXGXLX",
"KXLXLXHXAXj.G o.g $ t K ~ U 8 @ n O.W f # a o.( h X f K K ~ e X c  .} s # f U O.h # 9 J ! ~ 9 # S | K s : f K ..R $ eXPXFXKXGXLX",
"VXJXLXLXJX{ 2 2 = ; $ > 7 - @ < , ; # 5 & O $ ; X w # + 7 $ . 6 : $ 5 % # # + ; $ $ X # , + o 6 > - , - = < > - , @ rXLXLXGXLXGX",
"JXLXJXJXLXiX' g.[ + a @.=.q.y @ ] y.@.P X Z e.q.R # e q.@.O.j o [ @.$.P & j 0.h.E $ 9 0.q.@.j . [ q.y.] > M [ i.{ < rXVXLXDXLXLX",
"LXGXLXLXAX|.6.E.w.: S x.B.f.e > g.V.5. .$ q.5.W.w.; m z.F.:.M + p.F.B.} $ 0.`.:.h.1 i l.^.l.M ; ;.E.!.+.; Y x.l.j.@ rXLXLXGXLXLX",
"LXAXLXKXcXb.m.H.s.$ L 7XJ.6.M = E.U.3XQ ; y.Y.Y.u.$ J ].P.F.x - W.P.Y.} : ) /.[.g.> b {.Y./.J - 3.%XG.| ; ( ).!.z.@ uXLXIXLXDXLX",
"KXKXLXLXvX9XC.4Xy.4 F (.&X5.a - F.U.4XQ 4 y.[.[.i.> J ].K.^.x , V.<X<X^ ; @.6XY.g.7 b E.U.^.c 1 2.*XL.%.4  .3XH.z.+ eXLXLXLXLXLX",
"LXLXLXKXZX8X9.<Xp.: ~ 3XL.^.a > ^.I.J.} : @.wXD.s.: G /.I.F.k ; E.K.I.&.$ O.5XY.g., A !.L.^.B ; 4.@XL.>.;  .3XJ.z.; j.KXLXGXKXLX",
"LXLXLXKXvX8XC.;X;.4 Q S.&XB.p ; D.@XG.| % +.&XOXs.% F 2X@XZ.d ; 4.*X#X} 5  .2X+Xp., A x.XX8.P $ 3..X[.>.> O.3XP.z.+ yXKXLXLXKXLX",
"LXLXLXKXvX}.C.=X:., Q +XU.B.m > D.#X+X| : +.:XH.s.% F 2X@XZ.d : 7.@XK.%.% ..3X+Xk., A 2XXXS.S > V.U.U.*.- ' '.H.z.+ yXLXLXLXLXKX",
"LXLXLXLXZX}.C.-Xp., Q S.I.B.a > T.#XH.! , =.<XY.i., G ).#XF.k > B.,XR.%., O.5XU.g.1 l (.%XF.B > 2.,XI.-.; ..&XH.z.+ yXLXJXLXLXLX",
"LXLXJXLXZX}.C.<Xu.> Q H.L.B.k - F.,XP.^ 2 =..XU.g., G '.I.Y.M - B.,XR.*.> O.].[.g.2 v (.#XF.B > 2.#XI.-.> ) &XH.l.+ yXLXLXLXLXLX",
"LXLXJXLXZX}.n.1Xg.> ~ H.@X7.a > D.,XP.! 2 =.-XP.i.; G '.@XD.M - N.#XU.%.> O.5XY.g., l (.@XD.B ; 2.;XU.*.> ) 3XOXz.+ yXLXJXLXLXLX",
"KXLXJXLXvX8Xn.;Xi.> Q S.$X7.p ; D.#XP.! , @.4XL.a.; F (.@XJ.d ; N.I.U.%.; O.3X'.f., A S.@XZ.P ; 2.;XU.=.> ) &XD.z.@ yXLXJXLXLXLX",
"KXLXLXLXvX8XC.<Xu., Q +XXX7.p ; D.#XH.! > $.-XL.s.: F 2X$XJ.d = N.;XU.*.; O.3XP.a., A S.XXJ.B $ 2.-XU.*.; O.+XOXx.O yXLXLXLXLXLX",
"LXKXLXKXZX8Xn.-Xp.: L S.%X4.p $ D.#XH.! : @.4XH.s.; F (.XXJ.h > 4.*XP.*.% X.3XH.a.: A +XXXJ.P ; 2.;XP.*.; ..+XOXl.# eXLXLXLXLXKX",
"KXLXLXKXvX0X,.;Xs.% L 2XJ.A.f ; A.;XF.*.; $.5XD.h.- J 6XC.N.M = B.U.P.*.$ @.5XZ.z.> v _.G.Z.N , 2.$XL.>.; ..3XJ.x.X uXLXGXGXBXGX",
"KXHXLXLXvXb.,.;X=.4 F S.OXB.M = N.=XP.Q , $.3X+Xy.> J !.G.H.M = V.-XH.| , O.3XP.u.> v A.XX^.N ; 2.@XH.^ > ) +X+Xk.# iXLXDXLXLXGX",
"LXJXJXJXZX9XK.<Xp., ~ _.=X^.r > ^.@XH.#.: +.+X3Xp.4 L S.*X8.p 7 B.=X%X-.:  .H.5Xl.: A ).*X8.c , B.U.[.>.2 ) '.5X}.- yXLXJXLXLXLX",
"LXLXLXJXAX|.:.].w.+ J ~.B.l.u + l.).5.~ # 0.`.6.e.$ s x.8.<.h O k.^.7.~ # 0.x.l.e.% s x.8.k.N # =.`.`.' = T `.W.w.= tXLXLXLXLXKX",
"BXGXGXFXGXE = t $ & $ : 1 ; X & $ 1 , : *   ; 4 O X $ % 5 %   * $ : 4 5 # O # 4 & % # # 5 # o 3 ; = > = 3 + , , e . rXGXKXGXKXKX",
"NXNXmXmXNXt.r C y . 4 a m a 6 . e x a 8 o q g a y X 5 a s d q   e p c 8 o q g g 0 & < f d j q o e g N 8 o 0 i c h . rXFXKXGXGXGX",
"AXLXGXKXAXv.*.E.q.$ n 1.3.u.e = y.:.f.' + R g.g.q.; i a.<.=.g = y.:.f.' = T i.g.q., i u.1.=.M + O.;.3.O.+ P ;.:.d.= tXKXLXJXLXLX",
"KXKXLXLXZX}.,.P.y.> F !.D.3.a = W.V.[./ > y.F.V.i.- J /.C.B.k = W.Y.F.^ - ' /.V.g.> v /.m.!.V = 3.J.C.} , ) (.B.z.@ yXLXLXLXLXJX",
"LXLXLXLXZX|.N.4Xi.; K _.%X5.a ; F.U.^.^ , @.3XH.i.; J ).OXZ.x > V.[.Y.*.; O.].(.a., v /.+XZ.P > 4.&X[.*.$ X.3XS.z.X eXLXLXGXLXLX",
"LXLXLXLXAX}.m.4Xi.; K _.&X5.a > A.%XP.^ : +.&XH.a.> G (.OX8.k = V.P.D.o.% O.2XH.a., l (.OXJ.P > 9.:XY.*.; ) 2XS.z.O eXLXLXGXGXGX",
"KXLXLXLXZX8XC.1Xu.2 Q ).L.B.k - Z.#XG.| % $.*XOXi.> G (.XXJ.x > 5.=X&X} : O.&XG.p., l ^.XX8.S ; 2.;XY.*.> ) 3XG.z.O eXLXLXLXLXKX",
"LXLXJXLXZX8Xn.,Xf.2 ~ P.=XV.u - Z.$XL.| 4 #.+XOXa.; G (.XX8.x > N.;X+X%.: O.+XH.p., l (.XXZ.I > M.,XU.>.> ' 3XL.l.O eXLXLXGXLXGX",
"LXJXJXLXZX8XK.1Xf.1 Q L.#XV.p - F.#XL.^ : $.*XS.g.> G ).OXZ.k - B.=XG.%.: O.3XH.p., v ^.%XA.B > m.,XU.>., ' &XG.z.+ yXLXLXLXLXLX",
"LXJXJXLXZX}.C.,X:., Q %X%XV.p > A.#XL.| , +.3XP.u., G (.%XA.x > B.-X%X} : O.5XY.f., v ).H.A.P > 3.1XI.-.> ' '.P.z.+ yXLXLXLXLXLX",
"LXGXKXKXZX8XM.<Xp.: L H.P.E.a ; B.=X@X| , =.4XH.f., / (.L.Z.m 2 B.,X@X&.: O.].[.k.1 v ).P.E.B > 3.:XI.%.:  .2X^.z.+ yXKXLXLXLXLX",
"LXLXFXAXvX|.V..Xs.% Q ^.[.l.a $ F.=XI.| , q.'.P.u., G (.%XZ.c > V.=XK.&.; @.].P.f., D (.'.!.B > 3.=XL.&.; ..3XH.c.O eXLXKXLXLXLX",
"LXLXNXmXvX XT.wXk.% Q 3XP./.p # S.K.$X%.= w.5XJ.p.> / 3XL.A.x - B.*XK.&.- w.5XJ.l., v H.[.W.N > 3.;XoX&.; q.+XC.z.$ tXKXLXLXKXLX",
"LXKXNXFXcX XT.[.$.5 F (.I.3.p % 5.=X*XQ 2 { 3X&Xu., H Z.G.(.M 2 3.=X&X^ - [ &X:Xy.> H S.F./.B ; 3.;X$X&., _ +XXXk.+ uXLXHXLXLXLX",
"LXJXGXGXvX9XD.-X$.5 W 2XP.!.f > !.&XN.o., q.+XG.h., H (.*X8.a , ^.L.D.#.; O.+X+Xk., A _.3X_.c 4 E.%XK.&.> ] +XOXb.$ eXLXKXLXLXLX",
"JXLXDXGXvX}.:.).e.X A `.x.u.y @ a.{.W.( + [ 7X5.w.+ c x.8.1.h @ p.(._.( $ Y _.5.e.+ i l.6.k.P # ;./.{.` + R ~.!.q.O eXGXGXGXLXDX",
"JXLXGXLXKXE 2 7 # % : = , : @ * - > + $ # # $ $ $ O # % : %   w > - ; O & # # $ O & & $ , $   w $ + = @ < O $ ; y . rXLXLXLXLXLX",
"LXLXGXHXKXt.r C j X , M x a 6 @ r B C 9 # 0 g N y X 5 a d g 0   e N C 9 X 0 g N 0 w < u h j 6 X e M C r O 6 d c j o rXGXGXLXLXLX",
"LXLXLXKXZX|.=.g.X.: S p.<.k.r = y.u.g.] $ Y p.u.{ ; p a.1.e.g O y.u.u.' + T ;.;.w.> r w.k.;.h + +.:.:.' + C ;.;.d.# eXDXLXGXPXKX",
"KXKXLXKXvX|.3.F.e.4 H /.8.6.a , W.T.^.( : O.(.E.h.- n ~.8.5.d > :.Y.^.` ; ) H.Z.a.= n `.2.7.P ; 2.L.T.o.> _ (.8.k.# rXLXKXLXGXGX",
"KXCXFXFXvX XT.wX$., ~ ].(.6.f $ A.<X[.^ > $.P.&Xg.2 H 2XC.N.N > V.<X%X} , O.L.=Xf., v [.D.B.J : 9.OX+X} % X.8.2Xc.O eXLXLXJXLXLX",
"KXFXGXAXcX}.M.wXp., Q (.J._.g $ D.#XK.%.> ;.@XG.y.> H +X;XG.m > Y.#XK.%., =.%X%X6.1 D ].-XH.S ; 8.oXJ.-.% X.S.S.c.& yXJXLXLXJXLX",
"LXKXGXLXZXqXK.1Xf.1 ^ -XK.Z.m 7 J.#X&X*.> ;.>X@Xl.2 Q :XoXOXB 1 V.<X-X-.; @.>X=Xk.7 b ~.%XZ.I 1 C.;X,X>.> @.5X*Xz.$ tXLXKXKXKXKX",
"LXLXLXLXZX X>.3.' : l 3.Z.1.f $ #.2.<.K $ Y 1.<.0.$ s <.-.;.a @ o.5.<.~ % Y <.;.q.+ i k.-.k.T O o.2.3.` - T >.2.q., iXLXLXKXKXKX",
"JXLXGXLXLXSXlXlXzXUXlXfXdXdXkXnXxXxXfXnXhXkXzXxXzXjXnXxXxXlXkXIXxXfXfXnXhXjXxXxXkXjXdXdXxXnXhXkXbXlXlXzXhXkXlXlXzXUXPXLXKXKXLXLX",
"JXLXKXFXLXLXVXJXLXLXKXKXHXKXLXJXLXHXKXAXNXGXVXJXDXGXBXHXLXLXDXNXKXAXKXKXNXNXFXKXGXMXFXKXLXLXGXFXLXJXJXLXGXKXHXJXJXLXLXKXKXLXLXLX",
"LXLXKXKXGXGXGXGXGXNXKXLXKXFXJXJXJXLXLXKXNXNXJXLXLXLXLXKXHXHXLXDXLXLXLXLXFXFXLXJXKXKXLXLXVXJXLXKXFXLXLXKXmXMXLXLXJXDXGXGXCXGXLXJX",
"LXLXKXKXFXNXFXNXNXNXGXGXFXGXJXVXJXJXLXLXMXNXLXJXLXLXLXHXKXLXGXLXLXJXJXLXFXGXJXJXLXLXLXJXJXJXKXCXLXGXKXKXmXmXLXJXJXLXGXFXFXKXDXJX"
};
