/* XPM */
static char *_9cd88488daa4d19b1a26d273d57e0ecujsWbCIvbFRCYwiD[] = {
/* columns rows colors chars-per-pixel */
"64 64 175 2 ",
"   c #A06C30",
".  c #AB793E",
"X  c #B27F46",
"o  c #B8833D",
"O  c #B58246",
"+  c #B88546",
"@  c #B68449",
"#  c #B9874B",
"$  c #BC8A4D",
"%  c #BE8D50",
"&  c #C18E4E",
"*  c #C6904F",
"=  c #C18F51",
"-  c #C49152",
";  c #CB9453",
":  c #CF9855",
">  c #C59558",
",  c #CC9659",
"<  c #CD9B5B",
"1  c #D09754",
"2  c #D29B56",
"3  c #D89D57",
"4  c #D39D59",
"5  c #D99F58",
"6  c #D5A15B",
"7  c #D8A15E",
"8  c #CE9E61",
"9  c #D19F63",
"0  c #D3A263",
"q  c #D8A261",
"w  c #DBAA66",
"e  c #D6A66A",
"r  c #D8A76D",
"t  c #DAAB6C",
"y  c #D9B16B",
"u  c #DCAE72",
"i  c #DEB272",
"p  c #DEB973",
"a  c #E5B166",
"s  c #E2B26F",
"d  c #E2B372",
"f  c #E3BB76",
"g  c #EEBD71",
"h  c #E4B678",
"j  c #E5BE7D",
"k  c #EBBD7B",
"l  c #E7C27B",
"z  c #ECC27C",
"x  c #FECE76",
"c  c #F7CE7C",
"v  c #FDCE7A",
"b  c #F6D07D",
"n  c #FED17C",
"m  c #CABD86",
"M  c #C8BC88",
"N  c #ECC482",
"B  c #EFCA85",
"V  c #EDC788",
"C  c #F4C784",
"Z  c #F3CA84",
"A  c #FBCD81",
"S  c #F3CB8A",
"D  c #F9CD8B",
"F  c #FDD483",
"G  c #FFD987",
"H  c #F4D18E",
"J  c #FDD58C",
"K  c #FFDB8C",
"L  c #FBDF8E",
"P  c #FFDD8C",
"I  c #FFDD8D",
"U  c #FFDC8C",
"Y  c #FFDE8D",
"T  c #FEDF8D",
"R  c #FFDD8E",
"E  c #FFDD8F",
"W  c #FFDE8E",
"Q  c #FFDF8E",
"!  c #FFDE8F",
"~  c #FEDF8F",
"^  c #FFDF8F",
"/  c #FCDC8F",
"(  c #FFDC8C",
")  c #E1D696",
"_  c #F4D190",
"`  c #FCD492",
"'  c #FBDE90",
"]  c #FDDD90",
"[  c #FCDF91",
"{  c #FFDE90",
"}  c #FFDF90",
"|  c #FEDE91",
" . c #FFDE91",
".. c #FFDF91",
"X. c #FDDD92",
"o. c #FFDD93",
"O. c #FCDF93",
"+. c #FFDE92",
"@. c #FFDF92",
"#. c #FEDE93",
"$. c #FFDF93",
"%. c #F9DB95",
"&. c #FCDE95",
"*. c #FFDE94",
"=. c #FFDF94",
"-. c #FDDF96",
";. c #FCDE96",
":. c #FFDF96",
">. c #FFDE96",
",. c #FDDC97",
"<. c #FEDE93",
"1. c #F7DF99",
"2. c #F8DF9D",
"3. c #FEDD9A",
"4. c #FBE08F",
"5. c #FDE18E",
"6. c #FFE08E",
"7. c #FFE08F",
"8. c #FFE18F",
"9. c #FEE28F",
"0. c #FFE08E",
"q. c #FBE292",
"w. c #FDE090",
"e. c #FCE190",
"r. c #FFE090",
"t. c #FFE190",
"y. c #FFE091",
"u. c #FEE191",
"i. c #FFE191",
"p. c #FDE092",
"a. c #FCE192",
"s. c #FFE092",
"d. c #FFE192",
"f. c #FFE093",
"g. c #FEE193",
"h. c #FFE193",
"j. c #FFE292",
"k. c #FFE393",
"l. c #FEE292",
"z. c #FBE197",
"x. c #FAE395",
"c. c #FDE094",
"v. c #FCE194",
"b. c #FFE194",
"n. c #FFE095",
"m. c #FEE195",
"M. c #FFE094",
"N. c #FFE394",
"B. c #FCE096",
"V. c #FFE296",
"C. c #FCE297",
"Z. c #FFE694",
"A. c #FEE093",
"S. c #F5E198",
"D. c #F6E39E",
"F. c #FFE198",
"G. c #FAE498",
"H. c #FEE39B",
"J. c #FFE89D",
"K. c #DDD3A0",
"L. c #FCE3A3",
"P. c #FFE7A7",
"I. c #FFE6A2",
"U. c #FFEEA1",
"Y. c #FFE9A4",
"T. c #F1E1AD",
"R. c #FDEDAA",
"E. c #FFEAA9",
"W. c #FFF6AA",
"Q. c #FFF9AD",
"!. c #FCEDB6",
"~. c #F4EAB9",
"^. c #FFF8B0",
"/. c #FFF7BB",
"(. c #FFF7BF",
/* pixels */
"v v n F G G 6.T 6.6.{ d.{ { C.C.{ -.-.-.-.{ d.d.[ C.d.[ { d.4.4.R 6.R 6.d.{ -.{ { d.{ { d.{ 6.{ { { { [ L Z.U.W.Q.Q.R.) m M K.~.",
"v v v x v b F F G ( R { d.d.C.{ d.-.{ { { { { C.{ { C.{ d.d.4.d.d.d.d.d.C.{ C.d.-.{ { d.d.{ { R -.C.-.C.4.4.a.x.G.S.D.R./.(.!.T.",
"n n n v x c v v c b A F J J ( K { { { { d.{ d.R d.{ { { { { -.{ { [ { { { -.{ { C.{ -.{ -.{ { { { { { { d.d.4.4.4.q.x.z.1.2.L.I.",
"v v n n n n n v n n v v v v v v F F ( ( R R 6.6.d.{ { { -.{ { { d.{ -.{ -.{ -.z.{ C.d.C.d.-.C.C.C.C.-.[ d.9.6.6.d.6.d.a.3.&.,.&.",
"x x v v v v v n x x n v v v v v v v c v v F ( K ( R 6.d.C.d.-.{ d.d.C.{ { { { -.-.-.-.-.z.&.z.{ { -.d.d.{ 6.R 6.T T R { { -.-.-.",
"n n v v v v v v v n v n v v v v n v v v v c v c b F G J ( T { X.{ { { d.{ C.{ -.-.{ -.{ -.d.z.C.{ R { d.d.R 6.R R d.C.{ [ { { -.",
"v x v v v v v v v v x x x x v x x v n v v v n v v v c c c F F F ( ( R R R { d.-.d.C.d.d.-.d.C.{ d.d.{ { { { d.C.R [ &.C.C.H.-.-.",
"G F v A v v v v n n x n v n v x x x x x v v n v n n v n v v v v c c b F G ( K ( { { { { { R 6.R { [ { -.-.{ -.{ C.C.{ C.{ z.{ C.",
"d.R R R G G F b b v v v v v v n n v v v v x v v v v n v v v v x n v v v v v c F F F G T R 6.6.d.{ { { &.-.-.-.C.{ -.-.d.{ d.{ C.",
"d.6.d.{ R R R R G G F F n v v c v v v n n v v v x v x x x x v n n n n n n n v v v c b n F F G T d.C.C.[ { -.{ -.{ { d.d.{ d.{ d.",
"a.{ { d.d.d.d.d.d.6.R R T ( G F c v v v v v v n v n n n n x v x v x v v v v v n n v v v v v b n F F G ( R d.R 6.{ { { R { 6.R 6.",
"-.-.-.-.{ { { { R d.d.6.{ R { R R ( J F F c c v v v x n x n n n n v v x x x x v n n v n v v n v v v v v n n G G R R d.6.d.6.6.R ",
"{ -.-.{ { { -.{ { [ [ d.{ { a.a.{ d.6.6.R T G ( G F c v v v v v v v v n v n v v x v v v n n n v x x x x x v v x v F F ( ( { d.C.",
"-.{ -.{ { { d.C.C.d.C.{ d.a.a.d.d.d.d.d.d.d.{ d.R ( ( ( G F A v v c c v x v v v n v v x v x v x x x x x x x v n v v v c c F F G ",
"{ 6.{ -.{ C.{ { { { { { -.{ { &.-.{ { R R 6.-.d.R { { d.C.R K ( G G F v v v x v v v v v v n n n v v n n n x x n n n v v v v v v ",
"d.d.{ { { -.{ C.{ { C.{ { { -.-.{ -.-.-.C.d.{ d.{ C.{ { { d.{ d.6.R R T G G F c v v v v n v v v v v v n n n n x v v F v v v v v ",
"{ { R R { C.{ { d.R d.d.d.6.d.d.{ -.{ { { { d.{ d.{ d.d.6.6.6.{ { { { { d.R 6.R ( ( F F b v v v n v n n b n x x x n x n n x n n ",
"C.{ -.{ { { { { d.R { d.R L R { d.{ d.6.-.d.{ C.{ { d.{ R d.d.{ -.-.{ C.d.d.d.d.6.d.6.R T J G F n v c x x v x n n x n n x n n n ",
"C.-.[ z.C.-.C.C.-.{ { -.d.C.d.-.d.a.6.4.d.6.{ d.{ d.{ { C.-.-.-.-.-.-.{ -.-.-.{ { { { C.d.d.d.R ( ( G F n n v v x n n n v F n n ",
"H.H.H.z.-.&.&.X.-.-.-.{ { { { R { 6.6.6.6.R { R -.{ d.-.{ -.-.-.-.d.{ C.-.{ -.{ -.-.-.-.{ { { { R 6.{ 6.( ( F F n b b b c c v F ",
"I.E.P.I.H.I.H.H.3.C.-.-.{ d.6.d.R K R R { { -.-.-.-.-.d.C.d.{ -.{ { { C.d.a.a.-.-.C.-.[ -.{ -.C.{ R { { { { { -.6.T R ( G J v v ",
"V H 3.J.I.I.I.H.H.J.H.C.3.&.a.a.X.X.X.{ { -.{ -.-.-.-.-.{ -.-.{ { d.d.R d.a.a.a.R a.a.-.C.-.-.-.C.d.{ R X.,.X.{ R C.{ J.H.F g a ",
"4 6 w s z F ,.3.H.J.P.P.Y.I.L.D.H.3.3.-.-.{ -.{ { { -.{ -.-.{ C.R R { R 6.d.d.4.d.a.d.-.d.{ X.R d.a.&.C.{ -.-.-.H.&.I.J.C C A X ",
"5 2 : 2 2 < 7 t f N H 3.H.Y.U.U.P.I.J.H.H.H.-.-.-.{ { { -.{ -.d.d.d.{ 6.6.6.4.4.4.R d.R { { { d.{ d.a.-.-.3.C.H.&.Y.J.l C C : o ",
"6 4 4 6 : 2 : : < < 0 y y l b G H.J.I.P.P.P.Y.H.H.z.z.C.C.d.R 6.d.[ [ a.{ R { d.{ d.6.6.R 6.R 6.{ d.d.d.[ z.[ H.P._ j D z - # + ",
"4 6 6 4 6 6 2 2 6 2 : : : 2 6 w y p l S %.H.I.Y.Y.J.J.H.C.C.d.C.H.z.d.z.z.{ { d.{ { { d.d.d.d.4.4.d.L d.&.H.&.Y._ l ` h # % - + ",
"3 3 2 2 3 3 2 3 6 6 6 6 6 2 2 2 4 < < 0 w i z Z ` -.J.J.Y.Y.I.J.H.H.C.&.&.-.&.-.3.-.{ [ L [ [ R { d.C.R H.J.U.B S ` 0 @ > > % @ ",
"3 3 3 3 3 3 3 3 2 2 2 6 2 6 3 3 5 2 2 6 5 : 2 < 6 w f N S 3.L.I.P.Y.Y.H.H.H.-.H.-.1.&.-.C.C.C.H.[ &.C.C.H.H.S N D 0 @ > > % > . ",
"5 5 2 2 3 2 3 2 3 3 3 2 3 2 3 3 5 5 5 2 5 5 5 6 4 < < < < w d k D ` 3.J.I.P.Y.J.H.H.H.H.%.&.&.C.H.-.H.J.H.N ` C * # - - # , =   ",
"9 4 6 6 2 6 3 6 2 2 2 6 3 3 2 2 3 2 2 5 4 5 6 4 9 4 5 5 5 2 2 2 4 q y l Z ` ,.H.H.Y.Y.J.J.H.H.H.1.I.Y.` D ` s $ $ > - & = > = = ",
"2 6 2 2 6 6 2 6 3 6 6 2 2 2 6 2 2 4 4 2 5 4 4 2 5 2 3 6 5 5 5 6 4 4 : : < 6 w d C H X.H.I.I.P.Y.E.I._ V ` y + * > $ ; - & = = & ",
"2 6 6 2 2 2 6 2 2 6 6 2 6 6 6 6 5 < 6 4 4 4 2 6 6 6 2 3 2 2 6 2 6 6 6 2 6 : : 6 < 6 w p l Z ` L.I.L.,._ 8 + - * * * & & * = = = ",
"4 1 4 4 4 4 4 4 4 4 4 4 4 4 4 4 6 6 6 2 6 6 6 6 2 2 2 3 2 6 6 2 5 4 6 6 5 4 6 4 2 6 2 : 2 6 y y l S j > $ - % > * * * % - - % * ",
"4 4 4 4 , 4 4 4 9 4 4 4 4 4 4 2 2 2 2 6 3 2 3 6 6 6 3 6 6 2 6 6 4 6 6 2 4 5 4 6 2 2 6 3 2 2 < 6 0 e < # * > - - - % % * * % % % ",
"4 4 3 4 4 4 : 4 4 4 4 4 4 4 4 2 2 2 6 2 2 2 6 2 2 3 6 3 3 6 6 2 6 6 5 6 4 4 6 2 2 3 6 6 6 6 6 6 t i 0 > - % & - * - - - % % % - ",
"1 4 1 , 4 4 4 4 : 4 4 4 4 4 4 6 2 2 2 2 6 2 2 6 2 2 2 6 2 2 6 2 6 2 2 6 4 5 6 6 3 3 3 2 6 6 6 6 e i 9 % $ * - - % - - % * * % % ",
"4 : 4 : 3 4 4 4 4 4 4 4 2 6 6 6 2 2 2 2 2 6 2 2 2 2 2 3 2 2 2 6 2 6 6 4 5 4 6 6 6 6 2 6 5 5 9 5 w i 8 % > - > $ * % & & % & % % ",
"4 1 : 4 1 4 4 : 4 : : : 6 < : : 3 3 2 6 2 2 2 2 6 2 2 2 2 2 2 6 6 2 4 5 4 4 4 4 4 4 6 6 9 5 9 9 e i 8 - - % - % % * % $ & % & $ ",
"4 4 4 : , 1 , 4 4 : 4 : 2 2 2 < 3 2 2 2 2 2 2 2 2 6 2 2 2 4 1 4 2 2 4 4 5 4 4 6 4 5 4 4 5 5 9 5 t u 9 - - % > - * % & * $ * $ & ",
", : 4 4 4 1 4 : 4 4 : 4 2 6 2 2 3 2 2 2 2 3 2 2 2 2 2 6 5 3 4 4 2 6 4 4 4 4 6 2 4 5 5 5 4 4 5 9 e u 0 % % - - - * $ $ * $ $ % & ",
"1 1 : : 4 4 1 1 : : 2 2 2 2 2 2 2 2 2 2 2 2 2 2 4 4 4 4 , 4 4 4 2 6 2 2 4 4 2 2 4 6 4 4 4 4 9 4 y p 0 % % % $ * % * % % * % % o ",
": 4 : 4 : : 1 , : 2 : 2 : 2 : 2 2 2 : 2 2 : 2 2 4 4 1 : 1 4 : 4 6 2 2 2 2 4 4 5 4 4 2 6 4 4 4 9 0 y 8 % * * % % % % % * $ % % * ",
"4 : : : 1 1 1 : : : : 2 2 : 2 : 2 : 2 2 : 2 2 2 4 1 4 : 4 4 4 4 6 2 2 2 < 4 4 5 6 2 2 6 4 4 4 9 0 p 0 % % - % * * $ % * % % $ $ ",
"1 1 : : 2 1 1 , : : : 2 : : : : 2 2 : 2 2 : 2 2 , 4 : : 4 1 1 4 2 2 2 4 4 4 4 4 2 6 2 2 2 4 4 4 0 u 6 * % % $ * % * % o % % * o ",
"1 ; ; : : : : : : : : : : 2 : : : 2 2 2 : : : 2 4 4 4 4 2 : 2 : 2 : 2 2 6 2 2 4 2 6 2 2 6 2 4 8 0 u 8 % % % % $ * % % * % % $ $ ",
"2 : 2 1 : : : : : ; : : : : : : 2 : 2 2 : 2 2 : < : : 4 2 2 2 2 2 2 2 : 4 2 4 4 2 2 6 2 2 6 4 4 0 i 8 % % * % * $ $ % o o % % o ",
"; ; ; 2 : : : ; : : : : : : : : : : : : : : : : : : : 4 2 4 2 2 6 2 2 2 : 4 2 2 2 2 2 3 2 2 6 : e u 8 % % % % * $ % $ $ % o % $ ",
"; ; ; ; : : 1 1 : : : : : : : : : : : : : : : : : : : : : : 2 ; 1 : 2 2 4 2 : 2 2 2 2 2 2 2 2 4 e u 8 % $ % % % * o $ $ $ $ $ $ ",
"; ; : : 1 : : 1 , ; ; 1 , 1 ; 1 1 1 1 1 : , 2 : ; : 2 : 1 : : 2 : : : : : 4 : 2 1 4 1 1 4 1 1 9 8 u 8 % # % % $ $ % & & X # $ $ ",
": ; ; : ; 1 , , ; ; , : ; , : : 1 1 1 1 1 1 1 1 2 : ; ; ; 2 2 : : : : : : 2 2 2 4 , 4 4 1 9 1 1 e r 8 % % % % $ $ # # & # & # # ",
"; ; : ; , ; 1 , 1 , 1 : ; , 1 : 1 1 1 1 ; 1 ; : 2 : : ; : : : 2 4 : 1 1 : : 1 : 1 1 4 1 9 1 , 9 0 r 8 # % $ % $ # # & # # # # X ",
"; ; ; ; ; ; ; 1 ; ; ; ; ; ; , , ; ; ; 1 ; 1 ; 1 : 1 2 1 1 ; ; 2 : : 4 : < : : : 9 1 1 1 3 9 4 1 0 y 8 # % $ $ @ & # # # # # # # ",
"; ; ; ; ; ; ; ; ; ; ; ; ; ; : , ; ; 1 * ; ; 1 ; ; : 2 2 ; ; ; ; : : 4 , 1 1 : : 1 1 1 4 4 1 4 1 8 u 8 # % @ $ % % # # # # # # # ",
"; ; ; ; ; ; ; ; ; ; ; ; ; 1 , 1 ; ; 1 1 1 1 ; 1 : ; ; : : : ; ; : : 1 1 1 , : 1 1 1 1 1 , 4 , 9 8 u 8 % % % @ % # # % # # # # # ",
"; ; ; ; ; ; ; , ; ; ; ; ; ; ; ; ; 1 ; ; ; ; ; ; : ; ; ; ; ; : : , , 1 : 1 1 4 , 4 , , 4 , 1 1 4 8 y 8 @ @ % # # % # # # # # # X ",
"= ; * ; ; ; * * ; * ; ; ; ; ; * ; ; ; ; ; ; ; ; ; ; : ; ; ; : : 1 1 , : 1 1 1 4 1 1 1 , 4 1 , , 8 u 8 @ % @ # % $ $ # # X # # # ",
"* * , , * * ; ; ; ; ; ; ; ; ; * ; ; ; ; ; ; ; ; , ; ; ; ; 1 1 ; , ; 1 1 ; 1 ; ; 1 1 1 1 1 8 4 8 8 m 8 # % # # # X $ @ # @ @ @ # ",
"1 * * * ; ; * * * ; * ; * ; ; ; * ; ; ; ; ; ; ; ; ; 1 ; ; ; ; ; ; ; , ; ; ; ; ; ; ; , 1 1 , , 1 8 r 8 @ % % # # $ # # # # X @ X ",
"* ; * * * ; * ; ; ; * * ; ; ; ; ; ; ; ; * * ; * ; ; ; , ; ; ; ; ; , ; ; : ; ; ; ; 1 ; , 1 , , , 9 r 8 X @ @ % @ # # # # # # @ X ",
"* * * ; * * ; * * * ; ; * * ; * * * ; ; ; ; ; ; * ; * ; ; * ; ; ; ; 1 ; ; 1 ; 1 ; , 1 ; , 1 1 8 9 r 8 @ @ % # # X # X # @ X # X ",
"* ; ; * * * ; ; ; * * ; ; ; * * ; ; * * * ; ; ; * * * ; ; ; * ; * ; * ; ; ; ; ; ; ; ; ; ; ; , , 8 r , X # # # @ X # # X X X X X ",
"; * * * * * * * * ; * * * * ; ; ; ; * ; ; * ; ; ; ; ; * * ; ; * ; ; ; * ; ; ; : ; , ; ; , , , , 8 r 9 X # # # @ # X # # X X X X ",
", , * ; * * * * * * * * * ; * ; * * ; * * ; * ; ; ; * ; ; ; * * , ; ; ; ; ; ; ; ; ; , ; ; ; , , 8 r 8 X # @ @ @ X # X X X X # % ",
", , 3 , , , * ; * * * * * * = = * * * * ; * ; * * * ; * ; * ; ; ; * ; ; * ; ; * ; ; ; ; , ; , > 8 r 9 X @ @ @ @ # X X % X X X > "
};
