/* XPM */
static char *ed86acd6afd646f49a0d8675c6b11143Sa2Yng6XM2QVlHA7[] = {
/* columns rows colors chars-per-pixel */
"64 64 254 2 ",
"   c #1A0000",
".  c #240200",
"X  c #2C0200",
"o  c #2B0D00",
"O  c #270D00",
"+  c #320D00",
"@  c #380600",
"#  c #341400",
"$  c #2F1100",
"%  c #431A01",
"&  c #4A2608",
"*  c #5B2C02",
"=  c #562905",
"-  c #5B3308",
";  c #543413",
":  c #632D04",
">  c #623204",
",  c #66360A",
"<  c #6D3B10",
"1  c #5E3A20",
"2  c #5D4415",
"3  c #6C430A",
"4  c #67471B",
"5  c #784C18",
"6  c #774708",
"7  c #694926",
"8  c #764C2B",
"9  c #76562D",
"0  c #785B37",
"q  c #6A562C",
"w  c #796337",
"e  c #6F6530",
"r  c #7B6043",
"t  c #813503",
"y  c #8A4E17",
"u  c #895626",
"i  c #995A24",
"p  c #A35D29",
"a  c #A35F32",
"s  c #8D6733",
"d  c #A7652B",
"f  c #AB6B34",
"g  c #A66738",
"h  c #B86D39",
"j  c #AB7535",
"k  c #B37336",
"l  c #B5743B",
"z  c #BB743B",
"x  c #BC7A3D",
"c  c #B67738",
"v  c #B06D27",
"b  c #C1763D",
"n  c #96714C",
"m  c #AB7547",
"M  c #B47542",
"N  c #BC7643",
"B  c #BC7B44",
"V  c #BC7D4C",
"C  c #B37A47",
"Z  c #A97C54",
"A  c #B27E54",
"S  c #A96F41",
"D  c #C27C44",
"F  c #C47D4A",
"G  c #C67945",
"H  c #D07F4A",
"J  c #B9823F",
"K  c #BD8343",
"L  c #BB8548",
"P  c #BC8453",
"I  c #B88858",
"U  c #BE945B",
"Y  c #AB8652",
"T  c #BB8B65",
"R  c #B99568",
"E  c #B08E6E",
"W  c #C38345",
"Q  c #C4834B",
"!  c #CB854C",
"~  c #C58B4D",
"^  c #CB8B4D",
"/  c #CB8346",
"(  c #D3894D",
")  c #C38451",
"_  c #CC8552",
"`  c #C48B53",
"'  c #CC8C53",
"]  c #CB8D5B",
"[  c #D38553",
"{  c #D18C54",
"}  c #D38D5A",
"|  c #DA8D5B",
" . c #DA8B55",
".. c #CB9353",
"X. c #CD935B",
"o. c #CC9C5C",
"O. c #C79755",
"+. c #D39354",
"@. c #DB9256",
"#. c #D4945B",
"$. c #DB955B",
"%. c #D49C5C",
"&. c #DB9C5D",
"*. c #D99A56",
"=. c #CC954E",
"-. c #E19C5B",
";. c #E69A5B",
":. c #E58F5C",
">. c #CCA25E",
",. c #D5A25E",
"<. c #DCA45D",
"1. c #D9A959",
"2. c #E2A35D",
"3. c #CD9C6B",
"4. c #C99968",
"5. c #D39664",
"6. c #DB9462",
"7. c #D49D63",
"8. c #DC9D63",
"9. c #D49D6B",
"0. c #DB9C6A",
"q. c #D49768",
"w. c #CA9D73",
"e. c #D59F74",
"r. c #C58D68",
"t. c #E29C63",
"y. c #E39E6A",
"u. c #E79B67",
"i. c #E59E70",
"p. c #CBA469",
"a. c #D5A364",
"s. c #DBA463",
"d. c #D4A965",
"f. c #DCA965",
"g. c #D5A46A",
"h. c #DBA46A",
"j. c #DDAB6B",
"k. c #D4A96D",
"l. c #DAB06C",
"z. c #CBA273",
"x. c #CAA778",
"c. c #D4A472",
"v. c #DBA373",
"b. c #D5AC73",
"n. c #DBAB73",
"m. c #D8A97A",
"M. c #DDB374",
"N. c #DAB17A",
"B. c #D9B877",
"V. c #CEB175",
"C. c #E2A365",
"Z. c #E3AB64",
"A. c #E3A56A",
"S. c #EBA56C",
"D. c #E3AB6C",
"F. c #EAAA6C",
"G. c #E9A664",
"H. c #F2A668",
"J. c #E8B26C",
"K. c #F4B36E",
"L. c #E3A572",
"P. c #E3AC73",
"I. c #EBAD73",
"U. c #E8AA78",
"Y. c #F3AD74",
"T. c #F7AA75",
"R. c #E4B373",
"E. c #EBB374",
"W. c #E5BA76",
"Q. c #ECBA77",
"!. c #EDB37A",
"~. c #ECBB7B",
"^. c #E4B77B",
"/. c #F2B375",
"(. c #F4B57B",
"). c #FBB57C",
"_. c #F3BB7C",
"`. c #FABC7D",
"'. c #F4BA76",
"]. c #EAC27D",
"[. c #E4C37C",
"{. c #F5C27D",
"}. c #D9AC84",
"|. c #D5B182",
" X c #E5AC85",
".X c #E8BA87",
"XX c #F4BC83",
"oX c #FDBD83",
"OX c #F7B986",
"+X c #E7BB91",
"@X c #F4BD9A",
"#X c #CB9F86",
"$X c #EBC382",
"%X c #EACA88",
"&X c #F4C382",
"*X c #FCC485",
"=X c #F4CA85",
"-X c #FCCA85",
";X c #FEC48B",
":X c #FDCB8B",
">X c #F4C78B",
",X c #F4D48D",
"<X c #FDD18C",
"1X c #ECCD9C",
"2X c #E9C895",
"3X c #F3CC94",
"4X c #FECC93",
"5X c #F3CC9C",
"6X c #FAC896",
"7X c #EDD39D",
"8X c #ECD69E",
"9X c #F3D395",
"0X c #FFD393",
"qX c #FFDA95",
"wX c #F2D49C",
"eX c #FED59A",
"rX c #FFDB9B",
"tX c #F5DB9A",
"yX c #EDD389",
"uX c #FFE39D",
"iX c #DECAA6",
"pX c #EACDA4",
"aX c #F8CFA2",
"sX c #EDD3A1",
"dX c #EBD8A8",
"fX c #F3D4A2",
"gX c #F3DAA5",
"hX c #FCDCA2",
"jX c #F3DCAA",
"kX c #FAD8A8",
"lX c #F7DCB3",
"zX c #ECE1AA",
"xX c #FFE3A2",
"cX c #FFE4AC",
"vX c #FFEBAE",
"bX c #F5E5AA",
"nX c #EFE1B4",
"mX c #FCE5B3",
"MX c #FEEBB3",
"NX c #F5ECBB",
"BX c #FEEDBB",
"VX c #F7E5B8",
"CX c #FDF0B6",
"ZX c #F6F2BC",
"AX c #FDF2BD",
"SX c #FFFABF",
"DX c #D6CA96",
"FX c #FDEDC2",
"GX c #FAEAC4",
"HX c #FEF3C3",
"JX c #FFFAC4",
"KX c #FFF3CA",
"LX c #FDF8C7",
"PX c #FFF9D0",
/* pixels */
"Q M } } z G _ { Y.oXC.#.+.P 7.cX;Xt./ _.0X-XrXrX0XQ.O.K ..Q.`.&.H.H.H.;.:.2.G.K.G.'.K.J.{.uX{.{.{.f.-X<XrXxXqXI U J X.) ] 6._ t.",
"6._ t.u. .! b / { /.#.k Q o.h.8./.Y.F.I.Q.&X=Xd.R.l.f.D.E.(.(.F.:.( ( :.;.H.-X<X*.J.Z.J.2.{.K.{.{.'.f.W.R.R.].U u L h...X.} h [ ",
"} _ Q F Q F N _ Y.Y.! k ' %.I.` &.(._.o.d.0XqXR.h.A.F.D.P.!.;XeX( ( H.oXH.$.*.W './...*.1.2.2.K.:XqXD.{.j.p.d.4.B.].f.X.OXOX[ | ",
"} F N f h { ! ! t.`.F.k x +.<XE.J XX0XXX>XrX4X_.A.oX).I.S.!._.oXG. .T.).+.{ G.F.*X{./ ( *.2.K.G.0X*XJ O.o.j.R.eXvX<X..l T. XG G ",
"$.} $.N l 6.$.k /.`.F./ +.2.0X*Xs.;X_.&X:XR.XXqXh.t.-.-.S.T.T.).oX_ F _ F #.(._.F./.#.-.-.+.K.).(.%.j ~ j.<Xa.~.;XhXoX5.| | F H ",
").S.y.! F oX4XI.*X~ c c *.-.-.*.E.R.O.&XrXj.o.<.! k b :.H.T.).).} N _ 0.6.5.8.) &.D.A.F.F.( H.oXoX+.c c #.&XL %.8.;XoX_ N t.i.| ",
"oXt.F f f 8.;XeXoXC.<.W =.K.-.2.<Xf.K ,.E.%.O.W z d H T.T.u.:.G t i ' i.#.X.7.A.D.(.F.#.C.!  .@.k d k k ' P.8.5.X.5.F a N 6.i.| ",
"oX| l p d f L E.F.%.2.W x ( v *.{.>.f.l.O.O.>.L D k  .H.:.(  .b G h l ! 8.(.oX(.U.*XI.k c x G p d c W k K %.:X4X#.` A H H H 6.T.",
"oX} d N #.' ..,.Q.*XR.=.Z.`.*.&.>X6XrX3XU Y Y J ` } 6.:.N a F _ i.0.{ _ _ I.0XQ 8.(.;X(.G a G H b C.&.d y i ) A.(.(.V } G | | 6.",
";XoX8.8.P.h.D.D.7.Q.*X*XXX{.&.D.wX3X|.$ 3 2 O s Z T S A G F V V ).S.#.y.+.N 0.S.' } #.:.G h b b t.$.C.S.C.k f Q A.S.Y.4XF N [ OX",
"OX6X(.5.%.8.D.D.Q.0X<XrX>XR.j.^.2X#X4 w zXzXe ; 4 4 1 g Z r.T S 0.u.} I.' i p B M h h F G N G h { ^ (.0X*XQ d F X.' (.6Xf i F @X",
"U.OXI.U._._.Q.f.*XrX<X>X^.n.m.}.x.n NXKXJXLXZXLXGXKXGX0 7 8 8 8 g m m ) i u 0.5.g F 6.u.G G H  .! ^ C.`.oXY.#.+.! F U.4XF f h S.",
"0.0.#.!.qX4X-XQ.j.<X^.%XaX|.z.$ w lXPXKXLXGXKXFXFXLXKXGXNXFXFXlX0 ; 7 4 X n }.r.u q.oX(.N h G H  .W #.+.h.F.8.8.F l ] (.L.] B !.",
" X6.M 8.;X*X_.Q.>.].b.%X5XR $ w nXKXGXKXGXKXHXHXFXGXLXKXKXKXKXKXdXpXVXVXq 4 4 4 5 @ n.v.S p G _ ' k &.^ _ @.6.oX8.X.} !.!.5.) OX",
" Xe.] P.:X*XQ.J.W.=XB.+Xx.2 0 nXKXHXKXLXHXGXKXNXFXBXBXKXAXBXNXBXKXBXLXKXBXVXBXBXlXq - 7 < < Z m...c ! ....C.A.(.;X;XOX;XOX5._ X.",
"6.0.X.A.{.-X-X$XqXqX|.|.0 pXpXlX1XsXgXbXAXZXAXMXHXBXHXAXNXLXHXLXGXAXBXLXHXHXnXnXnXiXdXGXGXGXr 1 5 5 y L P v.v.v.XXOX!.v.5.h.!.` ",
"V h.oX(.R.:XuX>XB.2X# 7 pXlXpXfX3XwXtXtXwX7X8X8XAXAXBXAXAXAXBXFXAXFXHXFXFXFXFXHXKXKXHXHXKXHXFXNXMXvXcXs 2 1 9 T w.I |..Xv.` U.(.",
"~ ^ y.A.4XrXvXcXp.$ r iXdXpX1X7X9X9X9XwXwX9X9X8XgXsX8XfXjXcXBXBXFXHXKXFXHXHXLXLXNXGXHXZXHXBXHXHXJXZXHXGXGXGXGXn 4 4 4 o 4. XS.$.",
"&.K N 5.+X%X3XgX7 w GXKXGXlXpXjX8X8XwX9XwXwXwXwX5X5XaXfXfXfXfXfX1XkXmXFXHXHXAXHXNXZXJXJXFXZXAXAXSXBXBXVXKXKXFXlXBXmXmXw o 3.D G ",
"E.+.F 5.}.R R s lXVXGXKXKXGXFXZXAXMXjX8XsXwXfXfX5X5X5X5X5XaXaXkXaXfXsX1XsXjXMXBXJXCXCXZXAXZXAXBXBXAXFXFXKXFXKXBXkXmXMXMX4 P ( u.",
"F.7.A.e.R o q bXKXKXKXKXKXKXFXHXHXAXBXHXBXmXjX7XgXfXfXaXaX5X5X5XfXkXfXfXsXsXfXgX8XsXjXbXZXAXSXSXBXBXBXBXVXHXJXAXMXwXfXx.* P 0.S.",
"F.A.5.A . q DXnXFXPXFXBXJXKXHXHXHXBXHXBXAXHXFXBXHXBXmXlXkXaXkXaX1XpXgXfXfX1X1X1X7X8X8XsX8XgXjXbXBXAXBXJXBXBXJXvXwX%XB.z.= I A.I.",
"&.E.A . 0 VXBXdXjXAXBXBXmXHXFXFXFXHXHXHXAXAXHXHXNXBXBXJXFXAXSXBX8XsXgXfXfXfXfXfX5X5XfX7X1X1X7XsXkX1XsXMXAXMXcX2Xn.h.n.p.- I n.oX",
"~ ^.T - 1XHXAXMXMXBXJXHXMXjXBXHXBXAXAXAXBXBXBXJXHXAXAXNXNXZXZXZXHXAXBXcXjXfXfXkXfXfX1X1XsXfXfXsX7X1XdX8XwXfX3Xn.7.s.g.p.; Z N.XX",
"M.>X}.- c.b.b.V.9XtXvXvXMXMXMXBXSXzXMXSXCXCXZXZXJXAXAXJXNXZXZXKXJXBXFXBXJXBXBXMXMXgX1XsXsXsXpXsXwX1X1XaX>Xc.0.y.F.A.P.3.- R g.h.",
",XvX+X, 9.a.f.f.k.V.V.V.B.%XhXMXvXvXvXAXSXCXbXCXAXSXSXHXLXLXLXLXBXBXBXBXAXHXJXHXNXZXAXBXBXlXjXjX8XgXfX2Xv.Q 0.A.&.&.a.p., Y q.8.",
"3XrXm.- 0.s.<.1.d.d.p.p.p.d.b.N.n.n.9XhXMXcXMXCXMXAXBXzXZXAXAXNXAXBXSXAXSXZXAXHXZXAXJXSXBXAXAXMXvX9X3Xv.V z t.A.&.s.s.g.* A { ! ",
"3X3Xz.* 7.<.1.1.,.a.h.s.d.f.f.f.7.L.a.a.n.b.b.3XMXMXMXMXBXSXAXzXBXJXAXJXZXZXZXZXJXSXZXNXBXBXBXBXvX9Xb.V l G y.C.&.C.Z.7.* 4._ b ",
":X>Xw.- 0.a.1.1.,.d.s.s.s.s.s.s.D.A.A.A.7.7.h.P.n.b.B.3XtXMXMXMXBXJXMXAXzXCXZXLXAXCXZXZXBXAXAXgX0XD.0.C B %.h.t.s.2.f.p., N.f k ",
"8.0.e.- a.,.1.Z.d.s.s.s.C.C.,.,.&.7.h.h.h.#.h.h.h.h.4.k.k.n.k.N.eXkXkXcXMXMXCXCXzXSXSXCXSXAXcXwXh.h.7.P a.s.%.8.&.C.d.p., z.i +.",
"B X. X: q.%.<.1.j.j.h.s.s.f.f.f.,.h.s.D.a.h.A.s.a.s.a.s.h.s.7.a.L.e. Xm.3X7XMXCXMXMXCXCXcXkX2Xb.7.s.j.7.j.f.7.h.#.<.,.a., c...`.",
"Q q.6X, 0.f.2.,.h.g.7.s.f.1.d.,.s.s.a.C.A.a.j.s.D.s.A.&.s.&.D.t.S.i.0.h.v.M.V.V.tXtXvXCXwXb.3.M.f.D.7.%.D.,.d.s.Z.s.,.d., .X*X'.",
"5.U.q.* %.<.C.f.s.h.h.C.<.s.d.g.s.s.s.s.s.s.s.s.s.s.s.s.<.s.C.s.y.h.h.s.h.a.s.g.a.p.g.g.h.d.a.a.h.s.C.t.2.<.<.f.,.,.j.g.- m.Q.(.",
"a. Xw.* s.G.<.s.s.h.s.s.<.s.s.s.s.s.s.s.s.s.s.s.s.f.,.s.s.s.s.s.h.h.h.s.s.s.s.s.s.s.f.s.h.f.s.7.h.h.s.C.2.<.<.,.,.,.a.g.* g.h._.",
"d.>X}.- s.Z.&.%.s.s.<.<.<.<.s.s.s.f.s.s.s.s.s.s.s.s.s.s.s.s.,.s.s.s.s.s.s.s.s.s.s.s.h.f.s.h.<.s.a.s.C.-.2.<.a.s.f.,.s.,.= O.` P.",
"=X0X4.* a.f.s.j.d.a.<.1.<.1.<.s.s.,.s.s.,.f.s.s.<.s.s.s.s.s.f.s.s.s.s.s.s.s.s.s.<.s.C.s.s.f.s.s.h.h.<.2.2.<.s.d.s.f.Z.%.= I I g.",
"-X&XZ * >.,.s.j.g.d.s.<.,.,.s.s.s.s.s.s.f.s.s.<.s.s.s.s.s.s.s.s.s.s.s.s.s.s.s.s.s.s.a.s.h.f.s.s.C.s.s.<.2.<.s.s.a.%.a.a.> ` 9.q.",
"s.M.m - a.s.s.g.g.h.s.s.s.s.s.f.s.s.s.<.s.s.s.s.s.s.s.s.s.s.s.s.s.s.s.s.s.h.s.s.s.<.h.s.C.s.7.s.C.s.<.<.2.<.t.s.h.7.D.g.: 4.U.] ",
"8.L.Z - h.A.g.h.h.h.C.<.s.d.g.d.s.f.s.s.s.s.s.s.s.s.s.s.s.s.s.s.d.s.h.s.s.s.f.s.s.s.s.h.s.s.s.s.<.s.s.<.<.s.s.s.A.#.9.3.=  XU.q.",
"4.@X#X, h.Z.0.A.0.h.t.C.h.d.h.h.s.s.s.s.s.<.s.s.s.s.,.f.<.s.s.s.s.s.s.s.s.s.s.s.s.s.s.f.f.s.s.7.s.<.<.s.<.2.2.C.A.M L e.> OXOXoX",
"I 6X@X: $.2.&.A.A.D.8.8.h.g.7.&.s.<.<.s.D.f.s.s.s.s.f.s.<.s.f.s.s.s.s.s.s.s.s.s.j.%.%.s.j.s.s.f.f.s.s.&.G.G.&.&.L C m m : e.(.T.",
".XlX+X: 8.G.F.G.$.A.8.#.D.A.s.8.%.,.s.s.%.,.<.7.s.,.s.s.s.s.,.s.h.s.s.s.s.s.s.s.D.s.s.f.s.s.s.f.s.a.Z.<.C.C.&.L P 9.V , ) y.6.y.",
".XcXaX: ,.Z.#.C.A.G.C.s.A.%.C.h.&.h.s.,.%.s.f.A.s.s.s.s.s.s.s.s.h.s.s.s.s.s.s.s.D.f.s.s.s.%.a.s.a.h.s.&.8.! x ) X., * V t.u.L.!.",
"M.4X6X: o.f.o.a.&.2.<.f.<.<.s.&.f.f.C.s.s.,.s.s.s.s.s.s.s.s.s.s.s.s.s.s.s.s.s.s.f.h.s.s.s.s.s.s.g.h.A.7.V #.F 6.y A ] |  .t.!.XX",
"j.OXe., 4.x.z.3.o.s.a.,.=.f.d.a.%.,.s.f.s.7.<.s.s.s.s.s.s.s.<.s.f.s.s.s.s.s.s.s.s.a.s.s.s.s.s.s.s.h.D.Q V I M < g ) ! G ( -.8.h.",
"#.8.0.5., = - 9 Y x.p.k.k.j.g.a.D.s.#.s.f.Z.h.f.s.s.s.s.s.s.s.s.s.s.h.a.s.s.s.s.7.s.s.7.s.s.,.%.C.7.M S A 4.< f M F { @. .;.L.U.",
"! / [ u.U $ . + & ; & 7 Y R z.z.a.%.<.s.s.s.s.<.s.s.s.s.s.s.h.s.s.s.s.f.s.s.s.s.s.s.s.<.s.f.#.! -.x ) 4.< 1 A F [ Y.;./ ;.K.I.;X",
"@./ | ).^.m.+X|.iX$   O & - * * u m 4.g.p.4.0.g.h.s.a.s.C.s.a.h.s.s.s.d.s.s.h.C.C.C.s.s.f.A.X.K x J r.5 + T OXU.u.;X@.k @.G.5.U.",
"/ D *X:XD.j.b.^.%XwXB.z.c.L % X X % & ; 0 Z w.w.w.g.v.h.y.y.v.j.f.j.s.f.,.&.A.C.&.S.&.#.Q #.F N x j 3 [.$X.X0XeXh.Y.+.( C.-.u.oX",
"$.#.-X0X*XD...O.,XuX=X{.D.8.[ F  X#X% E # # = - = 9 Z q.0.e.9.g.a.f.d.h.a.s.s.C.C.s.t.0.V N h B o.3 <X=Xo.d.O...E.E.&.&.W k z t.",
"*X(._.&X-XR.o.d.uXxXuX-X`.S.T.y.0.e. Xv.c.U % A @ X = = ; 8 Y z.x.c.e.0.a.A.h.h.f.I.A.A.y.Q N M 6 l.qX-XO.f.<.%._./.&.8.{ k x F.",
"0X-XR.W.Q.j.].<X%X].W.O.8.:. .! D 8././.U.D.5.c.+X}.T @ X o & ; & ; 8 Z 4.g.r.x.k.p.3.c.P q.k < h.j.*XQ...(.*XE.+.s.+.8.oX/.t.*X",
"{.$X[.[.l.f.<XqXd.>.O.~ { @. .h / $.{.E.%.o.o.d.U.^.h.n..Xk.V.x.+ . O & ; & 1 Z x.w.w.4.4.3 = m./.F.D.F.#.Z.*X(.' C.#.( /.`.F.`.",
"[.$XyX[.1.l.:X{.[.l.>.o.$.S.;.b ( -.Y.C.j.d.j.].Q._.G.,.l.M.B.4.w.R E E +   . ; 1 , & - 3 p.4.b.E.(.#.8.+.#.F.Y.8.C.Z.{ ! C.)./.",
"%XyXyX[.l.~.:XR.d.d.s...! t.C.( +.*.$.A.*X:X<X=X>X:X_.a.R.qX:Xo.M.n.T R m.OXU.r.m m X @ e.0...#./.{.Z.D.I.8.&.A.' ^ I.I.A.(.*X/.",
"].tX,X[.$XuX<XD._.W.].f.%.E.:X(.C.@.W s.-X0X{.W.*XqX4Xd.M.qXeX] #.X.K ` A.!.5.g a g g } S.F.F.E.oX;X(.A.qX:XA._.'.%.D./._.`.(.Z.",
"[.B.,XW.qXQ.&.`.{.=X&XQ.D.*XrX-X#.( b K ,.qXuX,XxX0X^.n..XhXeXE.x W W B j.>X` i l _ ! [  .u._.D.R.j.E.{.E.E.*X0XrXoXF.(.;XF./.C.",
"].=XuXqXrXE.C.R.j.$X=XW.D.~.=X{.^ D W =.l.{.uX,XqX$Xk.a.R.&X_.C.#.#.$.s.:X4X` f / D h b $./.XXE.j.d.a.>.f.&X-XE.&XD.a.Z.s...A.D.",
"W.=XrX:Xj.K ~ ..>.].=XW.&X-XR.D./ +.<.O.>.B.uX,Xj.d.f.R._.Q.Q.*XW W *.E.eX;X~ K 8.Q c W $.C.D.<X&X=X&XR.d.R.~.R._.E.,.D.D.C.C.&.",
"j.=.a.R.f.%.s.a.<XuX,XW.<X:Xo.~ W u.D.M >.].uX=X>.a.Z.{.;X_.!.*XG.*.%.F.*Xa.` I.8.Q x K Z.`.`.xX:X_.~.~.R.s.R.{.:X*Xs.s.f.E.&.7.",
"#.f L J._.oXF.R.uXuX].l.*X;XD.f.OX;XOX) .X;X>Xj.~.j.X.%.R.E.D.C.(.U.L.:X:XD.s.;X].*.J J J.qX'.J.uXD...D.!.D.%...0XrXE.%.%.D.s.-X",
"s.W ~ ,.Z.(.%._.=X=XW.M.R.D.*X:X8.L.0.0.OXA.0.F.(.h.~ L #.E.{.;X0.0.P.4XeXE.f.K.J.=.=.1.{.{.J.J.*X#.K %.Z.C...x *X0XQ.C._.*XD.*X",
"(.E...=.C.`.&.`.0X=XR.&Xa.~ E.E.C.t.E.*X/.&.$.S.! ^ ( ^ / #.{.rXXX^.h.L.t.+.8.Z.Z.1.l.{.D.L Q ) x z / #.#.&.C.&.F.h.h.s.;X-Xf.a.",
"_.xXR.X.#.&.W h.qXQ.d.{.s.L *XE.;X/.*X0X'.(./.-.@.-.T.).C.s.E.:XeX6Xv.#._ +.oX-X].{.qXuX{.D.D.K $.;./.).S.C.S.S./.&.F.f.E.E.E._."
};
