/* XPM */
static char *_1eba637cfe44d45e1ae98786e873e52L5xzPnoNPRafBgvN[] = {
/* columns rows colors chars-per-pixel */
"64 64 247 2 ",
"   c #030B79",
".  c #0A1175",
"X  c #1E5C78",
"o  c #317678",
"O  c #3A827F",
"+  c #4C8E7A",
"@  c #60967F",
"#  c #02038C",
"$  c #020B8B",
"%  c #060C87",
"&  c #031786",
"*  c #020694",
"=  c #020B93",
"-  c #01059C",
";  c #0B059A",
":  c #030B9C",
">  c #090C9C",
",  c #0A0995",
"<  c #00149C",
"1  c #041394",
"2  c #191599",
"3  c #0B2995",
"4  c #262D90",
"5  c #0204A3",
"6  c #030AA1",
"7  c #0A0AA5",
"8  c #0104AD",
"9  c #020CAB",
"0  c #0B0BAC",
"q  c #0D06A6",
"w  c #0113A5",
"e  c #0312AA",
"r  c #0716AD",
"t  c #1115AE",
"y  c #0202B3",
"u  c #010CB3",
"i  c #0509B8",
"p  c #0012BB",
"a  c #0618B8",
"s  c #1119BC",
"d  c #1308A6",
"f  c #0424B9",
"g  c #132DAF",
"h  c #2739AC",
"j  c #2536B3",
"k  c #2B2EAE",
"l  c #2D678E",
"z  c #2947B4",
"x  c #354BAC",
"c  c #3A7FA6",
"v  c #1342B6",
"b  c #595ABD",
"n  c #4655A6",
"m  c #4959A4",
"M  c #020BC8",
"N  c #031AC8",
"B  c #041BD5",
"V  c #1116C7",
"C  c #0824C8",
"Z  c #1828C8",
"A  c #0C30CC",
"S  c #0322DC",
"D  c #0B22DC",
"F  c #0926D7",
"G  c #1729D9",
"H  c #1933D9",
"J  c #1432C6",
"K  c #222CCB",
"L  c #2232CB",
"P  c #2324DC",
"I  c #2C2BDD",
"U  c #212CDB",
"Y  c #362CDE",
"T  c #2735D5",
"R  c #051AE8",
"E  c #191CE5",
"W  c #0B24E4",
"Q  c #0B2BE3",
"!  c #0927E7",
"~  c #1C2BEC",
"^  c #1728E5",
"/  c #1833E6",
"(  c #0F24F1",
")  c #1B2BFC",
"_  c #1528F3",
"`  c #1635F0",
"'  c #2D2EE4",
"]  c #252CEC",
"[  c #2226E8",
"{  c #2433EC",
"}  c #2934E4",
"|  c #3434E8",
" . c #292CF2",
".. c #2636F9",
"X. c #3538F2",
"o. c #312CE1",
"O. c #403EC5",
"+. c #2D56C4",
"@. c #3654C6",
"#. c #3645D4",
"$. c #3145E8",
"%. c #3D69C8",
"&. c #455AD8",
"*. c #4E51D3",
"=. c #5A66CA",
"-. c #536BD7",
";. c #6366C5",
":. c #6A68DB",
">. c #6D78CC",
",. c #565CF2",
"<. c #605EE3",
"1. c #596BF0",
"2. c #6667EB",
"3. c #787BE7",
"4. c #6776F3",
"5. c #7779FA",
"6. c #656EED",
"7. c #8279E6",
"8. c #3A8385",
"9. c #519889",
"0. c #538E91",
"q. c #679B8A",
"w. c #5BA497",
"e. c #66A79A",
"r. c #75AD97",
"t. c #5592A8",
"y. c #6B9DA8",
"u. c #6895BF",
"i. c #5CAEA9",
"p. c #66A7A4",
"a. c #78ABA5",
"s. c #78BAA8",
"d. c #7ABCB6",
"f. c #73B0AB",
"g. c #79C2AD",
"h. c #79C7B6",
"j. c #5F93C5",
"k. c #708FCC",
"l. c #78AAC9",
"z. c #7489FF",
"x. c #659DFF",
"c. c #6F8EEE",
"v. c #7EB5F5",
"b. c #76B2EC",
"n. c #86BBB7",
"m. c #8EBCAF",
"M. c #89B39F",
"N. c #8CC4A6",
"B. c #87CAB8",
"V. c #95C9B9",
"C. c #8DD4BE",
"Z. c #95D4BC",
"A. c #9196D4",
"S. c #9897DB",
"D. c #8B92D6",
"F. c #92B8C8",
"G. c #9999E7",
"H. c #979AF9",
"J. c #8C91F9",
"K. c #A19BFF",
"L. c #83ABFF",
"P. c #99A6FF",
"I. c #88B2FF",
"U. c #96B8FF",
"Y. c #8DB5EB",
"T. c #A6A8FC",
"R. c #AAB5FF",
"E. c #B5BAFE",
"W. c #B7B9FB",
"Q. c #B4B2F2",
"!. c #98C9C6",
"~. c #8DD3C3",
"^. c #8ED8C9",
"/. c #92DDC5",
"(. c #97D6C9",
"). c #8DD5D5",
"_. c #98DBD5",
"`. c #8FCBCC",
"'. c #A6D6C9",
"]. c #B7DECB",
"[. c #AAD8D5",
"{. c #AAD0D1",
"}. c #9BE2CB",
"|. c #9AE2D4",
" X c #A8E5D4",
".X c #B9E8DA",
"XX c #B1E9D3",
"oX c #99D6EF",
"OX c #A8C7FF",
"+X c #B8C7FC",
"@X c #B6D7FA",
"#X c #AADCF2",
"$X c #B9E9E5",
"%X c #ADE2EB",
"&X c #C5D6D8",
"*X c #C9E8DA",
"=X c #D1E6DF",
"-X c #C2C3FA",
";X c #CBCCFF",
":X c #C3C8F7",
">X c #D3CEFF",
",X c #CBD5FF",
"<X c #D3DBFF",
"1X c #D6D7FF",
"2X c #C2D2E9",
"3X c #E2DAFF",
"4X c #C8E9FB",
"5X c #DCE4FF",
"6X c #DCECFF",
"7X c #D2E9F9",
"8X c #CCF7F9",
"9X c #DDFDFF",
"0X c #D8F6FC",
"qX c #D0F1E7",
"wX c #E9FFEA",
"eX c #FCFEEE",
"rX c #F5FAE9",
"tX c #E3E5FF",
"yX c #E5ECFF",
"uX c #EBECFF",
"iX c #EBEAF8",
"pX c #F2EDFF",
"aX c #E3FFF5",
"sX c #ECFEF5",
"dX c #E4F3FF",
"fX c #ECF3FF",
"gX c #E4FEFE",
"hX c #ECFEFE",
"jX c #F4FDF5",
"kX c #FEFFF4",
"lX c #F4F5FE",
"zX c #FCF5FE",
"xX c #F5FDFE",
"cX c #FFFFFD",
"vX c #FEFFFD",
"bX c #FFFDFF",
"nX c #FFFCFF",
"mX c #FCFFFF",
"MX c #FCFEFF",
"NX c #FEFEFF",
"BX c #FFFEFF",
"VX c #FEFFFF",
"CX c white",
"ZX c #FEFEFE",
"AX c #FDFDFD",
"SX c #FEFEFE",
"DX c #F5F4F6",
/* pixels */
"CXCXCXCXCXCXCXCXCXCXCXCXCXCXCXCXCXCXkXkXkXkXkXkXCXCXCXCXCXAXkXAXCXCXCXCXAXAXkXAXCXAXCXnXnXCXnXCXCXCXCXCXCXCXCXCXCXCXCXCXCXCXCXCX",
"CXCXCXCXCXCXCXCXCXCXCXCXCXCXCXCXCXCXCXAXkXkXkXAXCXCXCXCXCXAXAXkXCXCXCXCXkXAXkXAXkXAXCXCXnXnXCXCXnXCXCXCXCXCXCXCXCXCXCXCXCXCXCXCX",
"CXCXCXCXCXCXCXCXCXCXCXCXCXCXCXCXCXCXCXAXAXAXkXAXAXAXCXAXAXkXkXkXAXAXAXkXkXkXkXAXAXAXCXCXCXCXnXCXCXCXCXCXCXCXCXCXCXCXCXCXCXCXCXCX",
"CXCXCXCXCXCXCXCXCXCXCXCXCXCXCXCXMXCXCXCXCXCXCXCXCXAXCXAXAXCXCXCXCXCXAXAXAXAXAXCXCXMXCXCXCXCXCXAXCXCXCXCXCXCXCXCXCXCXCXCXCXCXCXCX",
"CXCXCXCXCXCXCXCXCXCXCXCXCXCXCXCXCXMXMXMXMXMXMXMXCXMXCXCXCXCXCXCXCXCXCXCXCXCXCXCXCXMXCXMXCXAXkXAXAXCXCXCXCXCXCXCXCXCXCXCXCXCXCXCX",
"CXCXCXCXCXCXCXCXCXCXCXCXCXCXCXCXAXMXMXMXMXMXCXCXCXCXCXCXCXCXCXCXMXCXCXCXCXCXCXCXCXCXMXMXMXAXAXAXAXCXCXCXCXCXCXCXCXCXCXCXCXCXCXCX",
"CXCXCXCXCXCXCXCXCXCXCXCXCXCXCXCXAXCXCXnXCXMXnXCXkXkXkXkXkXkXAXAXkXkXkXkXAXAXCXMXCXAXAXAXAXAXAXAXCXCXCXCXCXCXCXCXCXCXCXCXCXCXCXCX",
"CXCXCXCXCXCXCXCXCXCXCXCXCXCXCXCXAXAXCXCXCXCXCXCXAXkXeXeXeXkXkXkXkXeXkXkXkXAXAXCXAXAXkXAXAXAXCXCXCXCXCXCXCXCXCXCXCXCXCXCXCXCXCXCX",
"CXCXCXCXCXCXCXCXCXCXCXCXCXCXCXCXzXkXCXnXnXnXnXCXkXkXkXkXkXAXAXCXkXkXAXCXzXCXzXnXAXAXAXkXCXAXCXCXCXCXCXCXCXCXCXCXCXCXCXCXCXCXCXCX",
"CXCXCXCXCXCXCXCXCXCXCXCXCXCXCXCXCXnXAXkXzXnXnXCXnXAXnXkXkXnXCXCXCXCXCXnXlXCXCXAXAXkXkXAXkXCXCXnXCXCXCXCXCXCXCXCXCXCXCXCXCXCXCXCX",
"CXCXCXCXCXCXCXCXCXCXCXCXCXCXCXCXCXkXkXkXAXAXAXCXnXDXlXCXCXnXzXMXDXMXnXnXCXCXCXMXAXkXkXkXkXnXnXnXCXCXCXCXCXCXCXCXCXCXCXCXCXCXCXCX",
"CXCXCXCXCXCXCXCXCXCXCXCXCXCXCXCXzXkXnXAXkXAXkXCXCXCXMXCXMXlXMXMXMXCXxXzXMXlXzXCXkXkXkXkXAXCXzXnXCXCXCXCXCXCXCXCXCXCXCXCXCXCXCXCX",
"CXCXCXCXCXCXCXCXCXCXCXCXCXCXCXCXnXnXCXAXkXeXjXAXlXCXMXxXfXxXMXjXxXxXxXxXMXMXMXkXeXeXeXkXAXCXnXnXCXCXCXCXCXCXCXCXCXCXCXCXCXCXCXCX",
"CXCXCXCXCXCXCXCXCXCXCXCXCXCXCXCXCXCXnXkXkXkXAXAXlXfXfXxXlXlXhXfXhXxXlXlXfXfXMXxXAXkXeXkXAXCXnXnXCXCXCXCXCXCXCXCXCXCXCXCXCXCXCXCX",
"CXCXCXCXCXCXCXCXCXCXCXCXCXCXCXCXzXCXAXjXAXxXxXfXT.:.*.2.2.<.2.2.2.2.<.<.:.>.>XzXMXMXAXkXkXAXCXCXCXCXCXCXCXCXCXCXCXCXCXCXCXCXCXCX",
"CXCXCXCXCXCXCXCXCXCXCXCXCXCXCXCXAXCXAXMXxXhXyX;X% > 0 M y M i 8 y y i V 7 # 4.tXxXlXxXCXkXkXCXCXCXCXCXCXCXCXCXCXCXCXCXCXCXCXCXCX",
"CXCXCXCXCXCXCXCXAXCXCXCXAXAXAXkXMXlXnXlXJ.&.,.u C T A A ` _ [ P [ G G } ^ / e $.,.3.>XCXAXeXxXMXCXCXCXCXCXCXCXCXCXCXCXCXCXCXCXCX",
"CXCXCXCXCXCXCXCXCXAXAXCXjXAXAXAXAXCXpX-X< B M ^ Z r f w C p f J s s s a a C / C M q T uXjXrXxXMXCXCXCXCXCXCXCXCXCXCXCXCXCXCXCXCX",
"CXCXCXCXCXCXCXCXCXAXAXCXkXkXCXAXjXjXS.% D ^ ~ V 1 4 h h j z g 3 h h g k j 1 < H W ..V 2 ;XCXMXMXCXCXCXCXCXCXCXCXCXCXCXCXCXCXCXCX",
"CXCXCXCXCXCXCXCXCXAXCXCXCXCXnXnXCX:X% T B ^ L 1 P.dXdXyX5X0Xb.8.@X0XxX<XdXyXz 1 / B X.d >.lXlXzXnXCXCXCXCXCXCXCXCXCXCXCXCXCXCXCX",
"CXCXCXCXCXCXCXCXCXDXCXCXAXAXCXzXpX3X* G B H % >.k.@XlXzXnXhX^.O qXzXxXxXhXF.u.z e G E * 7.zXzXCXCXCXCXCXCXCXCXCXCXCXCXCXCXCXCXCX",
"CXCXCXCXCXCXCXCXCXAXCXCXjXCXCXnXzXK.9 G H 1 k.k.y.0.7XMXkXxXg.+ =XkXwXwXV.+ f.j.z w | 0 *.tXzXzXCXCXCXCXCXCXCXCXCXCXCXCXCXCXCXCX",
"CXCXCXCXCXCXCXCXCXCXCXAXCXCXMXuXG.* C A % Y.0X!.e.e.9..XjXwX}.O qXsXwXN.q.r.y.8X7Xx # T : z 5XfXMXCXCXCXCXCXCXCXCXCXCXCXCXCXCXCX",
"CXCXCXCXCXCXCXCXAXAXCXnXnXCXDX>X% T C f +XgXxXhXs.f.M.@ *XqXg.w.{.aXN.+ s.q.2XhXxX6Xz.6 } < n xXMXCXCXCXCXCXCXCXCXCXCXCXCXCXCXCX",
"CXCXCXCXCXCXAXAXCXCXCXCXCXzXCX:X> } p 4.hXCXkXkXgX'.r.V.N.M.g.h.d.`.s.r.r.=XCXzXzXzX,Xw H 6 ;.xXMXCXCXCXCXCXCXCXCXCXCXCXCXCXCXCX",
"CXCXCXCXCXCXAXAXCXAXCXCXCXMXCX-X7 X.6 4.AXzXzXnXxXgX!.s.C.Z.B.^.`.~.B.q.=XkXkXzXkXCX,X* I a =.fXMXCXCXCXCXCXCXCXCXCXCXCXCXCXCXCX",
"nXCXCXCXCXAXAXCXAXAXCXCXnXzXAX-X; X.u 4.MXCXzXzXsXxX9X].g.C.'.C.).~.C..XhXkXrXrXiXMX1X# Y d ;.zXnXCXCXCXCXCXCXCXCXCXCXCXCXCXCXCX",
"CXCXCXCXCXAXAXCXAXAXCXCXnXnXCX-X; ' i &.dXxXMXxXxXgXgX0Xg.B. X(.}.B.'.gXaXsXrXsXhXgXE., Y d b xXMXCXCXCXCXCXCXCXCXCXCXCXCXCXCXCX",
"CXnXCXCXCXAXAXkXAXAXCXCXnXnXnX-X, ' B g +X4X4X$X$X.X*X X/./././.C. X%X X'.Z.Z.Z.F.Y.6.9 o.7 =.dXxXCXCXCXCXCXCXCXCXCXCXCXCXCXCXCX",
"CXCXCXCXCXAXAXAXAXAXCXCXCXzXCX-X# { W f Y.!.`.n.N.N.V.M.}./././.~.(.(.m.V.r.e.9.o t.x w P 8 =.hXMXCXCXCXCXCXCXCXCXCXCXCXCXCXCXCX",
"nXCXCXCXCXAXAXkXAXCXCXCXCXzXCX-X* { N L W.&X&X&X*X].*X'.N.V.|._.|.C.V.&X&X*X*X*X.X#Xc.# I 0 ;.hXMXCXCXCXCXCXCXCXCXCXCXCXCXCXCXCX",
"CXCXCXCXCXAXAXAXAXAXCXCXzXMXCX+X: ..M 1.nXCXzXxXhXsXjXhXM.(.(._.(.(..XaXxXCXCXlXxXsX,X% | 0 b lXCXCXCXCXCXCXCXCXCXCXCXCXCXCXCXCX",
"CXCXCXCXCXCXCXCXlXCXCXCXnXAXAXW.6 ] M 5.nXkXDXxXxXxX0X*XZ.Z.|.^.}.^.$X$XhXkXnXnXlXhX<X* ' 0 ;.lXnXCXCXCXCXCXCXCXCXCXCXCXCXCXCXCX",
"AXAXCXCXCXCXCXCXAXCXCXzXCXAXAX-X: X.i 5.pXkXCXxXhXgXm.(.}.h./.|.^.^._.(.qXsXnXnXCXMX,X$ | y ;.zXCXCXCXCXCXCXCXCXCXCXCXCXCXCXCXCX",
"AXAXCXCXCXCXCXCXCXCXMXnXCXnXCX:X$ T y 5.zXAXkXxX9X[.'.Z.w.i.h.~.s.w.f.[..X].sXjXzXMX>X# ' 8 ;.lXCXCXCXCXCXCXCXCXCXCXCXCXCXCXCXCX",
"AXAXCXCXCXCXCXCXCXCXCXCXCXzXlX:X  $.i ,.lXpXxX9Xm.'.V.Z.p.O p._.s.9.f.B.'.!.].gXMXiX>X; ' a b lXzXCXCXCXCXCXCXCXCXCXCXCXCXCXCXCX",
"AXAXAXCXCXCXCXCXCXzXCXCXCXMXzX5X  6 ] i 5.;X7X[.!.V.V..Xh.8.i.oXg.9.$X!.a.`.!.!.+XW.*.0 G r >.xXMXCXCXCXCXCXCXCXCXCXCXCXCXCXCXCX",
"AXAXCXCXCXCXCXCXCXAXCXzXCXzXCXlX<X@.y [ i $ R.#X!.!.8X9Xf.8.t.).i.9..XgX{.p.oXl.x $ d Z r J.uXzXCXCXCXCXCXCXCXCXCXCXCXCXCXCXCXCX",
"CXCXCXCXCXCXCXCXAXAXCXAXCXCXCXCXnX+Xe { } f 1.L.l.8X9X9Xd.o i.).i.o qX9XgX_.j.c.g L Z t =.hXlXCXCXCXCXCXCXCXCXCXCXCXCXCXCXCXCXCX",
"CXCXCXCXCXCXCXCXCXxXCXMXCXMXzXzXnX>X, { N Q N < 6X0XhXgXl.8.l.oXb.l 4XgXhX9XL.$ J V K * k.hXnXnXCXCXCXCXCXCXCXCXCXCXCXCXCXCXCXCX",
"CXCXCXCXCXCXCXCXCXCXCXCXCXCXCXCXzX3X% 5 { D F C z.+XW.-Xc.%.x.v.x.v I.+X+XE.@.f J f T , D.fXkXzXCXCXCXCXCXCXCXCXCXCXCXCXCXCXCXCX",
"CXCXCXCXCXCXCXCXCXCXCXCXCXCXCXCXzXzX:X*.- U $.G 9 7 ; ; : : e r a A : w 7 > r Z Z #., J.pXnXzXnXCXCXCXCXCXCXCXCXCXCXCXCXCXCXCXCX",
"CXCXCXCXCXCXCXCXCXCXCXCXCXCXCXkXkXAXxX6X  ; # 9 I X.Y o.G G / G G N Z T I o.Z 0 * % c.zXnXkXeXkXAXAXCXCXCXCXCXCXCXCXCXCXCXCXCXCX",
"CXCXCXCXCXCXCXCXCXCXCXCXCXCXCXAXkXrXxXfX>XW.E.*.0 I I | B C F F G Z T T P | 0 J.T.T.zXzXDXrXkXkXAXAXCXCXCXCXCXCXCXCXCXCXCXCXCXCX",
"CXCXCXCXCXCXCXCXCXCXCXCXCXCXCXCXCXMXMXxXzXzXpXiX2 # 1 * 8 N 9 e u - w = 7 % H.lXzXzXpXzXMXMXnXzXAXCXCXCXCXCXCXCXCXCXCXCXCXCXCXCX",
"CXCXCXCXCXCXCXCXCXCXCXCXCXCXCXCXMXxXxXxXzXzXCXzX<XT.W.P.c.+.+.+.+.&.z.R.T.R.xXzXzXzXCXCXhXxXzXkXCXCXCXCXCXCXCXCXCXCXCXCXCXCXCXCX",
"CXCXCXCXCXCXCXCXCXCXAXAXAXAXAXAXCXMXjXMXCXnXMXjXxXxXxXhXl.X o X X l 0XgXxXxXlXnXzXkXCXsXhXsXkXzXCXCXCXCXCXCXCXCXCXCXCXCXCXCXCXCX",
"CXCXCXCXCXAXAXAXCXCXCXCXAXCXCXMXAXAXjXjXMXCXjXkXeXjXjXhXa.s.g.g.`.e.].rXrXrXMXCXzXzXMXhXsXjXDXzXAXCXAXAXAXCXCXCXCXCXCXCXAXCXCXCX",
"AXCXCXCXCXAXkXAXAXzXzXCXAXMXxXxXAXjXkXjXDXMXMXMXjXxXaX'.V. XXX XXX.X'.qXhXsXhXMXxXMXMXMXMXCXCXCXCXjXkXxXjXAXCXzXCXCXnXAXAXAXAXCX",
"AXAXCXCXCXkXkXAXzXCXnXnXCXMXfXxXyX6X5XdXfX6XyXdX6X4X{.!.!.`.^.(.V.{.[.[.7X9X0X6XdX5X5XiXyXuXlXxXxXxXjXjXkXAXCXCXnXnXCXCXAXAXMXCX",
"kXAXCXCXAXkXkXAXnXnXlXDXAXzXG.H.&.V 5 6 : , $ & . m Y.@X#X)._._.[.%X#X@XOX& 3 C s Z Z K t j 6.P.;XMXxXjXkXkXAXCXCXnXnXCXAXAXMXMX",
"AXAXnXCXAXkXkXCXzXnXkXCXAX+X. 7 M R _ _ ^ B Z J < -.I.U.v.v.v.b.b.Y.b.U.v.f G W _ R R W D N f 1 4 <XMXMXkXrXkXAXnXCXCXCXCXCXMXMX",
"kXCXCXCXkXkXkXCXCXCXkXkXlXW.2 | ^ ! W B W ( ! D F F N 8 u p i u 9 e r 5 N A Q B S Q ! Q ! Q ` H x pXlXlXAXeXeXrXAXCXCXCXCXCXMXMX",
"AXAXnXCXAXkXAXCXnXzXkXkXMXW.;  .N S Q Q ! W ( _ ( ( ( ) ) ) ) .._ ..) ` R W D Q S Q Q Q B ! ` C 4 tXlXnXkXrXkXkXAXCXCXCXCXCXCXMX",
"kXCXCXCXkXkXAXCXzXCXkXkXlXQ.d | } G G ^ ~ ~ ~ ^ ~ { ] [  . . . .[  .E ..[ ~ { ~ ~ ~ _ / ^ ` ..T b pXzXnXCXeXkXkXkXCXAXAXAXAXCXMX",
"CXCXCXCXAXAXCXCXMXAXeXeXAXQ.% q * > > : : 6 6 w : : * = ; ; ; ; q 5 0 q 5 7 5 6 6 6 - 9 9 6 9 $ x pXkXnXAXkXAXkXAXAXAXAXkXAXCXCX",
"CXCXAXAXAXAXMXMXCXkXeXAXMXtXE.G.G.G.G.G.G.H.G.G.S.S.A.S.S.S.S.S.G.G.G.S.D.S.A.A.A.A.A.A.D.D.D.A.1XlXnXCXkXCXCXlXCXAXkXkXkXAXCXCX",
"CXAXAXAXCXMXMXCXkXkXeXAXMXMXlXfXnXzXnXzXzXMXlXxXxXMXMXCXCXnXnXCXzXzXMXMXzXMXMXMXMXMXAXMXMXCXzXnXlXCXCXCXzXCXCXnXAXAXkXeXkXAXCXCX",
"nXnXAXAXMXMXMXCXkXkXAXAXMXlXxXMXCXnXnXCXCXMXMXMXxXxXxXxXMXMXxXMXzXxXMXAXMXMXMXMXzXCXnXnXCXnXnXnXAXkXAXjXMXCXCXnXCXAXkXeXkXkXCXCX",
"nXCXAXCXCXMXCXAXkXkXAXCXCXCXjXrXkXAXCXCXCXMXCXMXMXMXAXAXMXxXMXMXkXkXkXxXMXzXCXCXnXnXnXnXCXnXnXkXkXkXkXkXCXCXzXnXCXCXkXeXkXAXCXnX",
"kXnXCXCXCXMXMXAXkXkXkXnXCXCXkXeXkXMXMXMXCXCXCXCXMXAXAXAXAXMXMXxXAXAXAXMXMXMXMXCXMXCXCXCXCXMXCXAXAXkXkXkXAXAXCXCXCXCXkXkXkXAXCXCX",
"CXkXnXCXCXMXCXAXCXnXnXnXzXjXkXkXkXAXMXMXCXCXnXCXAXkXAXkXnXCXMXMXAXMXMXnXMXMXMXMXMXMXMXMXAXAXAXAXAXAXAXkXAXAXCXCXCXCXAXkXkXCXCXCX",
"kXkXCXCXCXMXAXCXzXnXCXnXCXCXCXAXxXkXAXMXCXnXCXkXnXkXAXkXnXnXCXnXMXCXCXCXCXCXCXMXAXAXAXAXAXAXAXMXCXCXCXkXkXkXCXCXCXCXAXAXAXAXCXCX",
"kXAXnXnXCXCXAXAXCXCXzXzXCXCXCXzXkXxXAXMXnXnXnXnXzXnXkXCXkXnXnXnXnXCXnXnXCXAXAXAXAXkXAXAXkXxXAXCXzXCXAXAXkXkXCXzXnXCXAXAXAXAXCXnX"
};
