/* XPM */
static char *_52d495c49d14822c96501c8e7a4b39bsdiz5LAiqbgUVNdn[] = {
/* columns rows colors chars-per-pixel */
"64 64 256 2 ",
"   c #051200",
".  c #053611",
"X  c #3C3A06",
"o  c #283B1B",
"O  c #163B25",
"+  c #7A3006",
"@  c #7F1F21",
"#  c #6F3024",
"$  c #430335",
"%  c #364610",
"&  c #324932",
"*  c #306C38",
"=  c #1C5924",
"-  c #5A4509",
";  c #734E0B",
":  c #676712",
">  c #62622D",
",  c #10144E",
"<  c #030979",
"1  c #100B6F",
"2  c #342E7A",
"3  c #291C4C",
"4  c #6F2C46",
"5  c #5A2366",
"6  c #314B48",
"7  c #366E4D",
"8  c #164E76",
"9  c #2D5A6F",
"0  c #50544D",
"q  c #536D55",
"w  c #676859",
"e  c #595D66",
"r  c #586967",
"t  c #5A786A",
"y  c #56626D",
"u  c #666966",
"i  c #7D7D7D",
"p  c #737778",
"a  c #6C7172",
"s  c #714F58",
"d  c #8D1A0C",
"f  c #8F2605",
"g  c #AE2D03",
"h  c #8E2731",
"j  c #974F0B",
"k  c #B45116",
"l  c #B66300",
"z  c #8A522C",
"x  c #AB662C",
"c  c #CC5806",
"v  c #D05615",
"b  c #D16C1B",
"n  c #CB5C31",
"m  c #E85837",
"M  c #D26B2D",
"N  c #E57234",
"B  c #E15618",
"V  c #8F1C62",
"C  c #A75045",
"Z  c #916F4E",
"A  c #A86D54",
"S  c #907369",
"D  c #A9686E",
"F  c #C86C5A",
"G  c #ED7052",
"H  c #CE5F6D",
"J  c #CF7B6B",
"K  c #518D72",
"L  c #7A887C",
"P  c #719777",
"I  c #679072",
"U  c #5BA373",
"Y  c #73A876",
"T  c #BA972A",
"R  c #D28F34",
"E  c #E59231",
"W  c #F2B332",
"Q  c #D4AC28",
"!  c #E3C72C",
"~  c #83867C",
"^  c #898F6F",
"/  c #A1924F",
"(  c #D3875B",
")  c #EF8F4D",
"_  c #F6B351",
"`  c #C98E6F",
"'  c #E2926D",
"]  c #E5B66B",
"[  c #BFC772",
"{  c #F4D14F",
"}  c #CDC767",
"|  c #ECC873",
" . c #01028A",
".. c #020A8B",
"X. c #040B84",
"o. c #150A89",
"O. c #030493",
"+. c #020B9A",
"@. c #070798",
"#. c #06119D",
"$. c #161495",
"%. c #13128C",
"&. c #2C1995",
"*. c #192C90",
"=. c #2E3199",
"-. c #0002AB",
";. c #0309A6",
":. c #0716A7",
">. c #0308B3",
",. c #0415B7",
"<. c #191BB9",
"1. c #1410B0",
"2. c #290FA7",
"3. c #0223BB",
"4. c #142BAC",
"5. c #2F2CA7",
"6. c #640E94",
"7. c #4C258B",
"8. c #4E2499",
"9. c #144685",
"0. c #295998",
"q. c #36748C",
"w. c #3351B1",
"e. c #3667B3",
"r. c #5D499B",
"t. c #70718C",
"y. c #4950B0",
"u. c #706EB3",
"i. c #63699B",
"p. c #0712C5",
"a. c #1D28C8",
"s. c #142BD2",
"d. c #2B2ADB",
"f. c #2A33D4",
"g. c #3637DB",
"h. c #2E29C8",
"j. c #1A29E3",
"k. c #0F31EB",
"l. c #2829E8",
"z. c #2937EB",
"x. c #3837E8",
"c. c #3934F8",
"v. c #2A30EC",
"b. c #3117C0",
"n. c #452ED2",
"m. c #394BCA",
"M. c #3B6EEB",
"N. c #4947D0",
"B. c #5363CA",
"V. c #6A70CC",
"C. c #5E71F2",
"Z. c #767BE9",
"A. c #544BEE",
"S. c #8B1F8D",
"D. c #916E9D",
"F. c #3E8189",
"G. c #52918E",
"H. c #759787",
"J. c #718F88",
"K. c #5BA796",
"L. c #6AAA86",
"P. c #71A785",
"I. c #66B78F",
"U. c #78AAA4",
"Y. c #6F95A8",
"T. c #74C3A5",
"R. c #748FC9",
"E. c #6BA6CE",
"W. c #7586F1",
"Q. c #7DB8E2",
"!. c #87878A",
"~. c #878A95",
"^. c #939395",
"/. c #989B99",
"(. c #8D9390",
"). c #85AE96",
"_. c #9A97A3",
"`. c #8C8EB1",
"'. c #A999AE",
"]. c #93AEB1",
"[. c #ADA9AE",
"{. c #ACB7A8",
"}. c #B2B4B5",
"|. c #ADAFB5",
" X c #A4A59D",
".X c #D09599",
"XX c #CFAE8F",
"oX c #CAB2AB",
"OX c #E6A0A0",
"+X c #ACC7B5",
"@X c #9CCFB0",
"#X c #CCD090",
"$X c #E8E58C",
"%X c #CBCBB6",
"&X c #F8D2A2",
"*X c #FAEAB5",
"=X c #E7CF93",
"-X c #9796D6",
";X c #8E8ECC",
":X c #8DABD8",
">X c #A7A7DE",
",X c #A5B6C0",
"<X c #9398E6",
"1X c #8C91F7",
"2X c #95A8EE",
"3X c #A7A9E8",
"4X c #A9A7FF",
"5X c #B7B7FD",
"6X c #B0B2FA",
"7X c #A69BD4",
"8X c #C3BDE3",
"9X c #95DBC5",
"0X c #92CFDA",
"qX c #B3D8D3",
"wX c #9AE7D2",
"eX c #BBCAFE",
"rX c #B2CAF0",
"tX c #AFEEEE",
"yX c #AAE8D1",
"uX c #C9C8C8",
"iX c #D8D7D7",
"pX c #C7D2CD",
"aX c #F0D7D3",
"sX c #CDE9D4",
"dX c #F9EBD9",
"fX c #FFF8DA",
"gX c #F6F4D2",
"hX c #C6C6FF",
"jX c #D8CDFF",
"kX c #C9D6FF",
"lX c #D3D7FF",
"zX c #D4D9E3",
"xX c #D8E6FB",
"cX c #DEF4FF",
"vX c #D4ECE9",
"bX c #E4E5E5",
"nX c #EAEBEA",
"mX c #E6E5EA",
"MX c #FBE9E9",
"NX c #EEF6EA",
"BX c #F4FDEE",
"VX c #FDFCED",
"CX c #FCF7E7",
"ZX c #E9E9F8",
"AX c #F9EDFA",
"SX c #ECF3FF",
"DX c #EDFEFD",
"FX c #E9FAF9",
"GX c #F5F5F5",
"HX c #FFF5F3",
"JX c #F4FCF4",
"KX c #FDFEF4",
"LX c #F4F5FE",
"PX c #FCF5FE",
"IX c #F5FDFE",
"UX c #FEFFFF",
/* pixels */
"UXUXUXUXUXUXUXUXUXUXUXUXUXUXUXUXUXUXUXUXUXUXUXUXUXUXUXUXUXUXUXUXUXUXUXUXUXUXGXUXUXUXUXUXUXUXUXUXUXUXUXUXUXUXUXUXUXUXUXUXUXUXUXUX",
"UXUXUXUXUXUXUXUXUXUXUXUXUXUXUXUXUXUXUXUXUXUXUXUXUXUXUXUXUXUXUXUXUXUXGXUXUXUXUXUXUXUXUXUXUXUXUXUXUXUXUXUXUXUXUXUXUXUXUXUXUXUXUXUX",
"UXUXUXUXUXUXUXUXUXUXUXUXUXUXUXUXUXUXUXUXUXUXUXUXUXUXUXUXUXUXUXUXUXPXUXJXiXUXUXGXUXUXUXUXUXUXUXUXUXUXUXUXUXUXUXUXUXUXUXUXUXUXUXUX",
"UXUXUXUXUXUXUXUXUXUXUXUXUXUXUXUXUXUXUXUXUXUXUXUXUXUXUXUXUXUXUXUXUXUXNX|.!.mXUXUXUXUXUXUXUXUXUXUXUXUXUXUXUXUXUXUXUXUXUXUXUXUXUXUX",
"UXUXUXUXUXUXUXUXUXUXUXUXUXUXUXUXUXUXUXUXUXUXUXUXUXUXUXUXUXUXUXUXUXGX|.S !.nXPXUXUXUXUXUXUXUXUXUXUXUXUXUXUXUXUXUXUXUXUXUXUXUXUXUX",
"UXUXUXUXUXUXUXUXUXUXUXUXUXUXUXUXUXUXUXUXUXUXUXUXUXUXUXUXUXUXUXUXUX}.p ^.^.NXJXUXUXUXUXUXUXUXUXUXUXUXUXUXUXUXUXUXUXUXUXUXUXUXUXUX",
"UXUXUXUXUXUXUXUXUXUXUXUXUXUXUXUXUXUXUXUXUXUXUXUXUXUXUXUXUXUXUXUXUX[.u (.!.mXUXUXUXUXUXUXUXUXUXUXUXUXUXUXUXUXUXUXUXUXUXUXUXUXUXUX",
"UXUXUXUXUXUXUXUXUXUXUXUXUXUXUXUXUXUXUXUXUXUXUXUXUXUXUXUXUXUXUXUXKXbXp i  XUXGXUXUXUXUXUXUXUXUXUXUXUXUXUXUXUXUXUXUXUXUXUXUXUXUXUX",
"UXUXUXUXUXUXUXUXUXUXUXUXUXUXUXUXUXUXUXUXUXUXUXUXUXGXUXUXPXUXUXGXUXUXJXGXUXGXUXUXUXUXUXUXUXUXUXUXUXUXUXUXUXUXUXUXUXUXUXUXUXUXUXUX",
"UXUXUXUXUXUXUXUXUXUXUXUXUXUXUXUXUXUXUXUXUXUXUXUXUXUXPXGXUXGXGXUXUXPXUXGXUXUXPXUXUXUXUXUXUXUXUXUXUXUXUXUXUXUXUXUXUXUXUXUXUXUXUXUX",
"UXUXUXUXUXUXUXUXUXUXUXUXUXUXUXUXUXUXUXUXUXUXUXUXUXUXUXUXUXUXUXGXUXKXLXUXUXPXUXUXUXUXUXUXUXUXUXUXUXUXUXUXUXUXUXUXUXUXUXUXUXUXUXUX",
"UXUXUXUXUXUXUXUXUXUXUXUXUXUXUXUXUXUXUXUXUXUXUXUXUXKXUXPXGXUXUXGXUXUXPXUXUXGXUXUXUXUXUXUXUXUXUXUXUXUXUXUXUXUXUXUXUXUXUXUXUXUXUXUX",
"UXUXUXUXUXUXUXUXUXUXUXUXUXUXUXUXUXUXUXUXUXUXUXUXUXUXPXUXUXUXGXUXGXLXUXUXGXUXUXUXUXUXUXUXUXUXUXUXUXUXUXUXUXUXUXUXUXUXUXUXUXUXUXUX",
"UXUXUXUXUXUXUXUXUXUXUXUXUXUXUXUXUXUXUXUXUXUXUXUXUXUXUXUXbXPXUXUXnXiXbXUXUXUXGXLXUXUXUXUXUXUXUXUXUXUXUXUXUXUXUXUXUXUXUXUXUXUXUXUX",
"UXUXUXUXUXUXUXUXUXUXUXUXUXUXUXUXUXUXUXUXUXUXUXUXUXKXKXmXS qXGXuXi a !.bXUXGXUXUXUXUXUXUXUXUXUXUXUXUXUXUXUXUXUXUXUXUXUXUXUXUXUXUX",
"UXUXUXUXUXUXUXUXUXUXUXUXUXUXUXUXUXUXUXUXUXUXUXUXJXKXUXbXa _.|.^.!.^.uXUXUXUXPXKXUXUXUXUXUXUXUXUXUXUXUXUXUXUXUXUXUXUXUXUXUXUXUXUX",
"UXUXUXUXUXUXUXUXUXUXUXUXUXUXUXUXKXKXUXKXUXIXUXUXVXfXKXbXp _.~._.D.iXUXKXBXUXIXUXUXJXUXUXUXUXUXUXUXKXUXUXUXPXUXUXUXUXUXUXUXUXUXUX",
"UXUXUXUXUXUXUXUXUXUXUXUXUXUXUXUXJXJXHXUXUXIXPXPXVXVXJXbXs ^.!.(.!.zXUXJXJXKXIXUXUXPXUXUXGXUXUXIXUXPXUXnXUXUXnXUXUXUXUXUXUXUXUXUX",
"UXUXUXUXUXUXUXUXUXUXUXUXUXUXUXUXUXKXVXVXKXIXUXPXUXGXIXSX!.w ^.p u nXIXUXKXIXUXPXPXGXUXUXCXJXKXUXUXUXPXUXUXUXUXUXUXUXUXUXUXUXUXUX",
"UXUXUXUXUXUXUXUXUXUXUXUXUXUXUXUXLXUXHXKXKXIXUXUXLXIXSXDXPX Xu /.xXIXSXIXLXIXLXUXPXUXUXHXKXKXJXJXUXuXiXiXGXUXUXKXUXUXUXUXUXUXUXUX",
"UXUXUXUXUXUXUXUXUXUXUXUXUXUXUXUXUXUXPXUXNXJXIXIXjX1X1X4X>X[.t.:X4X1X4XZ.5XIXUXGXUXUXUXPXKXKXIXIX}.a S J.UXUXUXUXUXUXUXUXUXUXUXUX",
"UXUXUXUXUXUXUXUXUXUXUXUXUXUXUXUXPXAXPXUXIXDXIXxX%. .;.&.R.`._.D.X.1.O.@.%.5XIXIXPXPXUXUXGXKXJX{.!.(.(.mXPXUXLXUXUXUXUXUXUXUXUXUX",
"UXUXUXUXUXUXUXUXUXUXUXUXUXUXUXUXUXGXUXLXhXZ.Z.N.@.A.g.B.`.D.`.<Xn.x.g.d.d.h.Z.W.hXPXPXKXUXUXzXp i !.bXKXUXPXKXUXUXUXUXUXUXUXUXUX",
"UXUXUXUXUXUXUXUXUXUXUXUXUXUXUXUXKXUXIXZXy.O.>.>.;.O.O.1 Y.(.t.r.%.O.o.O.-.d.>.;...kXIXJXUXPXUXAXbXUXUXUXUXUXPXUXUXUXUXUXUXUXUXUX",
"UXUXUXUXUXUXUXUXUXUXUXUXUXUXUXUXIXIXlX=...<.c.,.1XeX6Xu.y e }.'.>XhXeXeXW.+.z.j.j...eXUXIXPXPXPXPXUXUXUXUXKXUXUXUXUXUXUXUXUXUXUX",
"UXUXUXUXUXUXUXUXUXUXUXUXUXUXUXUXIXIX2X..f.1.;...rXcXDXvX& e uXPXUXDXDXcXtXX.3.j.v.;.B.ZXUXUXAX[.nXKXPXUXUXUXUXUXUXUXUXUXUXUXUXUX",
"UXUXUXUXUXUXUXUXUXUXUXUXUXUXUXUXIXIX1X:.c.-.B.R.i.].DXvXq u   oXLXIXDXpXi.E.4.#.z.;.Z.PXIXLX^.u iXUXUXKXUXUXUXUXUXUXUXUXUXUXUXUX",
"UXUXUXUXUXUXUXUXUXUXUXUXUXUXUXUXIXkXm.>.>.1.Q.U.U.t pXqX6 (.!.{.UXUXvXJ.U.Y.2Xe.+.a...hXZX~.~ ^ pXUXUXPXUXUXPXUXUXUXUXUXUXUXUXUX",
"UXUXUXUXUXUXUXUXUXUXUXUXUXUXUXUXkX< a.,.V.R.6 7 ).H.y J.J.J.!.(.^./.w I I qXFXxX1X#.h.$.u.t.!.^ pXUXUXKXUXUXUXUXUXUXUXUXUXUXUXUX",
"UXUXUXUXUXUXUXUXUXUXUXUXUXUXUXPX4X$.x. .kXt   * L.H.r (.t r r p (./.!.t sXgXDXDXLXy.o.5.&.a (.a iXUXUXPXUXUXUXUXUXUXUXUXUXUXUXUX",
"UXUXUXUXUXUXUXUXUXUXUXUXUXUXUXUXhXO.g...lXvX).O . q t I & 7 r L p t.a pXJXJXIXIXUXAX`.t.D.~.J.|.NXUXUXUXUXPXUXUXUXUXUXUXUXUXUXUX",
"UXUXUXUXUXUXUXUXUXUXUXUXUXUXUXUX5XO.n...kXJXJXsXJ.. * q I L.H.H.t ~.|.IXIXUXUXPXJXUXAXt._.!.|.UXUXUXUXUXUXUXUXUXUXUXUXUXUXUXUXUX",
"UXUXUXUXUXUXUXUXUXUXUXUXUXUXUXIX5X#.g.X.rXIXNXBX{.. = * L.L.I L.I sXFXJXUXUXUXUXUXUXZXu ^.D.uXUXUXUXUXUXUXUXUXUXUXUXUXUXUXUXUXUX",
"UXUXUXUXUXUXUXUXUXUXUXUXUXUXUXPX5X+.f...0XvXsXgX%Xw = * P.L.U L.I tXDXKXCXaXoXoX,X].~.J.~ w iXPXUXUXUXUXUXUXUXUXUXUXUXUXUXUXUXUX",
"UXUXUXUXUXUXUXUXUXUXUXUXUXUXUXUX5X;.g.:.Q.].{.oXA A K = L.U U U t qXUXHXfXJ # S a 3 ~.!.~ %XKXUXUXUXUXUXUXUXUXUXUXUXUXUXUXUXUXUX",
"UXUXUXUXUXUXUXUXUXUXUXUXUXUXUXPX5X@.l.,.0.6 0 A f C % = U K . t !.aXHXMX' x A S y J.^.~ {.BXDXIXUXUXUXUXUXUXUXUXUXUXUXUXUXUXUXUX",
"UXUXUXUXUXUXUXUXUXUXUXUXUXUXUXIX5X@.x.:.9.O z M v f - * * 7 K ~ @ OXdX' d n z o & J.p ~ %XLXUXIXUXUXUXUXUXUXUXUXUXUXUXUXUXUXUXUX",
"UXUXUXUXUXUXUXUXUXUXUXUXUXUXUXUX5X .h.4.8 & j b ) E X . . K I.^ d G G k v f - - o q /.u _.UXIXLXUXUXUXUXUXUXUXUXUXUXUXUXUXUXUXUX",
"UXUXUXUXUXUXUXUXUXUXUXUXUXUXUXIXeXX.f.4.8 O + g _ { [ Y K L.).Z d B c l l j % % & J.`., ;XPXPXUXUXUXUXUXUXUXUXUXUXUXUXUXUXUXUXUX",
"UXUXUXUXUXUXUXUXUXUXUXUXUXUXUXPX5XX.s.:.*.6 d g E ! $X#XI.T.Y / f N W Q W T : P (.2 u.1 -XUXIXKXUXUXUXUXUXUXUXUXUXUXUXUXUXUXUXUX",
"UXUXUXUXUXUXUXUXUXUXUXUXUXUXUXUXkXX.>.s.:.9 h g g E { [ U T.L.P z T { ! ! Q ; '.u. .n.< 3XUXGXKXUXUXUXUXUXUXUXUXUXUXUXUXUXUXUXUX",
"UXUXUXUXUXUXUXUXUXUXUXUXUXUXUXUXAXjXC.>.s.1 D n g M ) / Y I.L.P P : ; Q { x s 5 o.a. .6XSXIXJXKXUXUXUXUXUXUXUXUXUXUXUXUXUXUXUXUX",
"UXUXUXUXUXUXUXUXUXUXUXUXUXUXUXUXPXPX4X+.a.2.D.C d f + - Y I.K.G.K > + ) ' D 7.2.d.-.V.LXUXUXIXUXUXUXUXUXUXUXUXUXUXUXUXUXUXUXUXUX",
"UXUXUXUXUXUXUXUXUXUXUXUXUXUXUXUXUXPX<X%.f.b.r.s 4 4 4 s K.E.Q.E.0.p d h h 5 2.l.l.;.V.PXAXUXIXIXUXUXUXUXUXUXUXUXUXUXUXUXUXUXUXUX",
"UXUXUXUXUXUXUXUXUXUXUXUXUXUXUXUXUXIXkX1 ,.j.<.$.=.5.y.5.M.M.W.C.*.r.V V V 6.a.j.a.< >XUXPXAXUXIXUXUXUXUXUXUXUXUXUXUXUXUXUXUXUXUX",
"UXUXUXUXUXUXUXUXUXUXUXUXUXUXUXUXUXUXJXlX4.,.-.a.4.3.,.s.p.p.,.;.:.%.6.S.6.b.;.:.%.hXUXLXPXPXUXUXUXUXUXUXUXUXUXUXUXUXUXUXUXUXUXUX",
"UXUXUXUXUXUXUXUXUXUXUXUXUXUXUXUXJXUXAXPXeXy.V.&.<.a.j.k.k.k.j.d.<.<.h.h.b.2.B.y.:XIXDXUXAXUXPXUXUXUXUXUXUXUXUXUXUXUXUXUXUXUXUXUX",
"UXUXUXUXUXUXUXUXUXUXUXUXUXUXUXUXJXGXPXUXGXUXAXjX< #.#.;.3.,.:.+.+.#.+.+.1.5XAXPXUXKXUXUXUXUXIXIXUXUXUXUXUXUXUXUXUXUXUXUXUXUXUXUX",
"UXUXKXKXUXUXUXUXCXKXHXUXPXUXUXUXJXUXUXHXfXgXBXGXrXV.R.V.0.0.0.0.0.2X<Xu.3XIXLXUXKXoXaXPXHXUXUXIXUXUXUXUXUXUXUXUXUXUXUXUXUXUXUXUX",
"UXKXUXKXUXUXUXUXUXKXGXUXUXUXJXJXIXPXPXHXXX/ =XgXKXSXKXFXG.F.q.q.9 tXSXUXPXAXUXHX&Xf ` CXKXNXIXIXUXUXUXUXUXUXUXUXUXUXUXUXUXUXUXUX",
"UXUXUXKXKXUXUXUXUXUXUXPXIXUXKXKXGXUXUXVX' x ] | fXUXUXvXK G.K.G.F.tXDXIXUXPXAXOX+ k ( gXVXUXIXUXUXUXUXUXUXUXUXUXUXUXUXUXUXUXUXUX",
"UXUXUXUXUXUXUXUXUXUXUXLXGXKXVXGXUXUXNXfX' b b R &XgXdX+X9X9XT.K.K.).FXIXUXPXAXz k v R &XCXGXUXPXUXUXUXUXUXUXUXUXUXUXUXUXUXUXUXUX",
"UXUXUXKXUXKXUXUXUXIXUXUXKXUXUXIXPXIXfX*XM v b E ] =X%X@XqXyX9XwXwX9XqXcXIXPXMXF M M R =XgXJXGXUXUXUXUXUXUXUXUXUXUXUXUXUXUXUXUXUX",
"UXUXUXUXKXUXUXUXUXPXIXKXJXIXLX6X>Xt.{.&XN c c N M z /.rXqX0X0XtX0X0X:X:Xt.t.Z k N M F .X,XzXPXUXUXUXUXUXUXUXUXUXUXUXUXUXUXUXUXUX",
"UXUXUXUXKXKXUXUXUXPXBXBXUXUXhX1 @.$.D.'.( c c v h $ 2 y.8 8 0.e.w.X.4.4., (.} Q j H D., %.1 5XAXUXUXUXUXUXUXUXUXUXUXUXUXUXUXUXUX",
"KXUXUXKXKXUXKXUXUXKXVXKXDXPXhX@.c.l.2.$ F N B n s &.2.@. .< < O.,.,.,.#.w.,X$X} ` 4 &.n.c.-.3XUXUXUXUXUXUXUXUXUXUXUXUXUXUXUXUXUX",
"KXUXUXUXKXKXKXUXUXKXKXJXIXUXhXO.z.z.f.7.H m m H r.<.z.z.,.,.h.>.d.l.l.z.1.V.~.iXoX3 n.c.c.>.2XUXUXUXUXUXUXUXUXUXUXUXUXUXUXUXUXUX",
"UXUXKXUXKXKXUXUXUXUXKXKXIXIXhX%.#.;.;.1 4 d d h 1 :.-.;.m.5.2.A.@.:.-.O.+.1 3 [.`., o.1.p.1.3XIXUXUXUXUXUXUXUXUXUXUXUXUXUXUXUXUX",
"UXUXUXKXUXUXUXUXUXLXKXJXJXIXLX3X-X<X<X-X'..XOX.X7X7X3XjXZXcXxXLX3X;X<X3X-X;XqXAXPX8X<X<X1X<XxXIXUXUXUXUXUXUXUXUXUXUXUXUXUXUXUXUX",
"UXUXUXUXKXUXUXUXUXLXUXUXKXIXUXKXUXLXIXUXPXPXHXPXPXPXPXUXIXDXIXIXUXUXUXIXUXUXUXPXUXUXPXIXAXGXIXIXUXUXUXUXUXUXUXUXUXUXUXUXUXUXUXUX",
"UXUXUXUXKXUXUXUXPXUXUXPXLXUXVXJXUXUXPXPXIXUXKXUXPXUXPXMXUXIXIXIXLXUXIXPXUXKXMXVXKXUXUXIXUXUXNXBXKXUXUXUXUXUXUXUXUXUXUXUXUXUXUXUX",
"UXUXUXKXUXUXUXUXUXUXPXIXUXUXKXKXUXUXUXUXPXUXKXJXUXPXUXUXUXLXUXSXUXPXLXUXHXKXUXKXVXBXUXGXUXKXVXKXUXUXUXUXUXUXUXUXUXUXUXUXUXUXUXUX",
"UXKXKXKXUXUXUXUXUXKXHXUXUXUXNXKXKXKXUXUXUXPXJXDXDXUXPXPXKXHXUXUXUXUXUXJXGXUXUXLXKXKXIXPXUXUXHXHXUXUXUXUXUXUXUXUXUXUXUXUXUXUXUXUX",
"UXUXKXKXUXUXUXUXVXVXHXUXPXUXUXUXKXKXKXUXPXPXIXDXJXUXPXUXVXVXUXLXUXVXKXJXUXPXUXUXJXBXIXIXUXPXUXHXUXUXUXUXUXUXUXUXUXUXUXUXUXUXUXUX"
};
