/* XPM */
static char *_a4eb79e74a94a6fa4af962dd2912173uuDBIBmDYm9n6pz9[] = {
/* columns rows colors chars-per-pixel */
"64 64 256 2 ",
"   c #544D38",
".  c #6A573B",
"X  c #775938",
"o  c #6C4D2F",
"O  c #776439",
"+  c #755213",
"@  c #396261",
"#  c #4B5647",
"$  c #585947",
"%  c #475B5A",
"&  c #55534B",
"*  c #6A5A47",
"=  c #6D5E51",
"-  c #586558",
";  c #4D6454",
":  c #6B6548",
">  c #776749",
",  c #686858",
"<  c #776B56",
"1  c #79755B",
"2  c #727452",
"3  c #587874",
"4  c #52716F",
"5  c #697667",
"6  c #777A67",
"7  c #677B77",
"8  c #6D7167",
"9  c #453A1C",
"0  c #8D5810",
"q  c #96681A",
"w  c #916A12",
"e  c #A36B19",
"r  c #845936",
"t  c #8D592C",
"y  c #A55C2E",
"u  c #976A24",
"i  c #9A7526",
"p  c #88633A",
"a  c #936E39",
"s  c #A56729",
"d  c #A47627",
"f  c #B66C38",
"g  c #A87937",
"h  c #B6763A",
"j  c #AD6F2E",
"k  c #A05708",
"l  c #C6773A",
"z  c #CE7A33",
"x  c #856847",
"c  c #956A47",
"v  c #88734B",
"b  c #997649",
"n  c #896C55",
"m  c #887657",
"M  c #967858",
"N  c #A87549",
"B  c #B97845",
"V  c #A67A55",
"C  c #B67750",
"Z  c #887B67",
"A  c #967A62",
"S  c #A77E62",
"D  c #C57B47",
"F  c #CD7C50",
"G  c #698378",
"H  c #778578",
"J  c #75856F",
"K  c #5C8074",
"L  c #B58739",
"P  c #AF8836",
"I  c #A48323",
"U  c #C68B39",
"Y  c #D0A13C",
"T  c #948456",
"R  c #B98746",
"E  c #BA9646",
"W  c #B98556",
"Q  c #A98656",
"!  c #898669",
"~  c #978769",
"^  c #878877",
"/  c #948B77",
"(  c #9B977A",
")  c #929473",
"_  c #A88968",
"`  c #B78A65",
"'  c #BA9569",
"]  c #A88B74",
"[  c #A89978",
"{  c #B69977",
"}  c #AB926D",
"|  c #AFA379",
" . c #A8A25E",
".. c #C5824C",
"X. c #CC844C",
"o. c #CC8B4C",
"O. c #C58746",
"+. c #D5874C",
"@. c #CC944B",
"#. c #D7964B",
"$. c #CB8552",
"%. c #CC8C54",
"&. c #C68857",
"*. c #D48B53",
"=. c #D48C5B",
"-. c #D78757",
";. c #CA9557",
":. c #D3935B",
">. c #DB9C5D",
",. c #D79757",
"<. c #E4995A",
"1. c #E69150",
"2. c #DBA35D",
"3. c #D7A65A",
"4. c #CFA953",
"5. c #E4A35B",
"6. c #E8B454",
"7. c #C99868",
"8. c #DC9462",
"9. c #D49B64",
"0. c #DB9C64",
"q. c #D79967",
"w. c #CE916B",
"e. c #E49B67",
"r. c #E59A70",
"t. c #DCA363",
"y. c #DCA46A",
"u. c #D8A868",
"i. c #D8A876",
"p. c #D2AF6F",
"a. c #E3A465",
"s. c #E4A46A",
"d. c #EBA46B",
"f. c #E4AB6C",
"g. c #EBAC6C",
"h. c #E8A965",
"j. c #F3A96A",
"k. c #E7B56C",
"l. c #F6B66C",
"z. c #E4AC73",
"x. c #ECAC73",
"c. c #E7A575",
"v. c #F5AB76",
"b. c #ECB473",
"n. c #EBB47B",
"m. c #E8B877",
"M. c #F2B475",
"N. c #F4BC7C",
"B. c #FABC7C",
"V. c #F7B678",
"C. c #F9C869",
"Z. c #FAC57C",
"A. c #FAD57B",
"S. c #EAC974",
"D. c #E5C364",
"F. c #537A87",
"G. c #57898F",
"H. c #688887",
"J. c #788885",
"K. c #769489",
"L. c #6A9698",
"P. c #789997",
"I. c #6A918F",
"U. c #7CA49B",
"Y. c #6BA29A",
"T. c #6E9CA3",
"R. c #6BA5A9",
"E. c #79A6A7",
"W. c #75ADB8",
"Q. c #5C9EAB",
"!. c #79B7C5",
"~. c #74BAD5",
"^. c #69B4CE",
"/. c #7EC2D5",
"(. c #858C86",
"). c #8A9786",
"_. c #95988A",
"`. c #899B95",
"'. c #8D928C",
"]. c #A89B86",
"[. c #B09B86",
"{. c #88A59A",
"}. c #98A598",
"|. c #98A58D",
" X c #A9A589",
".X c #B5A689",
"XX c #A9A797",
"oX c #B4AB95",
"OX c #B7B69A",
"+X c #B2B58E",
"@X c #889EA2",
"#X c #86A8A8",
"$X c #99AAA5",
"%X c #97B3A9",
"&X c #85A9B4",
"*X c #98B7B3",
"=X c #8BB2B1",
"-X c #A8B6A7",
";X c #B7B8A9",
":X c #ADB8B0",
">X c #CAB38C",
",X c #EAB884",
"<X c #FCBD83",
"1X c #F7BA86",
"2X c #ECB98F",
"3X c #CDBCA8",
"4X c #B7C4AA",
"5X c #A9C5B7",
"6X c #B9C7B7",
"7X c #BAD3B2",
"8X c #B2C598",
"9X c #D5CD8E",
"0X c #F5C383",
"qX c #FDC584",
"wX c #FDC48B",
"eX c #FECB8C",
"rX c #F8C988",
"tX c #FED28C",
"yX c #FBD684",
"uX c #FECC93",
"iX c #FACA97",
"pX c #FFD293",
"aX c #FED39C",
"sX c #FDDA9A",
"dX c #EACB8E",
"fX c #FFE898",
"gX c #FFF39C",
"hX c #FFF69A",
"jX c #FDE68C",
"kX c #C9C4AA",
"lX c #D5C3A7",
"zX c #C8CAB7",
"xX c #C6D3B9",
"cX c #D6D5BB",
"vX c #D2C8B6",
"bX c #FFD9A3",
"nX c #F2D5B1",
"mX c #FFE5A7",
"MX c #FEFAA6",
"NX c #F9ECB2",
"BX c #8EC7CE",
"VX c #A8CAC7",
"CX c #B6D2CD",
"ZX c #B7DFE4",
"AX c #C7D7C7",
"SX c #D7D9C7",
"DX c #CBD7CD",
"FX c #D8E2CA",
"GX c #C9E4D8",
"HX c #D7E7D7",
"JX c #D3E9CE",
"KX c #E5E3C9",
"LX c #E9EAD4",
"PX c #CEEBE8",
"IX c #E7EFE2",
"UX c #D8DBD4",
/* pixels */
"F B =.=.D D F +.V.B.j.#.+.F <.iXqXd.X.b.rXsXNXbXbX0X;.R >.l.l.5.j.1.d.e.*.s.1Xm.z.N.V.x.rXmXeXeXZ.u.Z.eXsXmXaX&.&.C w.F -.r.F e.",
"8.-.r.r.-.+.D D +.l.+.j +.e.e.r.N.M.g.b.S.S.,Xy.n.i.u.f.l.l.m.k.<.1.<.5.,.d.rXuXy.x.r.g.m.Z.x.B.N.k.k.m.z.m.2Xw.y C r.=.=.-.l -.",
"-.D F D X.D D o.d.v.O.j ,.8.x.:.7.0X0X:.p.bXsXz.0.2.3.3.u.b.dXsX;.E 2.V.j.#.*.%.i.1X0.0.7.;.3.h.eXpXa.Z.z.9.y.q.n.1Xr.=.1X1XF -.",
"-.D D y f X.X.X.d.B.d.D D $.aXn.h N.pXV.0XbXaX0Xx.V.Z.Z.b.,X2X2X' Q a a t y a b i.2XW 7.u.t.g.l.tXZ.h ;.:.z.z.bXNXiX=.B v.v.D D ",
"<.*.,.h f e.=.f V.M.j.-.-.1.aXwXa.Z.Z.uXsXi.1XbXz.d.:.*...W V n n n ! '.}.XX'.J m m + W u.:.x.qXV.<.f X.d.uX0.n.iXbXwX8.F 8.F F ",
"V.j.e.F D <XiXv.<X+.f f e.e.8.e.M.u.;.dXbX' _ T r t t c S ] [..X;X;X:X*XVXPXPXAXOXcX>Xb X g z.1XB.*.l h :.<X$.:.0.iX1X%.F 8.v.F ",
"<Xe.X.f f 8.1XaXV.d.<.l -.1Xe.c.sX7.p > 6 ^ _._._._.XX:X3X:X:XCXCXDXGXFXAXXXZ 8 - H XXOXT x N ;.h y h h *.d.e.8.=.:.B y l 8.r.F ",
"<X:.f y y B F v.M.,.d.D l =.B &.V m ( xXAXCXCXCXCXZXCXVX*X*XCXZX:X{.J - * * Z XXzXSXIXcX3XlX_ o a h X.f D >.wXwX:.X.B F F F 8.1X",
"1X:.y B 8.=.:.>.2.l.M.@.,X2XC > [.AXDX*XP.I.I.H.H.F.L.=XVXCX%X5 # 5 `.{.6XIXJXKXkX| M n x ] 3X[.X w.r.y 0 B F d.V.v.D :.h :.:.8.",
"eX1X0.8.c.s.s.f.f.A.S.sXdXp.r 3XSX%XH.K G U.U.P.T.T.L.G.G.E.5XDX-X;XAXHX6X(.H : 2 v m m o = XX;Xv r w.,Xr.0 l D d.d.x.eX..B =.1X",
"qXpXn.q.q.q.g.y.S.rXmXdX .> vXSX_./ ^ J H 2 ; ; # 3 Y.E.W.R.Q.E.6XzXZ . = . o n < , 6 XXxXDXLXKX>X} S nXiXF f h *.o.V.uXj t D wX",
"a.N.b.x.,X1XN.u.N.pXfX>X> 4XAX; # # # ; - , 5 H K.`.G H.!.W.Q.L.H.OX3X> o n A .XvXKXHXHXcX X! : m lXS ` 2X2XF 8.+.D g.eXR s f c.",
"t.>.;.b.pXpXrXm.i.bXp.T  XFX5 # 3 K L.U.=X=XW.R.`.K., - `.BX^.R.7 * zXvX'.6XLXKXlX>XT X t p b b 9 +X>Xo ` 2Xq.c.O.h o.M.s.*.B V.",
"b.:.h 3.rX0X0X,X7.dXv ~ FX|.H }.%X#XY.P.H.3 @ @ I.J < n J $X!.^.{., = :XDX$X6 < > Q 7.{ N t r M XX;XSX~ c 7.i.v.>.;.;.b.v.:.F 1X",
"v.e.;.f.eXqX,Xn.i.dXO KXOX8 ! Z : o     # @ @ K K.< W i.A F.^.~.T.`.& = 3XXX* S { S < m / ;XUXHXHXzXoX3X} V i.n.eXqXZ.eXV.:.-.-.",
"8.0.:.y.0XrXrXrXnX{ ].xX8   & & : > m ! '.}.=X=X|.X C 1XS 8 R.~.~.&X@X  Z nX] * A ].vXKXUXSX:XH , 6 n [ nXp >Xz.b.B.b.a.:.a.v.%.",
"F r.1X,Xu.eXmXiXnX< SX#X3 H.&XP.$X@X}.}.).6 J ).> N 7.B F ] 5 &X^.~.L.^ o ] LX}.IXKXlX` b t T ' { >X] > [.[ r ,Xa.<.l.qXt.W b.m.",
"-.=.y.i.eXsXmXmX` Z HX%XP.#X@XP.F.4 ; ; # # ; J x W $.f f C M 5 ~.^.!.J.= * ;XVX7 6 v X N ' 7.' X c S oXSX Xp 7.j.<.Z.5.s.n.;.;.",
"e.X.B 7.0X0XdXNX} oXxX6 , < * = * - - 3 K I.R.E.: &.D +.F z D X L.^.!.&X(.= Z KXn [ nX| : * ! ( vXSXKXSX;X].] &.x.#.5.R 0.V.X.X.",
"e.-.B ;.u.;.7.bXm kXXX$ $ 2 , 6 Z '.|.}.%X#XR.P.* W B <.1.z ,.b & E.!.!.E.7 # OXOX: < ! OXSXUXFXkXoXZ < , oX3Xr :.O.O.3.g.*.-.e.",
"d.>.>.e.;.O.;.>X< AX$XG K.E.&X&X{.).! 2 2 , G _.c D &.:...h 9.;.m J =X^./.Q.F.J.CX-XAXLXKX+XA m * * = *   6 3Xc B l ,.N.N.$.9.z.",
"d.e.<.+.D o.q.i.m JX}.`.{.K.H.4 8 ^ [ >X| ) 7 ^ p =.r.:.:.:.8.a.i.m I.W.^.W.W.I.CXVX|.J $     o = * , ).}.6X3XX N B t.:.%.9.y.x.",
"y.a.=.B N &.r.[.) FX: x b Q i.7.>X] T 2 - 3 G.P.X 8.j.5.B.h.,.e.b.7.2 {.R.=X=X@X&XCX7 # $ 2 J H `.*XAXGXZXDX:X_ N &.&.D D &.v.1X",
";.s.8.D B F F ` ! FX< { >XQ V p > m ) ( XX*X!.P.r >.,.j.tX>.l e.<.iX_ J 7X6XzX6XL.ZX`.J.{.}.VXZXPXPXVX=XE.P.{.SXx 7.B q.,XF 1X1X",
",XdXb.=.F F C r XX6X- 5 5 H.P.=X$X$X( ) Z , 3 (.t B B 9.,Xy.:.,.o.C c >X+XNX9X| 7X5X*X:XGXPXZXBXW.R.R.R.W.R.H.AX> { i.pXuXp.u.i.",
"nXNXwXz.r.8.F r ].CXJ.$X%X#XP.I.3 5 2 m A Z J.^ X f N u.dXm.:.:.w.&.x 2XS.MXhX9X8X5XCX*X%X#XR.Y.E.Q.K F.4 G.#X-X> i.,XwX,X;.9.:.",
"aXmX,Xq.,Xw.F C ( xXZ n x X > M ~ Z m ! 8 4 G.J.X a g :.b.x.0.w.w.` r >X9XMXhX9X+X%XZX&X@XJ.G 4 ; K I.=XZXPXUX;X> i.c.c.y.=.8.=.",
"iXbXq.C w.F F S [ kX< A _ ` _ ] M x < / XX*X!.#Xx N %.,.>.:.:.&.F ` c >XcXNXMX9XzX@XZXF.% % H _.4XJXLXxX5X).8 3XQ &.0.s.,Xc.F F ",
"iX1Xq.B h D F F ! xX5 8 8 5 5 G P.$X%X|./ 8 4 (.x W m.g.<.O.o.&.w.9.P T 9X9X8X8XzX`.ZX&X*XCXHXKXkX| T v ] ] n 3X{ g t.0XbX1Xy C ",
"e.d.s...B +.8.w.) AXH H `.$X%X%XK.K.5 : Z 6 7 '.v b i.x.<.#.5.l.%.;.E i | 8X7X7X;XF.ZXCX3XkX].< T [ [ [ Z n ^ [.Q t :.m.pX,Xt =.",
"D 1.<X8.f *.-.&.O FXXX]./ A < > _ } ~ < < , 4 F.^ O ' 0.j.1.j.Z.g.>.I E  .|.=X=X`.8 AX+X> r c M 1 2 2 ) 4XJXJXSXv c :.,.m.,X7.,X",
"U 1.aXx.f $.F C O cX) < * > n Z m n < m _.XX&X*X}.: Q 0.j.1.1.#.t.@.w D.8XU.R.R.F.- 4XOXp r M m  X7XHXJXAX-XJ OXv 7.s.>.,XsXuXwX",
",.g.a.X.%.*.F C r >X3X#   = 8 J.P.#X*X$X/ ! < , ! m _ i.d.F +.8.<X0 Y A.( W.^.W.= * VX*X}.-XAXIXJXkX.XM * c > LXV ,XeX,.,.N.z.rX",
"4.k.a.a.>.e.&.F S _ kX8 J.}.}.$X#XK.3 5 ^ ( / 1 6 ^ x i.j.-.-.<X+.d D.D.H ^.~.R.n o :XVXAXSX-XH J > X X X n A >Xr q.h.U U <.0.,X",
"u.0Xb.0X0.2.D $.&.x KX].'.'.8 1 n S { [ ) 6 3 4 T.#X5 [ 1X=.+.h.e 6.C.P K ^.~.R.c r UXoX[ p.b o n n > / ;XzXDXXXc 9.1.z z +.w.q.",
"rXtX;.pXm.N.B h N r ;XOX= _. XoX] A x > J |.=X*XT.E.H : 7.&.+.e d C.6.+ Y.^.~.Y.n c KX'.m 9X' v [.3XSXLXUX:XAXZ M c.<.1.D -.w.q.",
"pX0XR 0XrXfXo.j C ` / LX, )./ 6 F.P.{.-X|.) J 2 $ , ^ : M W h k 6.C.I o R.^.^.Q.< A PXF.J 8XkXKXnX3X XZ $ , 3X].` 1Xd.1.-.-.r.c.",
"z.i.g u.m.tX5.D ,X2X> vX^ ) / _.$X#XK.7 ; #   $ : Z _.oX> Q q U C.Y w . /.^.Q.I.< ! PXCXAXJX8X;X/ *   * 8 _.3Xn 2XwXo.h X.e.r.8.",
"8.y.B ;.f.N.j.o.W i.~ .XxX).J ( x X $ % 4 F.L.E.$X}.(._.2 O u D.C.d p , ~.^.W.K . .XzX^ T O m +X/ 6 ).7XzXAX] x iX1Xo.h *.V.v.,.",
":.1Xn.t.<.<.l.a.t.p.p.O KX^ - , X o , ^ &X&X&X@XJ.% % % {.O T A.@.0 m J.^.^.E.2 > 3X;X  . . ] >XcXSXFXxX4XXX. ` %.a.h.,.<.qX<XM.",
";.sXeX>.<.<.<.Z.M.qX0Xv [ FX4 4 I.#X$XXX(.Z = &   - 3 L.E.`.| p.0 %.x F.!.~.I.- 8 UX@X$XSXSXIXSXkXOX2 $ vX[.c ,X>.U 1.l.k.z.,Xn.",
"p.fXrX#.-.<.j.l.5.tXZ.7.v +XAXJ.E.L.8 - *     < '.}.&X&XE.H.5 < p V n }.^.^.P.& }.DXCXUXAX_.6 # 1 +X(  X3XA N r.1.1.#.#.,.9.q.q.",
"S.NXfXb.<.d.l.j.l.l.1.s.a ~ SX'.$ $ $ - 5 P.&X*X|.'.2 ; 4 I.T.U.2 2 $ `./.!.J.= LX_.8 =     : J 5XAXFX XA S C -.+.#.#.@.,.a.z.v.",
"m.fXtXm.d.j.B.B.Z.#.<.r.N V [ SX> : ! XX#X@XT.4 % - - J '.%X&XE.G K ; L.BXT.7 XXAX, & 8 / kXAXJXCX6X;XM X &.e.F l #.3.#.,.d.v.V.",
"p.m.u.t.g.s.f.m.N.o.1.1.R W x oXDX$XK.J.7 - % 4 I.Y.#X%X{.J $ # 3 Y.L.L.Q.G.P.HX@X`.5XGXPXGX5X{.-X3XT 9X@.e l.z f l ..$.*.8.0.d.",
"y.t.;.t.b.5.k.m.y.,.l D h W R X +X5XJ.# - 7 '.;X{.U.Y.Y.G J 6 ^ {.=X{.G G.R.VXCXVXZXCXVX*X:X7X4X].~ t S.C.k U z l D $.=.8.e.x.M.",
"-.-.*.a.h.u.pXbXuXaX<.-.u s L 0 T >X5XP.E.%X].^ ! H Y.Y.W.W.{.}.(.8 > $ P.VXVXU.VXCXVXCXDX;X( > S p g P C.6.e l @.x.8.%.e.v.x.<X",
"F F :.M.b.b.yXp.u.$.0 e h R 4.C.S.p.kXGX#X4 - , J |.{.U.#XK.7 - = * * > 6XDX-X5XCX-X'.6 < > c W i.sXD.0 6.C.P e 3.qX<.f 1.r.e.d.",
"X.D qXsXf.L q 0 d Y 6.C.C.C.C.D.3.N x ! 6X6XK.K.{.{.(.8 * * : 2 , 5 XXSXkXoX X] O c b c W q.z.t.dX,XyX3.e C.C.k U k.+.o.v.8.,.B.",
":.>.uXeXR L k.A.D.D.C.D.Y I e w e @.9.a v ;XAX7X%XJ & $ * O m ~ 4XzXSX X< x M V W W 8.x.z.M.x.0.qXsXpXN.e U A.3.w 2.x.-.D f D e.",
"eXb.V.m.R 3.mXMXA.6.I + 0 w Y 6.1.1.v.v.&.p m ( zXcXcXcXcXcXcXKXlX{ v b 7.iX2Xw.N B c.aXuX1X1Xn.eXpXpXtXh e 6.Z.d U d.j.$.f X.h.",
"eXM.B.N.R s k.eXjXhXhXC.Y I w w j 1.B.V.e.z.9.b O v T ~ ( ( ! 2 T V ` 2XnX2X&.-.F f B >.r.c.n.N.N.a.qXqX#.U d C.6.e s x.<Xs.h.pX",
"tXZ.m.eXz.o.R u L u.yXgXhXMXA.4.i q g ;.;.E ;.S.m.u.7.7.' ' | i.aX,Xu.9.w.B *.iX8.D s f 0.n.1X1Xb.3.h.5.@.#.I 6.A.L e o.<Xn.a.m.",
"3.Z.tXN.7.u.rXuX@.g q i Y S.hXMXMXyXu.d w I E D.Z.k.h.a.z.,X,X7.m.,.h R V.iX<Xv.8.8.$.&.g.b.>.t.3.m.3.k.4.L e w 6.k.h q o.b.S.f.",
"tXrXrXp.u.rXuXi.p.u.:.L u q P 4.yXfXMXhXjXp.I + P #.h.h.s.uXpXu.q.s.s.8.c.1X1Xr.D $.=.0.b.a.;.4.k.p.I i w d 4.4.yXMX2.L 2.Z.eXk.",
"rXS.pXtXrXbXaXu.Z.qXS.b.p.k.7.Q u u 4.yXhXhXhXjXD.P e d R B.eX:.0.:.$.&.r.V.8.y y s j ,.h.@.P i w I  .S.yXMXhXfXfXyXg L b.b.m.t.",
"S.z.tXm.sXn.9.0XZ.0X0Xm.z.dXmXuX;...s w u E S.hXhXMXhXS.E i i Q g &...$.x.<X8.t s N i u i i 4.S.hXhXgXMXmXjXD.P i i L k.Z.b.g.t.",
"0XrXfXpXbXm.y.k.u.0XeXm.z.,XiXiX..D D %.9.E P w  .p.gXMXMXjXS.4.q s g o.y.;.u 0 u E u.S.fXhXhXhXfXA.p.P w w P E k.3.4.k.<.;.t.u.",
"m.0XsXeXy.R ..;.3.0XqXm.dXrX,Xi.&.:.8.$.y.,XpXdXP i i L p.jXhXhXMXZ.E d i E k.fXMXmXMXMXfXS. .E i i P @.E p.m.Z.Z.k.,.5.g.a.f.9.",
"y.o.a.b.u.:.u.3.pXfXtXm.uXaX7.W %.a.s.f q.1XbXiXE u.p.;.i w P D.jXgXMXhXMXgXgXfXmXS.E i w i L D.S.k.V.Z.N.f.f.z.0XZ.3.,.g.g.y.t.",
",.j U g.N.0Xg.k.bXfXZ.k.qXrXi.y.l.qXl.@.N.1Xm.u.2Xs.w.8.b.b.E q w P 3.A.A.k.L d 0 w d L g.pX<XB.sXj.#.<.e.h.a.u.eXsXV.@.,.>.y.wX",
"5.U O.>.a.N.:.Z.rXyXk.f.k.z.wXtXg.6.#.#.N.y.9.m.1Xe.-.X.:.m.dXsX4.P i d d d L 3.h.,.o.,.B.qXv.d.eX,.O.#.j.r.%.f eXpXB.a.Z.Z.z.aX",
"l.l.@.o.t.N.:.Z.pXeXk.Z.2.O.M.M.a.a.j.qXqXh.2.f.@.;.o.X.O.*.S.sXeXz.y.x.2.;.2.k.g.,.>.B.M.X.O.D O.h l ,.,.8.0.y.n.y.2.2.0XrX7.7.",
"l.jXg.#.;.t.R t.sXl.>.Z.5.O.qXN.wX<X<X<XV.V.g.@.;.2.l.l.g.2.z.uXbXwXv.:...>.qXeXB.Z.pXmX<Xa.e.O.,.<.j.V.g.r.n.m.,X:.t.2.b.qXn.dX"
};
