/* XPM */
static char *_15da144ae9e45c3d4d704ccb60c4395WpV2rNHcIxDMKvQ2[] = {
/* columns rows colors chars-per-pixel */
"64 64 256 2 ",
"   c #50503A",
".  c #795A3A",
"X  c #6C4F34",
"o  c #756334",
"O  c #53554B",
"+  c #695745",
"@  c #785C47",
"#  c #705D56",
"$  c #576456",
"%  c #78644A",
"&  c #6A6658",
"*  c #786B55",
"=  c #706F56",
"-  c #54706C",
";  c #697566",
":  c #787766",
">  c #70736E",
",  c #514840",
"<  c #8E3C1E",
"1  c #945213",
"2  c #AF5417",
"3  c #976519",
"4  c #956A15",
"5  c #A86818",
"6  c #865838",
"7  c #92562F",
"8  c #A75927",
"9  c #A75936",
"0  c #B75B36",
"q  c #B85627",
"w  c #946A33",
"e  c #AA6828",
"r  c #B86729",
"t  c #A9752B",
"y  c #A66838",
"u  c #B76838",
"i  c #AD763C",
"p  c #B97739",
"a  c #B7762B",
"s  c #C35B29",
"d  c #D55E30",
"f  c #CA682B",
"g  c #C56839",
"h  c #D56C38",
"j  c #C7783A",
"k  c #D87839",
"l  c #CE742B",
"z  c #E67639",
"x  c #EB7437",
"c  c #C65F1D",
"v  c #885946",
"b  c #A95D45",
"n  c #846847",
"m  c #976748",
"M  c #896956",
"N  c #887358",
"B  c #977657",
"V  c #8F744A",
"C  c #A96946",
"Z  c #BA6746",
"A  c #A67746",
"S  c #B97745",
"D  c #A87855",
"F  c #B77954",
"G  c #AF6A55",
"H  c #877968",
"J  c #967B66",
"K  c #90736D",
"L  c #AD7A66",
"P  c #C56945",
"I  c #C77A47",
"U  c #D47948",
"Y  c #C77B53",
"T  c #D77B53",
"R  c #D36D48",
"E  c #E57B45",
"W  c #EE7C4E",
"Q  c #C66752",
"!  c #768578",
"~  c #76896F",
"^  c #6A866C",
"/  c #B88736",
"(  c #B38636",
")  c #C98337",
"_  c #D5883A",
"`  c #E7873D",
"'  c #E9933D",
"]  c #97845A",
"[  c #868653",
"{  c #B9844A",
"}  c #A7855B",
"|  c #BA8557",
" . c #B48F4F",
".. c #9A8669",
"X. c #898777",
"o. c #87947A",
"O. c #989479",
"+. c #928871",
"@. c #A98968",
"#. c #AE9174",
"$. c #B1A778",
"%. c #9EA57B",
"&. c #CB834C",
"*. c #C78748",
"=. c #D78748",
"-. c #CA944A",
";. c #D8954A",
":. c #CC8C54",
">. c #CD8C5C",
",. c #C78654",
"<. c #D38454",
"1. c #D48C53",
"2. c #DB8C54",
"3. c #D48C5B",
"4. c #DA8A5C",
"5. c #CA9656",
"6. c #D39354",
"7. c #D4945A",
"8. c #DB935D",
"9. c #D49B5B",
"0. c #DC9B5C",
"q. c #D89753",
"w. c #E78748",
"e. c #F38947",
"r. c #E7974A",
"t. c #F69849",
"y. c #E68956",
"u. c #E69859",
"i. c #FA9856",
"p. c #F58A54",
"a. c #DAA45C",
"s. c #D3A74E",
"d. c #F8A74C",
"f. c #E6A65B",
"g. c #F8A758",
"h. c #EAB55B",
"j. c #FBB55A",
"k. c #EBAA4D",
"l. c #C88C66",
"z. c #CB9866",
"x. c #DC9463",
"c. c #D49C64",
"v. c #DD9C62",
"b. c #D89869",
"n. c #D09470",
"m. c #E29C63",
"M. c #E49C6B",
"N. c #E99965",
"B. c #F49969",
"V. c #EA976E",
"C. c #DCA36B",
"Z. c #DAA767",
"A. c #DEB468",
"S. c #DAA774",
"D. c #CFB178",
"F. c #E4A56B",
"G. c #E4AB6B",
"H. c #ECAB6C",
"J. c #E7A566",
"K. c #F6A867",
"L. c #E8B56A",
"P. c #F9B669",
"I. c #ECAB73",
"U. c #E8A875",
"Y. c #F6AA77",
"T. c #ECB373",
"R. c #E9B877",
"E. c #F3B374",
"W. c #F4B47A",
"Q. c #FCB37B",
"!. c #FDBC7B",
"~. c #F7BA76",
"^. c #FAC25B",
"/. c #D4C77A",
"(. c #FBC568",
"). c #FAC678",
"_. c #FDD779",
"`. c #E9C873",
"'. c #FFE07C",
"]. c #5E7C86",
"[. c #817F84",
"{. c #788987",
"}. c #799798",
"|. c #718D8E",
" X c #7499A5",
".X c #79AAB6",
"XX c #72ACB0",
"oX c #68948E",
"OX c #73B4C9",
"+X c #78C1CB",
"@X c #898A85",
"#X c #8A9587",
"$X c #999688",
"%X c #879898",
"&X c #969A96",
"*X c #8E8C8C",
"=X c #A59B87",
"-X c #B79A88",
";X c #A7938B",
":X c #99A699",
">X c #90A794",
",X c #A9A489",
"<X c #A9A796",
"1X c #B5B390",
"2X c #8999A4",
"3X c #88A8A8",
"4X c #97AAA7",
"5X c #91B0B3",
"6X c #A8B7A7",
"7X c #B8B9A8",
"8X c #ADB4B1",
"9X c #AD9EA1",
"0X c #C89C87",
"qX c #CAB08D",
"wX c #EBB984",
"eX c #FDBC84",
"rX c #FDBC8B",
"tX c #F6B886",
"yX c #E8AC89",
"uX c #C2B6AA",
"iX c #BBC49E",
"pX c #BAC5AC",
"aX c #B8C5B7",
"sX c #AEC3BA",
"dX c #D1CC95",
"fX c #ECC485",
"gX c #FDC384",
"hX c #FEC48C",
"jX c #FECB8C",
"kX c #F7C885",
"lX c #FDD789",
"zX c #FECC93",
"xX c #FCC896",
"cX c #FED394",
"vX c #FFDA9C",
"bX c #FBD698",
"nX c #E9CE93",
"mX c #FEE388",
"MX c #FFE598",
"NX c #FFF595",
"BX c #C6C8B5",
"VX c #CBD5B7",
"CX c #D4CDB1",
"ZX c #FED6A5",
"AX c #F1D0AD",
"SX c #FEE5A6",
"DX c #F9F4AA",
"FX c #D0E0BB",
"GX c #91B4C5",
"HX c #B2CAC9",
"JX c #BEEAE1",
"KX c #D4D7C6",
"LX c #C8D3CA",
"PX c #D5E4D2",
"IX c #EAE8CF",
"UX c #DCECDC",
/* pixels */
"Y S l.3.S Y T 2.E.gXJ.q.;.*.9.SXcXZ.I tXZXZXSXZXhX6.,.>.n.tX!.q.H.I.S ,.Y Z yXrXT.R.Q.Q.&.&.zXbXgXv.hXhXbXSXcX,.*.S =.*.<.u.T B.",
"u.<.b.V.3.T I I :.H.*.e *.8.Z.c.Z.G.>.,.l.nXxXz.I.6.4.U.U.>.7.E.*.S y S 9 P rXtXC.R.u.1.g S U.R.R.c.z.W.wXkXwX{ 3 { J.6.2.2.P W ",
"2.*.&.I Y U I <.H.~.6.p 2.8.I.5.9.T.c.y y xXvXH.y.U T yXyXZ A nX{ 8 S F.S b l.n.C.hXC.v.3.I T.R.cXR.>.I.S.U.S.c.T.~.Z.6.eXeXY x.",
"=.I j y u <.&.<.v.gXH.p j <.jXG.p T.vXtXU.bX!.u.w.R s d I u } bXD A ,.C 7 6 m C n.S.A ,.&.0 6.I.zXS.9 S { U.wXvXSXzX5.i T.E.S P ",
"q.;.2.S g N.x.u I.W.Y.=.2.u.zXgXJ.).zXI.&.u.r.P.u.w.k k k u 7 7 m l.yXl.#.#.m } B } w V S P K.eXU.:.7 8 F tXV.yXzXvXgX9.5.7.&.&.",
"E.J.J.I I tXxXI.rX&.j j N.u.J.F.E.C.z.l.>.M.m.Z.y 3 u Y :.b.D.0X0XqX0X-XqX%.M qXyXuXD.w 1 r u.eXF.c.u 9 Z x.Y x.v.hXeX{ p x.N.4.",
"!.0.&.u u V.rXZXeXm.<.g 8.tXC.c.rXn.m B B #.-X#.O.O.-XuX1X<X6XpXCXKXCX-X<X;XM L < L S.F U y.j <.8 S Z 0 Z P Q 4.4.x.I e u u.B.2.",
"hX6.p 8 8 u &.Y.Q.N.K.I I >.y z.D B #.KXuX<X7XLXHXHXHXHX4X2X4XHX7X$XX.& O # K m G G Y g B.i.2 5 8 u S u P 0 R Y 4.&.p *.1.<.y.Y.",
"wX,.8 I N.<.:.8.H.eXV.u V.xXD X O.KXKX8X2X|.|.].].].2XGXGXHX*X> O H [.@XuXIXAXG Q Q d W i.e.h p.P T W q < 0 Q 0 rX3.e x.I <.u.2.",
"cXkX7.x.M.m.F.E.N.Q.x.0 Y L C M *X&X@X> @X%X2X2X2X*X].].].2X9XLX9XuXKXKXuX#.L b Q d d W i.i.e.B.R 9 W yXB.R R P Y.3.x.hXS a 4.eX",
"kXjXW.N.v.v.J.J.eXQ.N.T 7 G yXuXK X.H H H # & # O > *X%XGX2X|.%XBXCX+.# M v < P d d W p.g.j.K.K.w.2 d B.yXW R Q <.S U.bXp 1 I eX",
"Z.).E.E.W.W.E.H.N.y.y.T < b n.v + X @ % # & > *X*X;X].].GXGX XoX@XBX=XM v b Z h x x e.K.j.(.P.h.w.E d s R R R R T S H.hXI e u I.",
"Z.a.6.E.zXjXjX!.u.y.R 0 Z Z b v M # @X&X}. X.X X*X@X= & %XGXOXXX- * uXAXL G tXU e.' j.^.^.h.P.P.p.` x c h s Q B.I y 2.W.m.1.I E.",
"G.7.I v.jXhX).H.w.k E W W Q 0 b J K ;X@X! ].- O @X: N H : %XGX+X5X$ # 0Xl.b g k t.d.^.^.h.k.(.P.i.W W W E s y.Y.N.,.7.Q.E.2.*.W.",
"E.F.&.J.kXkX).K.K.h z E d P R d 9 6 @ O O - - oX{.* L S.J > GXOX.X{.# M yXn.2 y.t.j.^.^.j.;.j.!.g.x e.i.=.g B.I.xXhXR.hXW.:.*.5.",
"7.v.1.v.kXzXhXE._ k E E T W T b 6 v B X.#X X3X4X:X@ F tXG M 2X3XOX.X*XX L AXT U t.d.(.(.(.r.t.~.i.` w.y.y.u y.B.Q.Q.C.H.m.v.C.,.",
"I J.Q.W.G.cXZXG.l z w.p.u G ;X$X&X:X:X&X*X> > $XJ G I I F #.# GXOXOX2X+.. | rX4.' ' d.^.(.g.t.e.W y.1.8 u d d x i.w.u.eXK.I I.I.",
"&.8.x.I.zXZXSXzXz e.K.Q.b.n.$X%X].> - $ $ O $ X.B ,.g f u Y B : OXOX.X#XM m n.Y._ ' d.(._.(.t.x z P l.n.U.E d d p.p.Q.Y.B.N.8.l.",
"q.;.p 3.tXrXxXZXk ` ).W.Y 9 . X & $ $ - oXoX}.4X@ D 8 h k j I 6  XOXOX.X@Xv 0 p.' ' g.).mX_.g._ c.yXAXnXb.u.e.E i.2.J.2.u.y.I <.",
"u.q.S l.C.l.M.rXr.u.tX .m 6 v H +.@X&X4X3X3X{.$XL G u W w.w.=.A ; }..XOX2XK u h e.t.P.)._.(.k.=.n.n.] n w E.!.=.;.j *.u.K.U Y M.",
"f.u.c.C.x.&.x.U.*.b.qXo.$X:X5X4X&X;XH M * o A n.T P 9 P Y Y u.z.B ~ XX+X.X$Xl.u.d.j.P.).P.d.E g 7 X X o o 5.).E.-.p -.E.!.7.v.U.",
"f.J.c.>.F ,.M.M.Y wX1XO.&X}.> $ H O.;XuXqX} i &.w.p.g g 4.x.Y.9.wX] ^ XX.X&Xb.g.j.j.!.P.g.p.R 0 6 * [ %.iXnXMXfX9.-.F.9.9.H.F.U.",
"u.f.:.A i | b.b.y C.% V @.} z.D.-X-X+.H % o i u.k t.E h Q.Y.f.u.gXD.- oX6X<Xl._ i.j.P.P.u.m.n.L #XsXaXpXVXFXMXSX{ -.6.p *.v.I.Q.",
"-.J.7.I S Y >.F #.CXV #.qX@.] % @ K X.$X=X} 6.r.t.e.g.U Q.H.a f.M.fXO.~ BXBXz.p ` g.P.K.z.l.uXaXJXJXHX3X>X}.1XdXw >.{ Z.T.-.G.!.",
"R.fXR.6.U =.I 7 =XBX$ - ; !  X5X4X2X&XO.B p r.d.^._.q.*.tXF.;.r.=.{ n 1XdXMXR./ j g.L.R.D.dX8XHXOXoXXXXX X|.>XBXN n.wXxXzX5.R.a.",
"bXSXkXH.N.u.,.6 =XLX! :X4X4X}.oX> & # B A *.d.d.^.(.-. .xXY.u.=.;.:.w qXdXNXlXa.S Z.R.D.$.=X%X XXXXXoX^ - oX3X7XM #.tXhXR.5.a.-.",
"cXMXR.u.N.x.>.B $XLXH B n o % B #...K J A A a.P.(.k.i ,.tXyXM.6.&.*.6 dXdXDXNXnXqX$.CX,X;X$X> > - - }.6XJXUXPXaXn D l.M.b.7.*.2.",
"zXcX9.{ &.&.,.} ,XBX* B @. .@.#.% * N ..@.#.A.L._.;.*.0.M.>.z.:.I &.D $.dXDXDXnXdX:XVX> $ $ : *XpXLXUXFX5X! > uX@.C F V.tXW.P <.",
"hXhXc.A p I &.| X.LX> : = ; ; ! %X4X6X<X..] 5.`.).s.G.E.7.{ ,.,.8.x.#.V iXdXdXiXLX%XLX2X9XLXUXIXCXqXN V +.: : CX#.y Z rXxXtX9 S ",
"m.U.U.| S &.7.z.O.LXH ! #X4X4X4X}.! ; $ * } D.bXlX5.G.H.m.8.F.E.<.7.{ w 1XiXLXHXGX|.JXsXaXBX=X% n #.$.#.J * X qXC 9 r Y.xXU.y :.",
"I 8.rXn.S <.<.:.% PX<X:Xo.[ * % ] } J n = & X.1XdX[ | M.B.u.K.gXK.K.( ( %.>X3XXX X^ LX<X% @ V B * = = O.uXKX;X;XZ Q u y.eXtXz.R.",
"I u.ZXU.Z <.U S o LXo.& O = N J V V N H O.<X&X7X<X% D U.Y.y.&.J.u.q.( /.%.}..XXX; $ HX6X% n V n 7XaXAXIX;XK v yXZ y.g g eXZXtXkX",
"9.H.F.&.1.2.U S 6 qXBXO O $ ; ~ }.>X4X:X=X+.* + O.V } A.u.k y.u.H.1 s./.~ XX+XXX* + HXsX3X6XKXUXUXBX$.9 7 y 6 ZX9 B.R q 3.tXU.xX",
"b.T.m.J.q.u.1.I | ] CX; {.:X>X4X>XoX^ ; X.O.O.: ; ~ n c.G.=.=.Q.q./ ^.D.~ XX+XXXV X aXHXHXFX6X! ; = 7 P u.&.7 C.P tXw.q <.U.4.yX",
"S.kXI.gXa.0.I :.| % IX&X*X#X: : * ] #.O.X.~ ; - }.>X~ } !.q.4.Y.e q.r.A ~ +X+XXXn 6 FX4X%.$.[ o = B 7 h g.k 5 a r.K.z s I 3.Y U.",
"hXzXz.zXL.).p u A 6 7X<X& $X<X,X..@.H * : o.4X8X3XoXo.* n.&.<.r e f.k 7 |.OX+X^ % w FX~ [ dX$.n $.0XS w.P.j.(.h.P.t.h k =.T 4.yX",
"ZXrXF fX).mX;.t | #.O.IX= #X+.: ].|.}.&X<X=XJ # $   ; * m Y u 1 K.g.f b %X.XOX].* J PX|.^ iXCXFXIXqX/ ;.(.^._.`.lXr.l w.<.x.x.V.",
"U.U.i G.R.lXa.) U.wX% KX~ o.o.&X4X3X}.- O   X X + = ~ ,Xv F 1 *.lX;.2 b {.GX5X].M ..PXHXPXFX1XdX~ o w s._._.'.mX(.;.f j I m.U.l.",
"b.C.S :.J.~.h.*.,.D.B <XaX>X~ $Xn v + O O > K > &X&X{.#XM m 6 5.L.t 8 b ].5X&XK v 0XCXH ~ o [ $.[ [  .h._.'.mXlX5.1.I j &.Q.Q.N.",
"z.eXR.u.f.u.K.J.0.A.qXo IXo.$ & X v M K [.;X;XK K $ O O J X }  .{ 1 b G @X5X*X# @ qXuX  X o } qXCXnXmXh.(._.`. .-.J.u.y.I.hXeXQ.",
"5.cXjXf.J.r.;.!.P.kXxX] O.FX$ - |.4X9XK M b b b @ # # # #.m ] z.8 q 9 L 2X2X@X# = <X[.&XLXPXUXVXiXqX .h._._.Z.G.b.*.8.Q.H.G.E.E.",
"wXMXjX6.u.u.J.~.J.jX!.| V ,X<X%XGX].K L T 0 < G L L K m L v N M C g Q -X%X}.X.X =XpXBXLX7X#X; $ ^ %. .a.P.J.-.9.v.4.8.0.7.9.9.9.",
"/.DXSXL.f.K.!.H.H.E.u.M.V N <X$X+ X < Z W s 9 L #.L m C n.B {.&XG Q L ;X5X}.H @ AX%.M @ X X X : 6XVXFXA.s.T.*.*.<.N.8.6.9.Z.G.L.",
"D.mXlXG.f.H.gX!.E.q.B.M.S D ..CX# v b T w.E <.G @ @ 7 ,.Y.L X.&XG 4.@.*X6X XH -XCX= . n V ,XdXPXsXaX1Xw 4 *.u.1.I u.y.1.v.Z.T.~.",
"D.fXA.a.J.a.H.Z.R.&.N.y.S | w -XVX1X..l.B.p.N.C.B L Y y.K.I 9 m U E./.%.o.! $XKX:X#XiXCXpXpX6X4XsXaX../.5.t E.I u U U T 1.7.u.H.",
"Z.C.a.A.T.a.R.fXS.>.g U p | { o ,XpXX.% I w.t.E.F l.Z w.j.r.I R h g.'./.~ >X7X7XLXHXFXVXpXaXLX6X&X..o R.).4 *.j g Y <.<.x.M.H.W.",
"U 1.5.Z.J.Z.vXSXZXxX<.I 8 3 ( 4 [ dXpX=Xl.p.i.' r T g 2.P.P.=.=.k w._./.$.7XBX4XHXsXVXCXdX7X#.N D 7 5 ) (.k.5 y 8.U.M.<.M.Y.Y.Q.",
"y.<.5.L.F.5.R.Z.Z.,.7 8 a -.s.^././.iXKXn.<.d._ =.rXB.8.(.).i.y.e.K.`.lXnXdX,XBXLX1X$.] V 6 A | z.gXh.4 j.).a ) v.hXb.p 4.F.0.K.",
"P I hXvX9.t t 1 p ;._ / _.'._.h.a. .o  .nXhXeX6.G.ZXzXJ.K.!.!.!.!.eXkXMXnX$.D.qXV w A i { H.J.6.kX`.R.A.5 L._.1 ) / &.x.M.b.7.gX",
"M.b.gXhX-.j q.;.5 _ j._ _ / 4 4 t *.A.R.z.5.fXZ.Z.~.!.P.P.f.u.N.8.F.:.| { { { A { ,.H.I.I.!.K.0.bXZXcXS.t -.).s.3 / m.4.I p S E.",
"gXH.Q.f.a r ` ' ' z ` 2 1 2 ) J.6.F.b.W.S.w i >.:.2.u.u.=.k j g u U p I Z.G.C.c.{ { M.I.W.tXF.c.S.rXtX:.i e a.(.e ) v.M.<.u p H.",
"eXI.E.g._ ` d.t.t.x l c 2 8 2 8 8 :.b.c.y y ,.I r 2 j U k =.U j j =.I v.hXW.b.b.S y F x.U.U.| e tXrXY.S j e ) k.-.r u v.tXI.H.jX",
"kX!.eXP.u.k.j.g.g.e.e.z e.E 2.y.8 e 5 r a p H.u.u.r j u.w.4.8.x.hXW.p y S F b.tXS.F 9 u Y >.:.Y tXB.y.s k f ) ) P.;.a *.Y.~.G.P.",
"R.wXkXT.6.f.).(.r.g.j.d.i.E j j _ _ a =.=.2 r g.u.) u.K.J.W.v.{ 8.M.&.u >.M.Y.tXM.4.Y 4.M.<.I I k d l c k ' ;.' j.P.;.a 2.E.).L.",
"bXnXbX).A.R.).A.A.s.f.j _ r.g.k._ r.r.g.g.r.` 2 c f i.u.J.bXR.i ,.M.b.x.M.Y.Y.N.j I I u.u._ _ u.r.' t.t.' j.k.h.(._.;.t 9.`.).L.",
"nXfXnXnXxXSXvXZ.`.L.lXJ.s.h.a.) l d.d.g.g.' t.g.w.l _ e j gXtXc.x.&.Z P u 0 0 q 2 q r w.g._ ;.g.k.k.d.j.k.'.'.NXNX_.( ( ~.kXA.A.",
"`.D.cXR.vXR.Z.eXrXhXfXR.G.kXvXjX;.) r 5 _ d.j.g.r.g.r.r._ 3 ( t I h s 0 h h 2 2 k r 2 a l ) k.j.^.(.lXNXNXmX^.( 4 t ( T.kXT.U.Z.",
"kXkXMXbXZXT.C.Y.F.rXjXR.D.`.kXkX*.j _ _ =.) l r r.g.J.(.!.a.A.6.r f E e.w.f s h w.r.r.f.k.(.mXmXMX_.A./ 4 4 (  .A.A.a.H.m.3.M.S.",
"W.tXvXjXG.S &.6.0.eXkXwXnXxXwXU.,.7.0.6.f.P.gX).p e 5 *.L.)._.(.P.t.i.P.' 2 f K.K.P.lXMXMX).-./ w 4 (  . .Z.fXjXkXL.0.J.I.M.I.x.",
"U.3.v.T.J.9.v.0.zXSXcXR.xXbXn.,.<.U.x.p 0.gXlXjX:.6.J.*.t 3 t -.j.k.d.j.t.=.r.P.lXL.-.t t 4 ( `.fX/.R.kXR.S.Z.S.kXwXm.u.K.Y.V.M.",
"x.u ,.F.~.gXG.T.MXSX`.D.fXhXU.F.Y.hXY.,.E.eXE.F.jXH.x.7.G.G.-.t ( s.k.h.P.L.) 5 3 3 w i A.jXR.R.MXR.9.c.Z.F.S.b.zXbXE.;.0.c.Z.hX",
"v.*.,.v.F.~.9.`.kXkXR.A.L.G.gXzXF.I.v.c.E.F.8.Q.Y.x.3.&.v.Z.R.).) / 5 3 5 t p 5.U.9.5.c.kXbXeXG.jX9.{ 9.I.U.5.i hXcX).Z.!.!.T.cX",
"L.L.-.-.f.W.a.wXvXkXR.).a.) R.T.A.A.R.kXjXa.7.J.<.4.<.I *.*.).mX_.L.a.E.J.1.C.W.F.C.Z.tXU.*.S { { p p 1.2.x.M.U.W.F.u.f.).gXz.z.",
"`.NXL.;.q.0.{ Z.vX`.Z.).Z.*.).`.fXR._.).R.J.H.m.8.U.Y.tXE.a.R.lXlX).J.6.I x.hXhXtXhXvXZXrXF.v.) 6.u.E.!.K.V.U.U.W.9.0.J.E.kXR.wX"
};
