/* XPM */
static char *_8aae4e64caf40cbfde2e5241aad3810dz7QN53ooXO9YLqg[] = {
/* columns rows colors chars-per-pixel */
"64 64 256 2 ",
"   c #773500",
".  c #862C00",
"X  c #973A04",
"o  c #893508",
"O  c #994907",
"+  c #964415",
"@  c #955118",
"#  c #8E490D",
"$  c #A64605",
"%  c #A65505",
"&  c #B6580B",
"*  c #A64616",
"=  c #A75819",
"-  c #B65918",
";  c #B74A13",
":  c #9A6612",
">  c #AA651A",
",  c #B8651A",
"<  c #AD6912",
"1  c #985823",
"2  c #92512B",
"3  c #A64B23",
"4  c #A85926",
"5  c #B5592B",
"6  c #AC5E34",
"7  c #98682F",
"8  c #A96727",
"9  c #B66727",
"0  c #AB7827",
"q  c #B87429",
"w  c #BA6833",
"e  c #A97939",
"r  c #B97737",
"t  c #AC6932",
"y  c #CA5919",
"u  c #C8661D",
"i  c #C97019",
"p  c #C5582A",
"a  c #C86829",
"s  c #C8792B",
"d  c #C96935",
"f  c #C77937",
"g  c #D87A3D",
"h  c #D76E30",
"j  c #EA7636",
"k  c #B77846",
"l  c #AF7445",
"z  c #9B6340",
"x  c #C87948",
"c  c #D0774B",
"v  c #E67B47",
"b  c #B9842A",
"n  c #B8883B",
"m  c #B5943A",
"M  c #AA8A32",
"N  c #BDA43F",
"B  c #C68739",
"V  c #C69B3D",
"C  c #D18C34",
"Z  c #D2973A",
"A  c #B98948",
"S  c #BC9444",
"D  c #BB934B",
"F  c #BC9D4C",
"G  c #B59747",
"H  c #B78B55",
"J  c #BB9453",
"K  c #BB9C54",
"L  c #B79959",
"P  c #AD924D",
"I  c #BDA34B",
"U  c #BCA357",
"Y  c #BA9B64",
"T  c #B2916C",
"R  c #BBA568",
"E  c #BAA777",
"W  c #AAA273",
"Q  c #C78848",
"!  c #D68749",
"~  c #C39C4B",
"^  c #C89649",
"/  c #D5964A",
"(  c #C98A54",
")  c #D38A53",
"_  c #D68954",
"`  c #CC9353",
"'  c #C49B54",
"]  c #CC9B53",
"[  c #C4945C",
"{  c #C49B5C",
"}  c #CC9C5B",
"|  c #C69457",
" . c #D49C54",
".. c #D49D5C",
"X. c #D99557",
"o. c #E48A4A",
"O. c #E5964C",
"+. c #E69857",
"@. c #ED8D4E",
"#. c #C8A54B",
"$. c #D8A54B",
"%. c #C5A253",
"&. c #CDA353",
"*. c #C4A55C",
"=. c #CCA55B",
"-. c #CCAB5C",
";. c #C8AA57",
":. c #D3AB5B",
">. c #D8A758",
",. c #CCB25B",
"<. c #D7B55B",
"1. c #E6A658",
"2. c #F7A35A",
"3. c #E4B35A",
"4. c #F2B25C",
"5. c #E4A34F",
"6. c #C79968",
"7. c #D89967",
"8. c #CB9A72",
"9. c #D3906C",
"0. c #E99866",
"q. c #EE986E",
"w. c #C3A464",
"e. c #CBA363",
"r. c #C3AB65",
"t. c #CBAB64",
"y. c #CBAC6B",
"u. c #C7A66B",
"i. c #D4A563",
"p. c #D3AD63",
"a. c #D3AB6C",
"s. c #D9A768",
"d. c #C9B469",
"f. c #D4B363",
"g. c #DCBA64",
"h. c #D4B26B",
"j. c #DBBC6C",
"k. c #D9B569",
"l. c #CDAC73",
"z. c #C7A977",
"x. c #D8A975",
"c. c #CBB778",
"v. c #D3B373",
"b. c #DCB474",
"n. c #DCBC74",
"m. c #D5B47B",
"M. c #DBB37B",
"N. c #DCBC7C",
"B. c #D5BA77",
"V. c #E6A868",
"C. c #E3B46C",
"Z. c #E7B868",
"A. c #F6B569",
"S. c #E7AB76",
"D. c #F7AA75",
"F. c #E4B374",
"G. c #E3BB74",
"H. c #E3BB7C",
"J. c #EAB877",
"K. c #F3BB7C",
"L. c #F6B876",
"P. c #F7A96E",
"I. c #D8C56A",
"U. c #DCC273",
"Y. c #DBC27B",
"T. c #D7C77B",
"R. c #E5C467",
"E. c #E2C373",
"W. c #E3C37C",
"Q. c #ECCB7C",
"!. c #E8C777",
"~. c #F7C676",
"^. c #E7D37D",
"/. c #F7D47A",
"(. c #F5C76E",
"). c #DCC35F",
"_. c #BAAE8C",
"`. c #AC9D88",
"'. c #C7AA86",
"]. c #D9AD86",
"[. c #CAB888",
"{. c #D5BB84",
"}. c #D8B887",
"|. c #C8B795",
" X c #D9B996",
".X c #E8AD86",
"XX c #E5B383",
"oX c #E4BD83",
"OX c #EBBB83",
"+X c #E4BE8A",
"@X c #E8B88C",
"#X c #F6B886",
"$X c #E6BB97",
"%X c #F3B98E",
"&X c #D8BCA5",
"*X c #D5BEB6",
"=X c #D7AFA3",
"-X c #D2AD96",
";X c #DCC484",
":X c #DAC589",
">X c #CAC599",
",X c #DAC597",
"<X c #D0C988",
"1X c #E4C283",
"2X c #EBC384",
"3X c #ECCC84",
"4X c #E4C38A",
"5X c #EAC48C",
"6X c #E4CA8B",
"7X c #EBCC8B",
"8X c #E6CB84",
"9X c #F8C788",
"0X c #ECD388",
"qX c #F5D589",
"wX c #E8C696",
"eX c #F6C896",
"rX c #EAD494",
"tX c #F8D896",
"yX c #D8C6A5",
"uX c #DCD8BB",
"iX c #D8CBAF",
"pX c #E9C8A6",
"aX c #F5C8A3",
"sX c #E6D4A9",
"dX c #FAD6A8",
"fX c #E5CDB6",
"gX c #E6D7BB",
"hX c #F3D6B9",
"jX c #EBE5B6",
"kX c #F5E3B7",
"lX c #DCD4C3",
"zX c #E7D8C6",
"xX c #F6DCC6",
"cX c #F0DCD1",
"vX c #EBE5C9",
"bX c #F6E5C7",
"nX c #FFECDB",
"mX c #F8E8D7",
"MX c #FDF8DA",
"NX c #ECEAD1",
"BX c #FEF5E3",
"VX c #FEFCE3",
"CX c #FEFDED",
"ZX c #F9F7EB",
"AX c #EEFDFC",
"SX c #F5FEF4",
"DX c #FEFDF4",
"FX c #FEF6FD",
"GX c #F5FFFD",
"HX c #FFFAFF",
"JX c #FAFFFF",
"KX c #FFFDFF",
"LX c #FEFEFE",
"PX c #FDFDFD",
"IX c #FCF5F7",
"UX c #FAEBE0",
/* pixels */
"DXDXCXZXCXDXGXGXKXFXJXDXSXSXDXIXDXDXDXJXFXKXLXDXGXPXCXCXKXFXKXJXLXLXKXDXDXCXFXDXDXGXJXJXLXLXFXFXKXKXFXKXLXLXKXKXGXGXKXKXGXJXJXLX",
"LXDXDXDXCXPXJXGXKXLXJXZXDXPXKXFXFXFXLXJXKXKXDXDXJXGXSXDXLXLXKXLXLXJXKXKXDXFXKXLXDXDXGXJXLXIXFXFXKXKXFXFXLXLXKXKXJXJXKXLXLXLXJXIX",
"GXAXJXJXDXPXKXKXFXLXDXDXDXLXKXFXJXGXJXLXKXKXFXFXLXGXSXSXKXFXLXPXLXLXLXLXKXKXKXLXJXGXJXGXLXJXLXKXLXLXLXKXLXDXLXLXJXJXKXLXLXLXLXJX",
"AXAXGXJXJXFXKXFXKXLXDXDXDXFXFXFXGXGXJXLXFXIXDXDXLXDXPXPXLXDXDXDXDXDXDXLXKXKXKXKXPXGXDXFXPXPXLXLXPXDXDXDXDXDXDXDXDXLXFXDXLXLXLXLX",
"LXLXPXLXDXGXPXGXDXDXCXCXBXBXDXDXIXFXDXDXDXCXZXIXDXmXDXDXBXZXCXMXMXMXMXMXVXVXCXCXDXDXDXDXDXDXDXDXDXDXDXCXCXCXCXDXDXLXLXDXLXLXFXDX",
"KXKXDXSXZXNXBXNXNXbXbXkX'.T  XxXmXmXcXzXvXNXxXbXbXvXvXfX`.aXxXsXT.T.0XrXsXjXjXjXgXzXgXlXzXvXlXuXuXuXuXuXuXuXgXuXcXBXLXGXLXLXFXLX",
"FXDXSXVXjX:XwX5X7XN.!.S.1 + k .X9..XwX X>X>X X X}.6XwXY o q.=X'.P I <.).T.;XT.<XpXpX$X$X X,X,X<X,X&X>X>X,XyXyX&X*XmXSXAXJXLXDXLX",
"LXDXZXVXsXR { =.&.&.1.Q @ c #XS.. o.%X7X<XrX}.m.!.:.a.7.* q.$Xz.F N N N I I U ;.wXaXeX#X.X+XY.6XwXyX,XyXpXaXpXyX=XUXPXSXJXLXFXLX",
"LXGXAXDXuXT R K f.:.i.| | ].wXx.o.& ! L.T.T.rXe.C.<.C.Q . q.@Xm.S #.^ D Y 6.Y J x.S.S.L.@ i.Q.2XwXwX$X+XM.+X$XpXpXUXDXGXDXLXLXDX",
"GXJXJXDXuX_.}.a.W.>.i.S.9X%X$Xs.P.C y s ^.^.U.p.3.B ` i.A D.@XM.-.f.s.b.m.].N.y.XX7.+.A.w  .C.!.+XXXOXeX7.2 l $X&XnXDXDXLXLXLXGX",
"FXKXDXCXvX[.+X6.A V.P.! q.q.D.S.>.4.o.s R.R.!.=.8 = H m.N.1X5Xy.y.U p.dXeXeX4XY M.OXr r 8 X.' p.OX6.D._ d 6 H wX&XnXCXFXKXLXGXGX",
"KXIXDXDXbX'.i.] / P.! + 5 + 4 >.f.(.+.s Z.R.U.F ) s.oXwXrX:X}.6.c.0Xb.C.| eX7Xw.m.dX|   J.K.t.U v.[ X.9 X +.J.+X&XnXIXIXFXDXGXAX",
"KXFXFXDXhXT *.V., , * 4 %X.X8.x.d.^./ B (.&.I %.K.#Xe.;XrX:X4Xu.d.d.H.=.  M W.r.U l.XXS.x.i.E.B.y.H = f @.P.9X%X,XnXDXKXKXKXJXGX",
"GXKXKXIXvXR *.3.> , d x .XaXwXY d.I.:. .e.G %.:.F.2Xt.Y.rXrX1X{ T.t.D Q +.>.i.t.r.U M.9XJ.[ Y.7Xh.e.Q V.~.f k eXpXnXIXLXLXJXLXDX",
"GXDXDXIXNX_.r.:.> q X.7.@Xz.+X7XE.:.#.K H t.Z.g.P =.#.R.Q.F.b.p.L v.9.c c S.@Xl.d.W.1XeX| ' 1XtX6.| ] ^ Z.Q 3 ( $XmXDXLXGXJXLXFX",
"SXDXDXCXNX_.d.!.L.L.S.9.x.7 k J.] ~ G %.y.b.;.I.j.p.#.<.^ 7 n G.B.}.8.9.o 0.eXl.K Q.~.s.7.A w.Y a.G.t.%.-.A.f o $XmXDXLXGXGXKXFX",
"DXDXDXDXNX|.R U.3.A.wXz.6.9.w O Q J.6.6.H.Q.G ,.Q.f.&.~.>.0 m !.7X}.-Xx ; q.#Xu.} ^ 4.0 # l 6.K e.tX,Xu.p.A.j ; ].MXCXDXDXLXLXKX",
"LXDXDXCXNX>Xd.g.5.A.:XwX@XV.X.w f X.V.F.F.qX).#.<.#.:.~.Z.#.$.<.3X[. X8.o 0.9XJ.V.% C 4.) 9.XXa.] n.,XE &.A.h ; [.VXCXDXLXLXKXKX",
"DXLXDXDXNX>Xd.,.O.V.z.:X4Xw.h...@ w 1.(.^.).)./.R.$.R.<.#.<.1.(./.0XwX6.6 V.J.Q.(.B C 4.S.@X7Xe.G.K c.6XA / v d ].VXDXLXLXLXKXKX",
"DXLXLXDXNX|.j.^ 9 ! l.,XrXc.Y.a.0.9 n >.#.N ,.).,.M m M m &.^ >.#.R.0Xe.K.9Xf.!.(.V b (.eX5X}.d.t.v.L 4Xs.p y h .XCXDXDXLXLXLXJX",
"DXLXLXDXNX[.h.B $ h 7.x.oX7X7X].S.( < : N #.m f.U m n S } [ J h.~ %.0XI.<.3.>.:.E.I M f.k.M.:Xl.w.qXJ i.s.r ; ; .XBXFXLXLXJXJXLX",
"LXLXJXLXzXz.V., a o.9.l A Q.5X5X.X..n b $.$.{ L J e.t.s.7.A L 8XC.%.I.I.m ~ ^ D j.T.U G } H. XR e.k.>.` ` ( d * .XMXDXJXJXLXLXJX",
"PXGXGXLXxX8.2.& @.D.s.e r ~.OX4Xx.' #.;.!.9XXX8.H 6.x.H.b.y.B.!.:.~ I ^.a.7.{ J U ^.U.h.eXwX Xx.J i./ r s.| 5 * @XBXLXGXLXLXDXLX",
"DXJXGXLXxX7.2.& V.K.7.l r 9XoXwXG.p.3XW.K M.9X8.6.6.+XoX{ p.E.R.j.F I I..X9.a.d.I d.rX6X.X.X@X8.F.L.s 9 p.6.r 2 $XBXLXGXLXLXLXDX",
"FXLXGXLXbXe./ # &.n.U K ' G.6Xm.p.f.j.rXP *.2Xn.w.6X6X2XC.0 0 (.E.d.&.J.P.D.s.<.U Y sXeXS.1 ( %XK.L.! $ { m.( XX$XZXJXGXLXKXIXFX",
"DXKXGXLXbXL  .n k.B.K *.%.b.;XB.D F U :Xt.K <.qXtXT.2XqX3.  C R.^.^.~ A.D.f M U t.L u.eXL.O _ L.D.+.9 X.9Xm.2X+XwXBXGXGXLXKXFXDX",
"KXFXFXIXbXR j.I.qXa.| ] !.!.eXoXd.R E ,XW.A V (.^.;.' K.= B $.S g.I.V Z @.$ Q 3Xk.!.I.9X2.X ! #XV.= + +.2X7XqX:XyXVXAXGXKXKXFXDX",
"IXKXKXIXvX<XT.t.e.A r f J.=.J.9X8Xc.W z.a.Q V <.,.I D Q f qX(.M ,.R.Z i . 0.tXk. .$.;.&.2.h ) 9Xi.8 r ( =.rXY.:XiXVXGXGXKXFXKXLX",
"LXLXFXDXbXT.R L [ ..a 5 V.! g c eX XE :XOX>.- % >.C.D A L.V.J.~ <.4.C i o.2.<.R.Q ! } A Z.+.B 3.n V.S.8.' n.0XrXiXCXPXLXKXFXKXKX",
"DXLXIXCXjXE c.z.x.r . c L.x O c #XeXc.T.K.! = h / ~.&.Q A.` ] &.$.$.% h A./.).M 9 D.#X[ s.^ M Q n 9X@X8.D ~ U.rXsXDXDXLXKXKXKXJX",
"GXJXDXCXsX{.wX+X}.H.! 1.C.k = c K.OXZ.3.$.> O B #.Z.<.b X.B  .#.$.C & Z (.;.,.b o D.S.e p.n.K P k.7XaX8.D ~ -.;XuXCXFXDXKXLXGXGX",
"JXGXDXVXsX:XwXwXW.p. .A.K.e n L.#X] :.#.s O 9 &.<.#.M b C O V./ 5.b s 4.&.n.F.A # D.D.t i.OXJ K *.r.,Xz.' ] R.7XfXZXDXDXKXJXGXGX",
"LXGXDXVXhX'.eXi.K.>.>.!.y.r.G.Q.!.F *.D = Q C.G.t.G ~ e > Q D.) O.q V <.' oX#Xx + #XP.B  .C.] %.L r.N.t.~ D J.tXzXIXDXDXDXLXGXJX",
"KXLXDXVXvX|.wXA ~.&.6.t.w.N.^.I.H.v.B.t.s.K.C.U.6.J B C O.@.x w Q ^ m m v.}..Xc X q.2.O Q V.X.C.W.W.g.!.-.0 D }.fXIXDXCXSXJXJXLX",
"DXDXKXFXMXE ;XG s.&.5Xv.L d.U.Q.J.qX1Xm.9XeX=.] s.x - u j @.- r } { S ~ H.}.#X( 3 c ! d Q k 9 X.J.E.<.Z.;.M m R fXIXCXCXSXGXPXLX",
"DXKXKXLXVXW I.I >.| B.u.U K ;.K.( #Xv.6.@X#X+.A.0.* $ $ y y f L.a.P ~ !.3XOXS.k 3 k _ X.( 7.4 w 1.&.Z.I I I G R fXDXCXDXSXDXFXKX",
"FXLXKXIXMXE T.P F h.Y.Y.Y.G D L.v + Q J ].#X@.h p * Q 1.C $ B G.R T ` Z.9XL.x 5 6.l.{ i.].].4 5 _ Q G.*.U *.t.{.fXDXDXLXDXLXKXLX",
"KXLXDXCXMXE c.r.W.qXY.n.Q.t.=.Z.q - L.` q.+.X u v c Z.Z./ @ r a.E u.*.<.!.L.5 6 ].T Y m.wX].[ x w _ N.c.r.U H.+XfXDXJXLXFXFXFXLX",
"KXFXPXCXMXR l.H.3X3Xj.U D D } /.1.C 2.c ! o.& 5.X.| <.,.s.A J c.z.E B.U.Q.J.( k u.z.1X4X+X].@Xk + P.2X{.z.l.s.[ fXGXJXLXFXFXKXLX",
"KXPXDXVXMX'.6.6.:.~ -.t.{ e.S $.3.b O y y g $.<.!.h.8XY.b.b.}.6X$Xz.U ,.C.6.s.J.i.H.Y.wXeX$X$Xx.# S.W.;Xm.9XQ r gXDXLXLXFXFXLXLX",
"GXGXFXDXMX Xx.( B ^ H.1X{.L F $.i i 5.Q > @ 0 3./.j.T.:XY.7XB.}.}.x.} Z.P.1 J G.k.K.-.U.eX}..X%XL.(.rX0XL.0.A.s. XVXDXGXPXPXDXDX",
"GXGXKXIXnX$Xx.r 9 q J.oX{.L :.4.i i L.b.Q > ^ <.R.I.d.:XY.t.8X1XM.x.L.L.S.A 9X9XC.: $.~.H.}.Y @XqX!.3XJ.+.g B  . XVXDXGXSXDXDXCX",
"AXGXPXFXUXaXS.4 9 ( 9XOX}.r.U / y j K.M.F.: > ^ $.Z.rX4Xg.$.Z.Q x _ @.O.~.6.V.~.~.b i 2.qX}.Y R ;.0X>.Q 8 X.g Q pXDXSXSXDXDXDXDX",
"PXPXIXIXBX Xx @ X.#XeXrXn.W.e.` y j 9X X9XA 8 Q Z ~.!.9XJ.V +.f 3 d % < J.F.Q L.Z.B X & +.a.u.L B.d.k 9 #Xq.* k fXDXSXDXKXJXPXGX",
"LXLXIXIXUXT l 0.%Xx.1XtXt.W.tXOXa _ aX].6.F.s./ s 2.9XJ.Z.A.y a ) ..V ^ >.~.>.1.3.q % i h D.C.| v.l.H S.q.. ( $XuXLXFXLXKXKXJXGX",
"IXLXLXDXxXz 2 7.9Xe.4X;Xr.u.4XN.0 D.aX$X6.x.K.1.- 9 V.9XA.O.y - S.b.:.Z.S f.,.m &.B i i - P.A.] v.6.F.7.* v %X XlXLXFXKXKXLXJXGX",
"PXJXIXDXZX'.H S.G.v.6Xc.[.Y { Q o 1.aXdX%X..O.2.<   e OXQ 4 > X.+X}.#.).,.,.I.I.f.Z.s % q 3.~.!.7X+X) 4 _ L.5X|.lXKXDXDXDXLXJXGX",
"PXKXFXDXUX X:XwXH.t.{.,X,X[.t.^ 0 n l.9..XD.c = r | b.5XS.t ` 2XN.7X#.,.;.I ^.U j.J.B q Z.] #.R.5XS.t O.~.9XqX:XlXKXDXDXDXFXLXJX",
"JXKXDXDXMX>X:X:Xd.d.4XhXwX7X,.#.I.r.l.9.5 h x x [ 7X4X{.c.B.:X1Xj.%.3XqXN.R c.L j.g.>.n Z.~ S g.5XH k J.>.(./.7XgXDXGXGXDXDXDXDX",
"JXLXLXDXMX>X<Xc.u.L {.eXrXH.I.I.,.I.2X( * 5 9.x.6.Y.4X[.:X6X4X7Xg.:.3X6X6Xc.l.L *.g.Z.m :.g.G h.9X[ D S ^ #.Z.tXgXDXGXGXGXDXDXDX",
"LXLXLXDXCXyX[.c.N.=.6.m.tXE.j.!.#.A.+.. w 0.XX7.R E ,Xc.W.9Xh.7X3XE.n.G r.c.z.Y l.3XR.,.#.<.K 1Xs.S.K.s.| ` X.7.zXDXDXJXGXJXLXKX",
"PXLXLXLXDXiX|.u.3Xj.S f.W.d.I :.A.2.- 9 ` qXeXm.U R <Xd.h.J.-.!.3XY.8Xp.2X}.6.H H.3X,.<.^.,.*.{ 7.0.V.K.7.} w 4 gXDXDXDXGXPXKXKX",
"DXDXKXKXIX*X|.w.I.Z.Z./.p.t.W.J.2.p h ! k.0X8X0Xm.B.Y.d.t.s.p.k.E.d.8X+X.X[ H ^ g./.n.n.3Xt.k.] > > C 9XL.` * c xXDXFXKXGXGXFXFX",
"DXLXKXKXFX*X Xl.t.3.<.g.:.*.tXtXd p 9 / s.0XW.0XrX7Xn.h.h.h.p.w.I G oXeX.X7 l A >.!.3X0X7XW.h.C.Z.f = f A.^ $ x hXDXDXKXGXGXFXKX",
"PXSXLXLXKXlX&X$Xb.Q.#.-.W.R  XwXc 3 s.h.h.B.I.^.3XOXG.H.[.E R Y L w.a.9XS.@ l ( =.-.:.^.Q.3Xe.6.[ ( r q Z.>.% c hXDXDXFXDXSXDXDX",
"PXPXLXLXIX*X&X&Xw.=.e v.:X8.`.'.9.].wXc.z.{.L d.u.u.b.1X<X_.W '.[.[.6.x.7.@ x [ s.G.d.;.U v.].l.x.x.i.C.U.>.= k zXDXFXDXSXSXDXCX",
"JXGXJXDXZXlX|.'.T 7 7 E  X_.`._.=X X|._.E W L L z.'.[.[.|._._.|.>X[.|.@X9.z l ].w.R R E _.[.}.$X{.;XP B.d.*.1 k xXIXLXKXIXGXDXDX",
"JXGXJXDXSXUXcXvXgXzXxXkXvXbXcXcXcXcXzXzXlXuXsXhXfXhXgXgXlXlXcXzXvXuXfXgXfXpXpXpX,X,XyX>XiXyXiXyXpX,X_.>X,XwXz.$XUXFXLXLXGXLXJXPX",
"LXJXPXDXDXCXCXCXCXDXCXCXCXPXFXGXDXDXCXDXSXDXCXCXDXDXCXCXGXGXDXDXSXDXDXCXCXDXZXUXCXCXCXCXCXDXCXDXCXCXZXZXDXCXVXZXFXFXDXDXDXLXLXPX",
"LXLXJXSXCXCXDXDXDXDXZXIXDXIXIXPXJXDXDXDXGXJXDXKXKXKXGXPXKXKXDXLXGXGXGXLXFXFXIXKXDXSXGXPXGXGXPXDXLXLXGXGXLXLXDXBXFXKXJXGXLXDXLXJX",
"FXKXDXDXDXDXPXPXLXLXLXDXDXLXLXJXJXDXGXJXLXLXJXJXPXPXPXPXDXFXDXDXGXGXGXGXJXJXJXJXLXJXJXJXJXJXJXLXLXLXGXAXPXKXFXLXFXLXJXGXLXKXKXKX",
"KXKXLXDXSXPXPXJXPXLXLXDXIXLXLXLXJXJXLXLXLXLXJXJXGXLXKXFXLXLXDXLXJXJXJXGXJXJXJXLXLXLXLXLXLXJXJXLXLXKXAXGXJXLXDXDXKXKXGXJXLXKXKXKX",
"FXKXDXDXPXPXJXGXJXJXPXDXDXIXPXKXPXPXKXKXFXDXJXJXPXDXFXFXKXDXGXGXIXLXLXPXSXGXJXIXKXFXKXFXKXKXDXLXFXKXGXGXJXDXVXDXFXKXJXGXLXDXFXDX",
"FXKXLXLXLXJXGXGXPXPXPXDXDXLXKXPXPXKXKXLXDXDXLXJXDXDXKXFXDXJXGXGXLXDXFXDXPXJXDXLXKXKXFXKXLXFXDXFXKXLXGXAXDXDXCXDXKXKXGXGXDXDXDXDX"
};
