/* XPM */
static char *b44808702a6a4cf085f32a3571bbc0511ZgP7sPAy0Ei0tdW[] = {
/* columns rows colors chars-per-pixel */
"64 64 204 2 ",
"   c #7F3600",
".  c #924F18",
"X  c #934C14",
"o  c #95531A",
"O  c #98581E",
"+  c #9B5C22",
"@  c #9A5421",
"#  c #A25E25",
"$  c #AA5C24",
"%  c #A05E2A",
"&  c #A26226",
"*  c #AC6127",
"=  c #A5612A",
"-  c #AB652D",
";  c #AA6C2D",
":  c #A36C2B",
">  c #B3642D",
",  c #B16A2E",
"<  c #AE6733",
"1  c #AD6B31",
"2  c #AE6C38",
"3  c #B36D33",
"4  c #BA6C34",
"5  c #B56B39",
"6  c #BA6F3B",
"7  c #AE7234",
"8  c #AD7639",
"9  c #B47235",
"0  c #B97137",
"q  c #B5733A",
"w  c #BB753B",
"e  c #B57A3C",
"r  c #BC7A3D",
"t  c #C06E36",
"y  c #C2743C",
"u  c #C17A3E",
"i  c #BD7642",
"p  c #B77C42",
"a  c #BD7C42",
"s  c #BF7E49",
"d  c #C27542",
"f  c #C87742",
"g  c #C47C43",
"h  c #CA7C45",
"j  c #CB7748",
"k  c #C67E4B",
"l  c #C97D4A",
"z  c #D17F4B",
"x  c #D07E46",
"c  c #D07F50",
"v  c #B78144",
"b  c #BD8244",
"n  c #BF8149",
"m  c #BF894B",
"M  c #BE9253",
"N  c #C48246",
"B  c #CA8147",
"V  c #C5834A",
"C  c #CB844B",
"Z  c #C48A4C",
"A  c #CC8A4D",
"S  c #C38846",
"D  c #D2854C",
"F  c #DA854E",
"G  c #D28A4E",
"H  c #D8894E",
"J  c #C2914F",
"K  c #CB8551",
"L  c #C58C51",
"P  c #CD8C52",
"I  c #CD8F58",
"U  c #D18551",
"Y  c #D98650",
"T  c #D48C53",
"R  c #DA8D54",
"E  c #D38D59",
"W  c #DA8E5A",
"Q  c #C69254",
"!  c #CD9253",
"~  c #C99957",
"^  c #CD935A",
"/  c #CE9C5B",
"(  c #C59959",
")  c #D39255",
"_  c #DA9257",
"`  c #DB9955",
"'  c #D4955A",
"]  c #DB945B",
"[  c #D49B5C",
"{  c #DB9B5D",
"}  c #D39A57",
"|  c #E28F58",
" . c #E2955C",
".. c #E8955E",
"X. c #E2995E",
"o. c #E9995E",
"O. c #CEA25F",
"+. c #D4A05F",
"@. c #DCA15F",
"#. c #E6A15E",
"$. c #D69660",
"%. c #DC9462",
"&. c #D69B61",
"*. c #DC9C62",
"=. c #DE9F6A",
"-. c #E19561",
";. c #E89760",
":. c #E39D63",
">. c #EA9D65",
",. c #E49E69",
"<. c #EA9E6A",
"1. c #CEA065",
"2. c #D5A462",
"3. c #DCA364",
"4. c #D6A966",
"5. c #DBA966",
"6. c #DDA569",
"7. c #DDAB6B",
"8. c #D6A86C",
"9. c #DEB16E",
"0. c #DCAE71",
"q. c #DFB571",
"w. c #DFB873",
"e. c #E3A365",
"r. c #EBA266",
"t. c #E4AA65",
"y. c #E4A56A",
"u. c #EBA46B",
"i. c #E4AB6C",
"p. c #EBAB6D",
"a. c #F3A56D",
"s. c #F1A96E",
"d. c #F0A665",
"f. c #E3B16E",
"g. c #ECB16D",
"h. c #E6A671",
"j. c #EBA672",
"k. c #E4AC71",
"l. c #ECAC72",
"z. c #EEAE78",
"x. c #F0A572",
"c. c #F3AD73",
"v. c #F9AC74",
"b. c #F3AE79",
"n. c #E4B372",
"m. c #EBB374",
"M. c #E5B975",
"N. c #ECB977",
"B. c #E4B679",
"V. c #EDB379",
"C. c #E4BB78",
"Z. c #ECBC7B",
"A. c #F2B375",
"S. c #F9B477",
"D. c #F2B975",
"F. c #F4B57A",
"G. c #FAB57B",
"H. c #F3BB7B",
"J. c #FBBB7D",
"K. c #E5C07A",
"L. c #EBC37E",
"P. c #F2C17E",
"I. c #FAC27F",
"U. c #EEBD81",
"Y. c #F5B781",
"T. c #FBB581",
"R. c #F5BC82",
"E. c #FDBC82",
"W. c #FFBE89",
"Q. c #ECC183",
"!. c #EDCA84",
"~. c #F4C382",
"^. c #FEC286",
"/. c #FCC384",
"(. c #F5C985",
"). c #FBC887",
"_. c #FAC886",
"`. c #F6C689",
"'. c #FFC58B",
"]. c #F4CB8A",
"[. c #FFCB8B",
"{. c #FFCD8D",
"}. c #FECB8B",
"|. c #F4D28B",
" X c #FDD18E",
".X c #FFC793",
"XX c #FFCB91",
"oX c #FFCC92",
"OX c #FFCE98",
"+X c #FFD192",
"@X c #FFD593",
"#X c #FFD493",
"$X c #FFD995",
"%X c #FFD599",
"&X c #FFD49A",
"*X c #FFDA99",
"=X c #FFDC9B",
"-X c #FFE29E",
";X c #FFDEA2",
":X c #FFE4A3",
">X c #FFEAA4",
",X c #FFE3A8",
"<X c #FFEBAC",
"1X c #FFEBB1",
/* pixels */
"C w E T w d U T c.E.e.` ) N ` :XW.:.N P.$X|.-X=X#XN.) b ! N.P.+.t.d.d.#.` @.g.g.#.P.D.g.I.-X[.I.I.t.~.{.=X:X+Xm M p ^ V I %.K =.",
"] K -.,.E C d B T A.` 9 N ' e.:.A.A.p.m.N.(.(.4.n.i.i.i.m.V.Z.7.` D H  .@.d. XI.` g.t.t.#.P.g.I.P.g.i.M.m.B.U.^ O s 6.I I I i I ",
"E V k k B B i K c.A.C , ) ` p.A X.G.J.+.5.#X$Xf.6.k.u.i.i.N.).*X_ D t.G.#.@.` S D.A.! +.@.@.#.g.{.$Xi.P.i./ 6.&.B.U.6.I T.W.c E ",
"T B d < 3 U A C :.E.u.9 r )  Xg.b R.+XH._.*X#X~.i.D.D.u.i.m.H.E.#._ d.S.` ! #.t./.I.S A @.@.g.g.+X/.r ! ^ h.n.&X1XoXI i Y.Y.i i ",
"] E ' i q %.] 9 A.J.p.S ) 3.#X/.3.{.H./.{.n.H.%X*.e.*.{ u.A.H.S.E.D g A u ' J.F.i.A.' { *.) A.J.D.*.7 A i.{.&.V..X;XW.$.E %.k k ",
"G.j.u.C B G.{.l.^.A 9 e [ { @.` m.n.~ I.=Xi.{ e.A 3 w ` u.S.J.E.D w A -.` ` { Z *.k.y.l.p.P u.E.E.) q q ' E.L ' =.W.W.c i %.<.E ",
"W.-.C < 1 *.'.%XJ.3.@.b ) D.{ 3.#X5.v 3.m.3.' B w * B c.c.:.` B   O K y.' E *.y.y.A.k.{ ,.A %.E 3 - 9 9 P k.*.*.I $.s % i %.<.c ",
"W.E 5 # & 2 m l.m.[ e.S e ! ; } L.2.9.i.) ) { B h 4 _ s.R G U 5 d 6 w C ,.F.E.b.l.W.l.5 w i k $ > w N 0 g { '..XE k s k c c %.T.",
"T.T % i ' P Q &.i./.m.) i./.` +._.}.=X X[ Z B 0 C U  . .y $ f A r.-.E E K b.OXK &.Y.W.T.K > j k f >.] # X O P y.Y.b.i E i W W %.",
".XW.*.*.i.6.i.i.3.H.)._./.J.@.p.{.}.}.m.! V Z w C F y y h u h B b.x.E ,.E s =.h.$.E E %.k 5 i i W  .>.a.,.< < V h.h.z..Xk i E T.",
"W.oXA.&.&.&.k.7.Z. X{.$XI.i.e.g.).P.~.i.} [ } w B H y y D Y G d u.:.E j.' . - k q 5 2 k h 6 f j D D G.;X+XB < k I P F.OX< @ k W.",
"u.T.z.z.H.H.Z.8.(.=X_._.H.t.t.t.N.~.{._.H.~.p.V B ` U h u h F w w i k T + o ] *.% V ] -.l d U | h C a.G.'.k.E I K k z..Xs < i j.",
"*.*.E V.+X+X`.C.4.#XN._.}.p.g.m.3.D.).~.P.~.i.m C ] R h y u D N < C :.T o ; c.P = u.W.c.f > f z Y h ] T -.u.y.y.s p L Y.h.I s Y.",
"b.$.i *.'._.~.Z.~ L.4.P._.3.{ D.e.u.m.i.f.M.4.Z ' p.R ] a.] N g < A *.A w P ' q w c.E.u.j > y z Y u R G T ' =.F.$.I I Y.Y.I k T.",
"c.,.P k.XX`.Z.n.M.(.7.M.D.3.+.t.c.m.m.Z.{. XZ./ i.v.;.x.E. .r r c.c.X.N ] u.P ) e.s.:.;.R y Y a...h  .T ' u.y.z..X.XY.W.Y.$.K I ",
"$.*.' 6.~.].].!.$X=XZ.P._.}.D.{ e.:.i._.:X:XH.! 3.{ G >.r.C C ` >.:.] g ] ` q u.E.] w C D 4 h v.;.r.W._ C u.j.h.Y.Y.Y.8.$.=.Y.K ",
"s 3.`.V.n.].,X].U.].Q.Q.`.R.n.y.` ) A Z.I.i.@.{ :.p._ t y X.S.S.G.a.u.X.X.R h ] ] $.1 + 1 w <..XR s.S...Y | r.;.l.*.R.E.6.P F.F.",
"Z ! *.i.XX;X1X,XU.1.0.OX`.k.m.F.J.*.Z 3.e.[ ) B d.r.D 4 > B u.G.J.I.{ w B ] D h T A.[ 8 p P j.x.C D F z | Y | r.u.{ E.3.j.j.%.%.",
"{ V r ! R.W..X1XU.( 1.=X`./ 6.m.N.D.P._.i.} } G r._ F D x u R r.J.{.t.b ) e.u.{ b.{.~.8.L L :.>.{ H D R v. .R r.j.] *.A j.<.k U ",
"u.) V ! =.I &.XX.X0.w.OX~.2.k.N.2._.-X>X{.7.) r  .h F ..F x F B t.I.D.P.H.[ y.).'.&X%X}.&.n *.c.J.s.r.>.v...T G ] B s *.W.C C <.",
"p.:.-.>.E k E z.R.OXU.U.~.V.H.N.P.$X$X$X-X_.+.9 X.h D F t h  .G e.M.P.-X}.b b t.y.'.*X&Xk.^ j.W.S.A.p.) B D B , g g P G.'.U -.x.",
"u.u.] U l E ,.Y.R.;XU.=.V.R.A.e.[. X(.P.(._.P.e.} H ....F R >.:.g.m.L. X~.~ e q Z 6.`.:XoX' ' j.X.` ` u , y ) y P V e.' ' E <.c.",
"*.u.K 5 5 c %.T.R.OX0.2.V./.^.e.f.5.f.f.4.f. XN.r X.s.S.G.u.` :.A.D.I.N.D.H.` q K ! e.&X;XI g E _ u B G H A e.u.*.A P i V P z.E.",
"J m.' i i c k h.Y.k.( 7.R.^.XXc.g.} t.J.m.P.$X+.; X.:.p._.e.N :.g.A._.D.D.'.k.C N ] ! i./.y.C g _ 9 u p.J.X.e.'.u.' s 6.V.Z l.Y.",
"n._.m.P k k d + $.Y.0.U.R.E.:.>.X.A X.)./._. XM.e r N @.J.t.) :.C B t.p.D.#XJ.A u.XX*.L 2.&.3.F.) , 9 u {.).P ' '.{ k.'.'.*.=.*.",
" X:X}.y.=.$.K 2 ^ OX.Xz.[ ] B ] R B ) u.f.P.$XP.: : 7 { ^.A.` ) ) G 5.#.+.m.e.C F.'.H.k.B.V.Y.{.} 9 r r e.A.3.) *.E.J.'.E.I &.&.",
"|.=XZ.[ =.%.I K =.oX.X&.L %.A >.X.R _ @.3.7.{.$XS ; 7 ) c.c.e.G B S #.M.5.i.i.l.H.l._.oXU.U.R.R.@.} m.+.Q N.J.} e W.:.:.*.B P P ",
" X X3.p s K k $.j.h.z.I K u.-.v.c.p.s.J.D.5.f. XN.A C X.` _ ) B G A g._.Z.7.t.^.F.' m.).Z.Z.0.6.2.t.#X~.[ N.{.3.P j.] c.b.,.K s ",
"{.~.3.9 q k l <.j.k -.%.E ] R >.r.p.D.^.).l.3.m.g.X.r.a.R C H Z ) A 3.H.P.f.2.I.E.P ' V.V.U.6.6.P.[.-X$Xf.P.#XN.*.E ] '.;XF.< q ",
"3.3.k.V i I E x.x.i K -.u.] A A u.S.g.! @.u.#.X.s.d.v.v. .) e.A.) H 3.D._.m.*.A.c.B L y.Y.A.6.[ H. X_.[.~. X$X XZ q P c.OXj.+ ^ ",
"N ' E.] i U c W -.d d c j.W D K I.}.p.b e G H  .r.a.d.>.r.e.p.).d.u.m.m./.m.) :.<.C K v.F.j.:.B } @.S 4.M.{.+XR.[ C ) ] '.F.^ W.",
"B { &Xu.i U j j j c j 5 K 6 g ` A.I.A.! Z C B X.R X.| R r.:.! @.t.p.e.@.m.l.` s.v.] -.W.b.>.r.g ) ` 7 J i._.~.3./.i.:.$.'.'.`.R.",
"%.j.e.C A G D t F D D > X - R R D.I.f.m.I.A.t.{ G ` S.r.) A A t.m.e.} ` u.l.l.c.:.e.e.p.A.E.c.C h H ; = $.R.L R.F.}. X` ) R.V.R.",
",.A.3.3.{ #.H h o.H H C C B $.*.).N.i.D._.[.J.+.@.D.J.A.p.H A A.#XH.3.[ { *.:.e.i.3.5.p.p.e.) r |  .h 3 p k.^ k.e.y.S.S V y.*.F.",
"6./.n.).+.@.u A u N ! i.'.m.k.V.D.i.g.A.g.D.e.A e.g.e.A.J.` C g./.m.[ ! A ) 3.H.H.V.n.m.m.3.E T r. .C r q z.R.6.p.{ @.e e P L k.",
"'.{.[  Xm.H.r 9 , S 3.n.=X+X~.oXm.m.}.D.{ ) ) t.p.X.N r.A.G Z @.i.3.Z N ' ' { H.{.{.L.M.P.~.m.g...B > 3 s Y.R.P i.p.e.A B Z I y.",
"+XR.v `.'.*XP , H J.D.2.}.$X].~.m.D.^.e.C N A ^.^.G._ ) ] B B G p.m.L Z i.[ b @.=X:X Xn.~. XM.[ p.] d N y.V.&.S e.J.p.` P L *.*.",
"k.0.8 i.D.{.#.N #._.J.+.~.%XC.( G.u._ a r r N p.s.{.d.u B C G G [ m.3.] l.! b i.-X:X XH.{. Xn.Z J.S.x.y.'.z.' &.)._.) w P ,.k.^ ",
"&.2.p ! u.J.d.G _ p.D.e.~.oXB.M p.X.Z ) ] _ ] :.R p.:.N ] >.U P r T ' { e.P [ {.{.m.n._. X{.Z.i.E.r.c.*.Y.6.$.*.'.S.G 9 T F.A.=.",
"/ R.m.3.@.{ A.#. .e.p.m.~.~.`.V.g u C S.G.S.G.e.R h _ u.E.G.) f N w w A ` { i.^.).~ ! (._.f.n._.{.] p.` k.z.6.$.P ` p.] u.'.Y.R.",
"M %X{.7.3.! } ^.D.'.J.p.N.{.,XV.) R  .l.>.U W >.E -.T.E.v.u.D C C h B  .u.A.c.) ) S { ~./.n.m.D.R.S.' L V.h.h.y.X.C _ S.s.j.V.V.",
"B.:X{.[ / 3.g.J.d.I.A.e.k.i.V.6.' T l g w h %.>.C >.v.W d C C A Y C B _ ] :.p.e.' 9 y.+X^.D.H.[ e.S.{ &.'.k.] $.] ) ` { ` ` *.*.",
"U.,X:Xm.{ e.A.t.S.A.p.{ R ] k.F.C D j f C :.G.b.E T U q 3 g C W r.R D -.>.-.e.u.R q :.+X^.J.J.! [ S.k.l.Y.&.Z Z H {  .H ` y.h.z.",
"0.&XoXl.{ p.J.S.J.` X.r.k R A.T.U C l h U >.a.-.B w r 5 q P %.c.r.R R p.S.e.' ` ' ] >.p.p.y.{ ! i.g.i.Y.&.&.] k N _ _ _ ] y.z.Y.",
"j.E.u.:.s.u.A.g.g.S H X.d C %.W U j l W W W U K i V E a a *.j.G.R B R l.G.*.P T u.A.{ A ] T b A G.3.A 2.&.z.l.Z 0 u B G U ' *.h.",
"] <. .>.s.e.p.S.D.{ u B 4 C ] *.%.W W <.u.%.E :.c.$.E P %.y.' A P ' y.m.D.i.[ { :.e.) C A ' ' ! m.2.7 b h.Y.*.i 0 h D D ] e.z.V.",
"C K D e.e.@.[.-X X_.! A 3 ^ V.A.c.<.<.-.] K C c.oX%.P *.A.h.L Z l.A.G.A._./.3.} T ` ] T ) p.D.i.i.m.~ Z k.h.] g _ d.X.D e.c.l.R.",
"E P ] G.g.g._.M.-X-XL.R.Z *.Y.] P -.j.v.x.] U x.u.] $.*.=.6.9.|.{.'.H.n.}.+X2.q A y.u.' *.A././.N./.).M.n.i.R.p.X.).-.4 ' y.$.l.",
"C d ^.{.i.i.3.M.(.|.Z.7.3.R C N U e.^.c.:.a. .;.Y p.u.*.[ Z.<X-X|.Z.8.R.;X'.' P G e.u.` { p.f.2.Z.(.C. X(.~.(.&X3.m.) P :.:.e.E.",
" .` ^.+X/.m.! ~ $X-X XZ.m.X.T D p.c.H.{ G W D Y W a.e.{ ~ 2.-X-X<X+Xq.8.%X=Xl.P g C ;.c.p.g.m.5. X$X-X XO.[ Q } m.l.{ { Z , w :.",
"W.H.H.~.).i.[ 2.>X>X$X_.J.c.a.>.X.:.S.e.{ e.R R s.u.{ e.f.9.|.>X<X=Xw.8.}.%XA.%.r u u.{.).D.J.D.P.~.-X(.J 7.[ } J.A.*.{ T 9 w s.",
"+X`.n.M.M.f.P.{.L.L.9.[ ] ..R h g ] D.S.p.u.*.e.J.A.3.V._.C.!.!.Q.B.k.Z.}.F.*.] u - w { u.p.g.D.N.m._.D./ H./.m.^ 3.) 3.^.c.e.^.",
"P.~.K.K.9.5. X%X4.O.~ A _ ;.R 0 C X.G.l.[ ~ ) i.p.p.3.m.P.q.q.M.*XB.^ Q P Z ' S.;.h * 0 e.S.S.D.m.l.e.p.[ y.'.A.L e.} P m.G.s.J.",
"K.!.!.!.4.5.}.H.Z.9.4.[ ] a.X.f T X.c.p.3.3.f.L.H.H.i.5.n.M.q.2.0.[ L ^ k.F.E.T.X. .C G p.s.@.t.e.m.' *.[ T p.c.{ e.u.) Z e.D.A.",
"!.|.|.K.4.Z.{.n.9.4.+.J Z X.,.T R R X.p./. X(.(.{.{.Z.2.n. X{.[ h.6.^ ^ l.{.S. .0 D | >.c.:.! +.m.'.i.3.p.3.} y.P A l.l.i.F.'.A.",
"!.|.|.L.(.=X Xi.P.Z.~.i.{ S.^.S.u.T B { ).=X|.M.(.=X X7.7.%X X} &.' P L 3.n.' - * $ > R d.g.t.g.D.+XH.i.%X%Xy.D.A.[ i.A.F.D.G.y.",
"L.w.|.C.%XN.{ R.P.(.P.N.p.^.-X{._ H r N 2.$X-X|.-X+XN.7.H.=X*Xm.a k n p 7.'.L + 0 F x F R e.D.t.n.7.M.H.m.N.).+X-XR.i.S.}.i.A.e.",
"~.(.-X#X*XN.y.p.7.~.{.M.i.N.}.E.G g g P 5.(.=X X#XP.5.2.n.~.H.y.] ' ] =.`.+XQ - B u 4 y _ c.P.f.7.2.2.O.5.~._.m.I.f.3.i.3.P y.i.",
"M.P.=X{.i.r A ! +.!.(.Z.~.).m.i.C T e.A +.M.$X X7.5.3.m.H.N.A.J.k C ' V.*X(.Z s X.B 0 h X.e.t.$X(.(.~.f.2.n.H.n.H.l.3.i.i.3.e.{ ",
"7.! 2.n.y.` e.{ #X-X XM.{.{.O.m N e.u.e [ P.-X_./ [ i.H.).H.m./.u.%.' z./.3.Q i.e.B y g u.H.P.-X XZ.Z.P.9.3.f.I.}.).+.2.e.m.{ 2.",
"[ 7 m i.F.E.p.m.:X:X~.f.)._.i.5.J.'.G.Z N._./.i.N.5.) [ l.N.i.3.T.j.h.'.oX7.3.{.A.' N b g.#XD.g.:Xy.! i.m.7.[ ~ +X;XN.[ [ i.2.{.",
":.N Z [ y.G.{ H._.|.n.f.l.i.).{.{ e.3.+.H.3.*.i.G.e.A N ) m.I.'.*.*.y.OX&Xl.8.l.m./ A t.I./.m.i.).} b ) i.e.! e ).+XD.3.H.~.i.).",
"S.A.! A e.J.{ J.$X}.M.~.3.Z A.F.e.3.m.).D.*.] u.A P A V N ' H.*XR.V.6.y.*.! 3.y.7.[ i.~.f.Z S S r r C ' ' { e.*.p.*.3.3.).).3.2.",
"S.:Xm.[ ` *.g 3.$XC.+.~.*.Z '.A.'.G.J.oXH.H.A.] ` :.A.G.e.3.Z.oX=X'.6.] K ' R.{.D._.$X-XP.5.e.N ] ;.A.S.u.e.u.p.A.[ p.e.m.m.N.H."
};
